<svg
  xmlns="http://www.w3.org/2000/svg"
  viewBox="0 0 661.7677612304688 527.5445556640625"
  data-layout="base"
  version="1.1"
  xmlns:xlink="http://www.w3.org/1999/xlink"
  id="tid-111"
  class="svg-template shadow-applied"
  data-upright="true"
>
  <path
    class="part-body view-front leg-left static"
    d="M439.4 94.4a593.6 593.6 0 0 1-3.7 30.8l-.6 4.5-2.8 17.7a615.4 615.4 0 0 1-3.1 17.6 931 931 0 0 0-7.2 51.1l-.2 1.9a1657.7 1657.7 0 0 0-9.2 100.2c-.6 13.5-.6 23.6.3 28.1 2.9 13.9.3 25.8.2 29.3s3.7 54.5 9.7 72.5c5.2 15.7 7 40-.6 48.2-5.7 6.1-18.7 6.1-23.2 6.1s-41 1.2-52.2-4.3-5.8-34.7-3.3-43.8 5.7-50.6 5.6-54c-.3-6 1.6-17.7 2.3-21s-3.1-11.9.9-23.5c2-5.8 1-22.2-.9-38.7l-1-8.1a4800.7 4800.7 0 0 1-12.7-91l-.4-3.1-2-14.6-2.3-17.7-2.4-17.6-2.4-17.7-1-8.1c-.5-3.3-1-6.5-1.3-9.5l-2.4-17.7-2.4-17.6-.8-5.3a182.5 182.5 0 0 1 1-46.1c.1-1.3-1.4-5-1.2-6 .7-4.8 1.7-9.7 2.8-14.5l1.6-6a2 2 0 0 1 1.9-1.5H434a2 2 0 0 1 2 1.5v.1l1.4 5.8c1 4 2.2 9 3.4 14.6.2 1-1.1 4.7-1 6 .4 2.6.7 5.4.9 8.4.7 12.4 0 27.8-1.4 43Z"
    filter="url(#inner-shadow-big)"
  ></path>
  <path
    class="part-body view-back leg-left static"
    d="M631 46c.8 6 .4 23.4-1.2 45l-1.6 17.7-1.3 12.5a459.2 459.2 0 0 1-3.1 22.8 548.4 548.4 0 0 1-6.7 34.5l-.1.8a302.4 302.4 0 0 0-2.8 17.6c-.6 4.6-1.2 9.7-1.7 15.2l-.3 2.5-1.2 13.2c-1.6 17.7-3 37-3.9 53.6l-.1 2.7a545 545 0 0 0-.7 24.3c0 5.7.1 9.9.6 11.8l1 4.4c2.3 11.5 6.2 36.1.3 53.5-5.5 16.2-4.6 54.9-1.6 65.8s3.5 39.8-24 42.4-42.5 1-56.2-4c-9.8-3.6-19.8-22.5-9.4-40.7 3-5.2 5.2-18.4 7.6-22.2s.3-9.8 6.8-20.2 6-24.5 4.8-34-2.3-19.5-1-28.2a477.7 477.7 0 0 0 2-28.6 240.8 240.8 0 0 0-.4-23.5l-.2-2-2.5-23.3-.5-4.7-3.7-33.8-.8-6.6-1.8-16.1-.2-1.5-2.1-17.7-2.2-17.6-2.5-17.7c-1.1-7.2-2.1-13.3-3-17.6l-.1-.4-1.2-4.5a87.9 87.9 0 0 1-2-12.8 307.6 307.6 0 0 1-1.6-17.6 361 361 0 0 1-.2-42.2l.2-4.6.1-1.2c.1-1.4-1.5-5-1.4-6a131.7 131.7 0 0 1 2.3-14.5l1.5-6a2 2 0 0 1 2-1.5h108a2 2 0 0 1 1.9 1.5l1.5 6 .2 1c1.2 4.8 2.4 9.3 3.2 13.5.3 1-1 4.7-.9 6l.2 1.2V46Z"
    filter="url(#inner-shadow-big)"
  ></path>
  <path
    class="part-body view-side leg-left static"
    d="M249.3 112.1a270.4 270.4 0 0 1-3 35.3 399 399 0 0 1-6.8 35.3l-4.2 17.7-.5 1.9a695.4 695.4 0 0 0-17.8 121v.3a131 131 0 0 0 4 39.6c6.3 25.9 11 39.3-2.2 48.4a43.7 43.7 0 0 1-9.1 4.5c-27.8 10.7-48.6 16.5-67.4 38-11.1 13-17.8 11.2-22.8 11.2-8.5 0-73-3-87.7-5.3s-34.3-18.2 12.9-31.7c4.6-1.3 13.8-1.5 25.6-9.7s51.3-52 63.7-66c19.4-21.9 12.4-95 7.2-117.4-1-4.5-2.1-10.4-3.1-17.2a570.1 570.1 0 0 1-4.1-35.3l-1.6-17.6a1396.9 1396.9 0 0 1-4.3-122c0-1.4-1.8-5-1.7-6 .2-5.1.6-9.5 1-13.1l.2-1.3.4-5.7a2 2 0 0 1 2-2h104l2 1.6a166.3 166.3 0 0 0 4.6 17.5l1 2.9c.2.9-.8 4.6-.4 6l1.5 5.7a231.8 231.8 0 0 1 4.5 23.5 250.5 250.5 0 0 1 2 39.9Z"
    filter="url(#inner-shadow-big)"
  ></path>
  <path
    class="part-toe view-front leg-left static part-outline"
    d="M421.8 496.2c-5.7 6.2-18.7 6.2-23.2 6.2s-41 1.2-52.1-4.3c-8.6-4.3-7.5-22.4-5.3-34.7 19.4-5 60-7 84.6-1.1 2.1 13.5 1.5 28-4 34Z"
    filter="url(#inner-shadow-small)"
  ></path>
  <path
    class="part-toe view-side leg-left static part-outline"
    d="M57.6 462.3a375 375 0 0 1-25.8-2.3c-14.6-2.4-34.3-18.2 12.9-31.7l1.6-.4c-2.2 7.4 2 25 11.3 34.4Z"
    filter="url(#inner-shadow-small)"
  ></path>
  <path
    class="part-heel view-side leg-left static part-outline"
    d="M219 411.5a277.3 277.3 0 0 1-33.3-30.7c20.8-1 30.7-10.8 35.4-17.5 6.2 25.7 10.9 39-2.1 48.2Z"
    filter="url(#inner-shadow-small)"
  ></path>
  <path
    class="part-heel view-back leg-left static part-outline"
    d="m609.4 373.6-1.4 5a57.7 57.7 0 0 0-2.6 12.5c-4.4 6.6-4.2 12.2-6.6 23.5-5.3 25-40.4 19.8-55.2 9-10-7.3-10.9-19.1-10.4-27.5 4-8.8 4-19.5 3.1-27.7 21.6-15.7 40.3-27.5 73.1 5.2Z"
    filter="url(#inner-shadow-small)"
  ></path>
  <path
    class="part-sleeve view-front leg-left color1"
    d="M439 94.4a593.6 593.6 0 0 1-3.6 30.7l-.7 4.6-2.7 17.6-1.5 8.4-1.7 9.3a931 931 0 0 0-7.1 51l-.3 1.9c-3.7 31.2-5.7 65.4-7.8 91a52.1 52.1 0 0 0-.3 7c.1 7 2.6 10.3 1.4 15 0 0-1 4.2-1.1 5.9l-.3 2.3c0 .8-.5 1.8-.4 2.2s-.2.8-.5 1.2a39 39 0 0 0-2-.5c-14.6-2.8-21.2-6.8-46.6-2.8-3.3.5-6 1.8-8.8 2.8a2 2 0 0 0-1 .5 3.8 3.8 0 0 0-1 1.3c-2.6-.9-1.4-4.5-1.8-5.6a23 23 0 0 1-1.3-6.7c-.3-4.9 1.6-10.3 1.1-14.4l-1-8.1a4800.7 4800.7 0 0 1-12.7-91l-.4-3.1-2-14.6-2.3-17.7-2.4-17.6-2.3-17.7-1.1-8.1-1.3-9.5L323 112l-2.4-17.6-.8-5.3a182.5 182.5 0 0 1 1-46.1c.2-1.3-1.4-5-1.2-6 .8-4.8 1.7-9.7 2.9-14.6.4-2 1-3.9 1.5-5.9A2 2 0 0 1 326 15h107.7a2 2 0 0 1 2 1.5v.1l1.4 5.8c1 4 2.2 9 3.4 14.6.2 1-1.2 4.7-1 6 .4 2.6.7 5.4.9 8.4.7 12.4 0 27.7-1.4 43Z"
    filter="url(#inner-shadow-big)"
    fill="#0d1d32"
    style="fill: rgb(13, 29, 50)"
  ></path>
  <path
    class="part-sleeve view-side leg-left color1"
    d="M249.3 112.1a270.4 270.4 0 0 1-3 35.3 399 399 0 0 1-6.8 35.3l-4.2 17.7-.5 1.9s-1.7 7.6-3.3 15.7a733.2 733.2 0 0 0-13.8 92.7l-.4 5.8c0 4.3-.8 9.7.9 17.2 1.2 5.6.4 11.5-.5 12.8-15-7.2-33.5-10-56-10.2a35.8 35.8 0 0 0-18.9 3.6 7.6 7.6 0 0 0-2.8 2.6c-.8-1.4-1-1.6-.6-5.6a52.1 52.1 0 0 1 1-6.3c2.4-7.8 3.6-10.7 4.6-13.3a49.2 49.2 0 0 0 1.3-7 17.2 17.2 0 0 0 .1-2l.2-4.5c.4-12.9 0-23.3 0-23.3a261.8 261.8 0 0 0-5.4-45.3c-1-4.5-2.1-10.4-3.1-17.2a570.1 570.1 0 0 1-4.1-35.3l-1.6-17.7a1396.9 1396.9 0 0 1-4.3-122c0-1.3-1.8-4.9-1.7-6 .2-5 .6-9.4 1-13l.2-1.3.4-5.7a2 2 0 0 1 2-2h104l2 1.6a166.3 166.3 0 0 0 4.6 17.5l1 2.9c.2 1-.8 4.6-.4 5.9l1.5 5.8a231.8 231.8 0 0 1 4.5 23.5 250.5 250.5 0 0 1 2 39.9Z"
    filter="url(#inner-shadow-big)"
    fill="#0d1d32"
    style="fill: rgb(13, 29, 50)"
  ></path>
  <path
    class="part-sleeve view-back leg-left color1"
    d="M631 46c.8 6 .4 23.4-1.2 45l-1.6 17.7-1.3 12.5a459.2 459.2 0 0 1-3.1 22.8 548.4 548.4 0 0 1-6.7 34.5l-.1.8a302.4 302.4 0 0 0-2.8 17.6c-.6 4.6-1.2 9.7-1.7 15.2l-.3 2.5-1.2 13.2c-1.6 17.7-3.3 44.7-4.2 61.2-.2 4-.4 26-.3 27.6.6 8.1 6.2 14.4 5.6 19.4-.3 2.5-.8 5.4-1.4 6.5-3-1.4-12-3.6-17.8-5a87.3 87.3 0 0 0-35.8-.5c-5 .8-14.4 2.4-22.5 5.4a10.3 10.3 0 0 1-1.5-4.2v-7c.5-5.3 4-20.9 4-21 1.1-23.8-1.3-29.4-3-49.2l-1-8.4-3.4-31.5-.7-6.5-1.8-16.2-.2-1.5-2.1-17.6-2.3-17.7-2.4-17.6c-1.1-7.3-2.2-13.3-3.1-17.7v-.3l-1.2-4.5a87.9 87.9 0 0 1-2.1-12.8 307.6 307.6 0 0 1-1.5-17.7A361 361 0 0 1 512 49l.3-4.6V43c.2-1.3-1.5-4.9-1.3-6a131.7 131.7 0 0 1 2.2-14.5l1.6-6a2 2 0 0 1 2-1.5h108a2 2 0 0 1 1.9 1.6l1.4 5.9.3 1 3.2 13.5c.2 1-1.1 4.7-.9 6l.2 1.2.2 1.8Z"
    filter="url(#inner-shadow-big)"
    fill="#0d1d32"
    style="fill: rgb(13, 29, 50)"
  ></path>

  <path
    class="part-foldover view-back leg-left color1"
    d="M633.2 18.5a3 3 0 0 0-2.6-3 54.8 54.8 0 0 0-5.6-.5H516.7a39.8 39.8 0 0 0-6.2 1 2.3 2.3 0 0 0-1.8 2.1l-.2 25.7c0 4.9-.1 8.6.2 13l2.9 44.7a1.7 1.7 0 0 0 1.7 1.5h116.2a1.6 1.6 0 0 0 1.5-1.5l3-46.3a93.7 93.7 0 0 0 .2-10.1Z"
    filter="url(#inner-shadow-small)"
    fill="#0d1d32"
    style="fill: rgb(13, 29, 50)"
  ></path>
  <path
    class="part-foldover view-side leg-left color1"
    d="M251 91q-.3-10.9-1.3-21.7a333.5 333.5 0 0 0-6.7-42.7c-.7-2.9-2-8.1-3.7-10.1-1.3-1.5-5.8-1.6-8.7-1.6h-95.9c-3.2 0-8.2.2-11.2 1.4-2.3 1-2 7.7-1.6 12 1.6 20.7 5.3 41 3.8 60.9 0 0-.9 7-.1 9.7.6 2.1.9 3.3 2.1 3.8a1.7 1.7 0 0 0 .8.4h.2a9.7 9.7 0 0 0 3.5 0H245c1.9 0 4.8-.3 5.8-2.2 1.3-2.4.3-7.3.2-10Z"
    filter="url(#inner-shadow-small)"
    fill="#0d1d32"
    style="fill: rgb(13, 29, 50)"
  ></path>
  <path
    class="part-foldover view-front leg-left color1"
    d="M442.1 18a3 3 0 0 0-2.6-2.9 56 56 0 0 0-5.6-.5H325.6a40 40 0 0 0-6.2 1 2.3 2.3 0 0 0-1.7 2.1l-.2 25.7c0 5-.2 8.6 0 13l3 44.7a1.7 1.7 0 0 0 1.6 1.5h116.2a1.6 1.6 0 0 0 1.6-1.5l3-46.3c.2-3.4.2-6.4.1-10.1Z"
    filter="url(#inner-shadow-small)"
    fill="#0d1d32"
    style="fill: rgb(13, 29, 50)"
  ></path>

  <!-- Insert-Design-HERE -->
  <path
    d="M248.6 58.7H124.9L122.8 38h122.5q2 10.3 3.3 20.7Z"
    class="part-cuffstripes1 view-side leg-left color2"
    fill="#f8ba1d"
    style="fill: rgb(248, 186, 29)"
  ></path>
  <path
    d="m443.3 54.8-.2 3.8H318l-.1-2.2c-.3-4.4-.1-8.1-.2-13V38h125.4l.2 6.7-.1 10Z"
    class="part-cuffstripes1 view-front leg-left color2"
    fill="#f8ba1d"
    style="fill: rgb(248, 186, 29)"
  ></path>
  <path
    d="m634 55.2-.3 3.5h-125v-2c-.4-4.4-.2-8-.2-13V38h125.3l.2 7.1a93.7 93.7 0 0 1 0 10Z"
    class="part-cuffstripes1 view-back leg-left color2"
    fill="#f8ba1d"
    style="fill: rgb(248, 186, 29)"
  ></path>
  <path
    d="M250.5 79.4H126c0-6.8-.5-13.7-1.2-20.7h123.7l1.1 10.6.8 10Z"
    class="part-cuffstripes2 view-side leg-left color3"
    fill="#fc4e47"
    style="fill: rgb(252, 78, 71)"
  ></path>
  <polygon
    points="443.05067749023436,58.63018798828125 441.7206774902344,79.3201879882813 319.45067749023434,79.3201879882813 318.1006774902344,58.63018798828125 443.05067749023436,58.63018798828125"
    class="part-cuffstripes2 view-front leg-left color3"
    fill="#fc4e47"
    style="fill: rgb(252, 78, 71)"
  ></polygon>
  <polygon
    points="633.7262365722657,58.66009521484375 632.3962365722656,79.3500952148438 510.08623657226565,79.3500952148438 508.7362365722656,58.66009521484375 633.7262365722657,58.66009521484375"
    class="part-cuffstripes2 view-back leg-left color3"
    fill="#fc4e47"
    style="fill: rgb(252, 78, 71)"
  ></polygon>

  <path
    d="M249.3 108.5v3.6c-.2 5.8-.5 11.5-1 17H130c-.4-5.6-.6-11.3-.9-17l-.2-3.6Zm-116.7 58.3.9 10.4a749.2 749.2 0 0 0 1 10.3h103.8l1.2-4.8 1.2-5.5 2.2-10.4Zm6.6 58.3c.7 3.8 1.3 7.2 2 10.1s1.3 6.4 2 10.6h83c1.3-7.6 2.7-14.6 3.9-20.7Zm7.4 58.3c.2 5.5.3 11.2.1 16.8v3.9h71.5l.3-4a554 554 0 0 1 1.9-16.7Z"
    class="part-stripes1 view-side leg-left color2"
    fill="#f8ba1d"
    style="fill: rgb(248, 186, 29)"
  ></path>
  <path
    d="m437.9 108.4-.4 3.6-1.8 13.2-.5 3.9H325.8l-2.3-17-.5-3.6Zm-107 58.3 1.3 10.4.8 5.5.6 4.8h92.2l.7-4.8.8-5.5 1.6-10.4Zm7.8 58.3 2.8 20.7h77.1L421 225Zm8.1 58.3c.7 4.5 1.6 10.3 2.4 16.8l.6 4h63.6l.3-4 1.3-16.8Z"
    class="part-stripes1 view-front leg-left color2"
    fill="#f8ba1d"
    style="fill: rgb(248, 186, 29)"
  ></path>
  <path
    d="M628.2 108.4a2 2 0 0 1 0 .3L627 121l-.7 5.2-.3 2.8H517.7l-.6-2.8v-.3l-1.2-4.6a87.9 87.9 0 0 1-2-12.7 1.5 1.5 0 0 1 0-.3Zm-104.9 58.3 1.3 10.5.3 2 1 8.2h89.6a153.6 153.6 0 0 1 1.4-8.1l.2-.8.3-1.3 2.4-10.5Zm6.9 58.4 2.2 20.6h77l1.5-17.9.3-2.7Zm6.3 58.3.2 1.6a166.6 166.6 0 0 1 .5 15.1v4h69l.1-4 .7-16v-.7Z"
    class="part-stripes1 view-back leg-left color2"
    fill="#f8ba1d"
    style="fill: rgb(248, 186, 29)"
  ></path>
  <path
    d="M248.3 129.2v.6l-2 17.6-.4 2.5H131.3l-.2-2.5-1.1-17.6v-.6Zm-113.9 58.3 1.4 12.9v.5l1 7.3h96.7l1.3-5.9.3-1.4.2-.5 3-13Zm8.7 58.3c1 5.9 1.8 13 2.5 20.7h77.2c1-7.2 2.2-14.2 3.4-20.7Zm3.5 58.3a172.8 172.8 0 0 1-2 20.7H217v-1.5c.2-6.1.6-12.6 1.2-19.2Z"
    class="part-stripes2 view-side leg-left color3"
    fill="#fc4e47"
    style="fill: rgb(252, 78, 71)"
  ></path>
  <path
    d="m435.2 129-.1.7-2.8 17.6-.4 2.5H328.6l-.4-2.5-1-8.1c-.5-3.3-1-6.4-1.3-9.5l-.1-.6Zm-101.6 58.4 1.7 12.9v.5l1 7.3H423l1-7.3v-.5l1.8-12.9Zm7.9 58.3c1 8.2 2 15.2 2.8 20.7h72.2l2.1-20.7Zm8.3 58.3a483 483 0 0 1 2.4 20.7h60.1a454.8 454.8 0 0 1 .8-16l.3-4.7Z"
    class="part-stripes2 view-front leg-left color3"
    fill="#fc4e47"
    style="fill: rgb(252, 78, 71)"
  ></path>
  <path
    d="M625.8 129.1a625.4 625.4 0 0 1-3 20.7H521l-.8-5.8a368 368 0 0 0-2.5-14.9Zm-100 58.3 1.2 9.5.1 1.5.3 2.5.8 7.2h84.6l.8-7.2.5-4 1.3-9.5Zm6.6 58.3 1 9.3.5 4.7.7 6.7H608l1.5-20.7Zm75.4 78.9-1-4.4c-.5-2-.7-6.1-.7-11.8V304h-69l-.2 4.4c-.1 5.6-.5 11.2-.8 16.2v.1h71.6Z"
    class="part-stripes2 view-back leg-left color3"
    fill="#fc4e47"
    style="fill: rgb(252, 78, 71)"
  ></path>
  <!-- ============= -->

  <path
    class="mask view-back leg-left"
    d="M695.2 23.5c-1.2-5.5-2.6-11-3.8-15.8l-.3-1.2-1.3-5.3A67 67 0 0 0 677-25H464.4a67.2 67.2 0 0 0-11.6 22l-.1.4c-1.2 3.7-2.2 7.5-3 11.3a196.2 196.2 0 0 0-3.4 21.3 66.6 66.6 0 0 0 .6 18.7c-1.4 32.6 1.4 73 6.7 91 2.7 11.5 8 55.3 16.1 130.1a1508 1508 0 0 0 2.5 23c.5 7-.6 28.8-1.4 35.1-2.5 17.1-.6 33 .8 44.6v.5a97 97 0 0 0-8.8 25.3c-2 5-3.2 9.6-4.4 13.8l-.6 2.3a96.9 96.9 0 0 0-4.3 76.6 86.4 86.4 0 0 0 50.6 52.4 158 158 0 0 0 55.7 9c8.6 0 18.1-.4 28.9-1.4a90.3 90.3 0 0 0 67.2-38.5 105.8 105.8 0 0 0 13.9-83.7 156 156 0 0 1 0-29l.2-1 .2-1.3a123.4 123.4 0 0 0 2.4-8.7l.4-1.7 3-39.5a230.7 230.7 0 0 0-4.8-37.5c-.4-21.4 5.6-99.7 9.1-116.3A673.8 673.8 0 0 0 696.2 45a67.3 67.3 0 0 0-1-21.6ZM634 55.2l-3 46.3a1.6 1.6 0 0 1-1.6 1.5h-.6l-.4 3.4-.2 2.3L627 121a459.2 459.2 0 0 1-3.1 22.9l-.7 4.5-2.2 12.3v.1a327 327 0 0 1-4.4 20.6l-.2 1.3-.2.6V184.3l-.2.5v.7l-.4 1.6a258.2 258.2 0 0 0-1 8l-.2 1-.2 1.9-.3 2v.4l-.2 1.5v.3l-.1 1.3-.3 2.6-.2 1.9-1 8.9-.2 2.2a2308 2308 0 0 0-.9 9.6l-.2 2.5A2108 2108 0 0 0 607 289c-.2 4-.4 26-.3 27.6.6 8 6.2 14.4 5.5 19.3-.3 2.5-.7 5.4-1.3 6.5h-.2l.1.6a127.6 127.6 0 0 1 .5 7.1 2.2 2.2 0 0 1 0 .3 87.3 87.3 0 0 1-1.6 22.6l-.1.3a47 47 0 0 1-.4 1.7l-.2.8-.7 2.3-.5 1.4-.1.5-.3 1-.2.7-.2 1.1v.3l-.1.3-.3 1.2v.6l-.3 1.3-.5 3-.1 1-.5 4v1.1a198.8 198.8 0 0 0-.5 6.2l-.1 1.3-.2 3.8V425.8l.8 9.8a1.1 1.1 0 0 0 0 .2l.2 1.8a5.4 5.4 0 0 0 0 .6l.6 3.1a3.5 3.5 0 0 0 0 .5l.3 1.3.1.4.1.3.6 2.4a48.5 48.5 0 0 1 .4 15.2 37.4 37.4 0 0 1-2 8.2 30 30 0 0 1-1.6 3.5 11.1 11.1 0 0 1-.6 1l-.4.7a24.4 24.4 0 0 1-2.4 3.2 79.3 79.3 0 0 1-2.4 2.4l-1.1.9-1.1.7h-.1l-.6.5-.7.3-1.3.7-.7.3a27.1 27.1 0 0 1-3 1.2l-.8.2-.8.2a33.3 33.3 0 0 1-3.6.7l-1.7.2c-27.5 2.6-42.6 1-56.3-4a13.1 13.1 0 0 1-2.5-1.3 17.8 17.8 0 0 1-2.5-1.9c-5-4.6-9-12.8-8.7-22.1v-1.5a28.5 28.5 0 0 1 .4-3.2l.2-.8a32.1 32.1 0 0 1 2.8-8.2l.5-.8c.2-.2.3-.6.4-1 3-5.1 5.3-18.3 7.6-22.1l.2-.3.3-.6a5.8 5.8 0 0 0 .2-.6 13.3 13.3 0 0 0 .5-1.9l.2-1v-.5a36 36 0 0 1 3.6-11.8 28.9 28.9 0 0 1 2.4-4.3v-.1l.6-1 .4-.9.5-1v-.2l.4-.9.4-.8.3-1 .1-.3.2-.5a1.4 1.4 0 0 0 0-.2l.3-.7v-.3l.3-1 .4-1.6.2-1.2.2-1V384.8a1.9 1.9 0 0 0 0-.2l.2-1 .1-1.2a4.6 4.6 0 0 1 0-.6v-.3l.2-1.2v-8l-.1-1.5c-.2-2-.3-4-.6-5.7-.8-7.7-1.8-15.5-1.4-22.7a10.3 10.3 0 0 1-1.5-4.3c-.1-.8-.2-5.3 0-7 .4-5.1 3.8-20.4 3.9-20.9v-1.8a314.6 314.6 0 0 0 0-20c0-1.3-.2-2.4-.3-3.4l-.1-.9-.1-.8a3.1 3.1 0 0 1 0-.3l-1-8.4v-.7l-1.1-10.3-.4-4-.5-4.5V254.3l-.4-3.1v-.5l-.5-3.5-.6-6.2-.2-2.1-2-17.8-.7-6.5-1.9-16.2-.1-1.5-2.2-17.6q-1-9.2-2.2-17.7L520 144c-1-7.3-2.1-13.3-3-17.7l-.1-.3-1.2-4.6a87.9 87.9 0 0 1-2-12.7l-.2-1.4-.1-1.4-.3-2.9a1.7 1.7 0 0 1-1.7-1.5l-2.9-44.7c-.3-4.5-.1-8.1-.1-13l.2-25.7a2.3 2.3 0 0 1 1.7-2.2 39.8 39.8 0 0 1 6.2-.9H625a54.8 54.8 0 0 1 5.6.5 3 3 0 0 1 2.6 3L634 45a93.7 93.7 0 0 1-.1 10Z"
  ></path>
  <path
    class="mask view-side leg-left"
    d="M306.5 36.6a66.7 66.7 0 0 0-2.8-18.2 145.7 145.7 0 0 1-4.2-15.2l-.2-.9-.2-.6a67.1 67.1 0 0 0-13-26.6H77.8A66.7 66.7 0 0 0 63 15.2l-.1 1c-.6 5-1.1 10.9-1.5 17.6A67 67 0 0 0 63 51.4c-.8 57.3 6 159.6 15 198.5 3.6 15.5 5.3 50.7 2.6 65.1-20.6 23-38.3 41.7-46.1 49l-1.4.3-1.1.3-1.2.2-3.3.9-.6.1c-16 4.6-28.9 10.1-39.4 16.9a89.8 89.8 0 0 0-16.5 13.5 74.5 74.5 0 0 0-19.5 37.4 73 73 0 0 0 27.6 72l.6.6a86 86 0 0 0 11 7.3 93.4 93.4 0 0 0 11 5.2 94.7 94.7 0 0 0 20 5.5l2 .3 2 .3c5 .6 11.7 1.2 20.6 1.9h1.4l5.6.5 128.4-20.4a120.9 120.9 0 0 0 9.8-10c3.5-4 7-6.4 15.4-10l49.4-22.1 1.4-1 1.5-1.1a85 85 0 0 0 2.8-2.3l2-1.6a92.5 92.5 0 0 0 6.3-6.1l2.8-3.2.1-.1a82.6 82.6 0 0 0 8-11.4l.5-.8.9-1.7a67.4 67.4 0 0 0 3-6.3 106.9 106.9 0 0 0 4.3-13l.4-2a98.2 98.2 0 0 0 1.8-11.6v-1.7c.2-1.2.2-2.4.2-3.7v-6.3a118.3 118.3 0 0 0-.7-8.7l-.2-1a144 144 0 0 0-1-7.2l-.2-.6-.5-2.8-.2-.7-.6-2.8v-.3l-.7-3-.7-3-.7-2.8-1-4.2c-1-4.3-2.2-8.7-3.2-13.5-.2-1-2.8-16 4.7-65 4.8-31.5 10.9-58 11-58.2l1.7-7.2c9-37.8 23.8-100 6.6-173.2ZM250.8 101a3.5 3.5 0 0 1-1.5 1.4V112a270.4 270.4 0 0 1-3.1 35.3 399 399 0 0 1-7.7 39.3l-.5 2-.4 2-1.2 4.8-1.6 6.9v.3l-.2.6-.1.5-.1.6-.4 1.7-.1.3-.1.5-.2 1-.9 4v.5l-.5 2-.3 1.4-.3 1.5-.1.7a733.2 733.2 0 0 0-14.2 98.6c0 4.2-.8 9.6.9 17.2 1.2 5.5.5 11.4-.4 12.7l.5 4.1.5 2.5.2 1.2a429 429 0 0 0 2 8.8l.7 2.6c.5 2 1 3.8 1.3 5.6l.4 1.3.1.7.5 2 .2.5.5 2.3v.1l.5 2.4v.3l.4 2a1.9 1.9 0 0 0 .1.4l.4 1.8v.4l.7 4v.4l.1 1.5v.4l.2 1.8v3.8a9.7 9.7 0 0 1-.2 1.2v.3l-.2 1.5a.5.5 0 0 1-.1.3l-.3 1a1.9 1.9 0 0 1-.1.5l-.4 1-.2.4-.6 1.2v.2a8 8 0 0 1-.7 1c0 .2-.2.3-.3.4l-.5.8-.4.4-.7.8-.3.4-1.1 1-.5.3-.8.7-.5.4-.3.2a43 43 0 0 1-9.3 4.7c-27.8 10.6-48.6 16.4-67.3 38-11.2 12.8-17.8 11.2-22.9 11.2-6.2 0-37.7-1.4-61.9-3l-5.4-.4H51c-7.1-.6-13.2-1.1-17.1-1.6h-.5l-.5-.1h-.3l-.8-.1a29.7 29.7 0 0 1-6.3-1.8 27.8 27.8 0 0 1-3.4-1.6 20.4 20.4 0 0 1-2.9-1.9c-2.5-2-4.1-4.3-4.3-7a2.7 2.7 0 0 1 0-.6 5.4 5.4 0 0 1 0-.5 1.2 1.2 0 0 1 0-.6c1.2-5.5 9-11.9 29.6-17.7l.9-.3h.4l.3-.1c5-1 13.5-2 24-9.3 11.9-8.2 51.3-52 63.7-66a35.5 35.5 0 0 0 6-10.4c-.6-1.1-.7-1.5-.4-5.3a52.1 52.1 0 0 1 1-6.3c2.4-7.8 3.6-10.7 4.6-13.3a23.6 23.6 0 0 0 .9-4.2c2.4-29-1.6-63.6-5-77.9a611.2 611.2 0 0 1-9-75.2h.1l-.6-7.9-.3-4.7a1637.9 1637.9 0 0 1-2-35.3l-.1-2.7-.1-2.9-.2-3.4h-.2a1.7 1.7 0 0 1-.8-.4c-1.2-.5-1.5-1.7-2.1-3.8-.8-2.7.1-9.7.1-9.7 1.5-19.8-2.2-40.2-3.8-60.9-.3-4.2-.7-11 1.6-12a24 24 0 0 1 6-1.2h.5l4.7-.2h95.9c2.9 0 7.4.1 8.7 1.6 1.7 2 3 7.3 3.6 10.2a333.5 333.5 0 0 1 6.8 42.7q1 10.8 1.3 21.6c0 2.5 1 7.4-.1 9.8Z"
  ></path>
  <path
    class="mask view-front leg-left"
    d="M505.4 44.6a67.3 67.3 0 0 0-1-21.2c-1-5.4-2.4-11-4-17.2l-1.4-6a66.8 66.8 0 0 0-12.8-25.6h-212a66.5 66.5 0 0 0-12.4 23.8v.4a264 264 0 0 0-6 27.6 67.5 67.5 0 0 0-.3 18.8c-1.8 20.4-1.6 41.6.7 54.6 1 6.5 6.8 50.5 11.6 86 7.8 58.5 12.6 94.5 13.8 102 4 24 6.3 45.6 6.6 54.8a100.4 100.4 0 0 0-2.4 33.7 156.4 156.4 0 0 0-2 23.3c-.2 5.2-1.2 17.6-2.2 27.4l-4.3 25-.2 1.4-.7 4.5v.5l-.3 1.9-.1.7-.2 2.1v.4l-.3 2.6v.7l-.2 2v.8l-.2 2v.8l-.1 2.9v7.2l.1 2.8v1.2l.2 2.7.1 1c0 1 .2 1.9.3 2.8l.1 1 .4 2.8.1.5.2 1a91 91 0 0 0 6 20.2l.7 1.5 2 4 1 1.8a74.4 74.4 0 0 0 3.6 5.9l.1.1a71.5 71.5 0 0 0 4.7 6.1l.1.1a72 72 0 0 0 12.7 11.7l2.4 1.7a70.8 70.8 0 0 0 8.2 4.7c16 7.9 36.2 11.1 69.8 11.1H399c8.4 0 33.6-.1 56-14.7a78.1 78.1 0 0 0 14.9-12.6 76.8 76.8 0 0 0 5.7-7v-.1l1.3-1.8 3-4.7.4-.7.8-1.5c1.1-2 2.1-4.2 3.1-6.4l.7-1.6a81.8 81.8 0 0 0 3.5-10.4l.3-1.1.3-1.3 1-4c0-.4 0-.8.2-1.2l.8-4.9.1-1 .4-3.7.1-1 .4-4.4v-14.4l-.2-3v-.4l-.1-.8a164 164 0 0 0-.3-3.9l-.1-.6a159 159 0 0 0-6.8-32.5 274 274 0 0 1-4.7-31.8l-1.6-18.6a142 142 0 0 0-1-41.3c-1-22.3 9-122.3 17.5-168.6 3.5-18.8 13.8-79.3 10.7-122.6ZM443 50.4 443 55l-3 46.4a1.6 1.6 0 0 1-1.6 1.5l-1 8.6-1.7 13.2-.7 4.5-.6 4.4-.3 1.6-.3 2.2v.2l-.4 2.2-.6 3.9-.4 2.8-.2.9-1 5.6-.2 1-.2 1.2-1.6 8.8-.6 4-1.5 9.5-.3 2.3-.7 4.4v.5a1209 1209 0 0 0-.9 6l-.3 2.6-.4 3-.4 3-1.6 12.3a1713 1713 0 0 0-9.3 95.4l-.1 1.3-.3 4.8v2.5c.5 7 2.7 10.4 1.4 15.2 0 0-1 4.2-1.1 5.9l-.3 2.3c0 .8 0 1.8.2 2.3a1.8 1.8 0 0 1-.6 1.2 27.8 27.8 0 0 0 .5 3.3c2.9 13.9.3 25.8.2 29.3v1a.1.1 0 0 0 0 .1 378 378 0 0 0 1.6 21.2c.7 6.8 1.5 14.5 2.5 22a191 191 0 0 0 5.5 28.2 93.6 93.6 0 0 1 4 19.1v.3l.3 2.5v2.7c.2 1.5.2 3 .2 4.4v.5l-.1 2v.2l-.2 2.1a1.7 1.7 0 0 1 0 .5c0 .6 0 1.1-.2 1.7v.3c0 .7-.2 1.3-.3 2a.8.8 0 0 1 0 .3l-.4 1.5a1.5 1.5 0 0 1 0 .4l-.6 1.7v.2l-.6 1.4-.1.3a15.1 15.1 0 0 1-.7 1.4v.2l-.8 1-.2.4a13 13 0 0 1-.8 1 12.6 12.6 0 0 1-2.5 2C413.4 502 403 502 399 502c-4.5 0-41 1.2-52.2-4.3a9 9 0 0 1-.9-.6l-.2-.1a6 6 0 0 1-.6-.5l-.3-.2-.6-.7h-.1a12 12 0 0 1-.7-1l-.1-.2a11 11 0 0 1-.5-.7l-.1-.3-.4-.8-.4-.8-.2-.6v-.2l-.4-1v-.3l-.3-1a3 3 0 0 0 0-.4l-.3-1v-.4l-.1-.7-.2-1.3V483.7l-.2-1.4V477a13.7 13.7 0 0 1 0-1.5v-.6a1 1 0 0 1 0-.1 3.8 3.8 0 0 1 0-.7 1.5 1.5 0 0 1 0-.2v-.5a9.4 9.4 0 0 1 .1-1.2v-.4l.2-1.5a.9.9 0 0 0 0-.2l.1-1.3v-.5a8.5 8.5 0 0 1 .2-1.1v-.4l.5-3a1.8 1.8 0 0 1 0-.3l.2-.6c.6-3.7 1.4-7 2-9.1 2.5-9.2 5.7-50.6 5.5-54-.2-5.9 1.6-17.6 2.4-21 .6-2.6-1.5-8-.8-15.6l.1-1.3a30 30 0 0 1 .6-3l.3-1.2.7-2.3a16.2 16.2 0 0 0 .7-3.1v-.7l.1-.6.1-1.8.1-1.8V343.3a1.6 1.6 0 0 0-.3.5c-2.5-.9-1.3-4.5-1.7-5.6a23 23 0 0 1-1.3-6.7c-.4-4.9 1.6-10.3 1-14.4a858 858 0 0 0-5.5-39.4l-8-59.8-.5-3-2-14.6-2.4-17.7-2.3-17.6-2.4-17.7-1-8.1c-.5-3.3-1-6.5-1.3-9.5-1-6.5-1.7-12.4-2.4-17.7l-1.2-9a1.6 1.6 0 0 1-1.4-1.6l-1-16V84.5l-.3-2.8-1.6-25-.1-3.2V43.3l.2-25.3a2.3 2.3 0 0 1 1.7-2.2 41.5 41.5 0 0 1 5.6-.9c.3-.2 93.5-.2 108.2 0h.5a13.5 13.5 0 0 1 1.4 0l4.3.5a3 3 0 0 1 2.6 3l1 26.6v5.4Z"
  ></path>
  <defs>
    <filter
      id="inner-shadow-big"
      x0="-50%"
      y0="-50%"
      width="200%"
      height="200%"
    >
      <feGaussianBlur
        in="SourceAlpha"
        stdDeviation="8"
        result="blur"
      ></feGaussianBlur>
      <feOffset dy="2" dx="3"></feOffset>
      <feComposite
        in2="SourceAlpha"
        operator="arithmetic"
        k2="-1"
        k3="1"
        result="shadowDiff"
      ></feComposite>

      <feFlood flood-color="#000000" flood-opacity="0.4"></feFlood>
      <feComposite in2="shadowDiff" operator="in"></feComposite>
      <feComposite
        in2="SourceGraphic"
        operator="over"
        result="firstfilter"
      ></feComposite>

      <feGaussianBlur
        in="firstfilter"
        stdDeviation="8"
        result="blur2"
      ></feGaussianBlur>
      <feOffset dy="-2" dx="-3"></feOffset>
      <feComposite
        in2="firstfilter"
        operator="arithmetic"
        k2="-1"
        k3="1"
        result="shadowDiff"
      ></feComposite>

      <feFlood flood-color="#000000" flood-opacity="0.4"></feFlood>
      <feComposite in2="shadowDiff" operator="in"></feComposite>
      <feComposite in2="firstfilter" operator="over"></feComposite>
    </filter>

    <filter
      id="inner-shadow-small"
      x0="-50%"
      y0="-50%"
      width="300%"
      height="300%"
    >
      <feGaussianBlur
        in="SourceAlpha"
        stdDeviation="3"
        result="blur"
      ></feGaussianBlur>
      <feOffset dy="2" dx="3"></feOffset>
      <feComposite
        in2="SourceAlpha"
        operator="arithmetic"
        k2="-1"
        k3="1"
        result="shadowDiff"
      ></feComposite>

      <feFlood flood-color="#000000" flood-opacity="0.3"></feFlood>
      <feComposite in2="shadowDiff" operator="in"></feComposite>
      <feComposite
        in2="SourceGraphic"
        operator="over"
        result="firstfilter"
      ></feComposite>

      <feGaussianBlur
        in="firstfilter"
        stdDeviation="3"
        result="blur2"
      ></feGaussianBlur>
      <feOffset dy="-2" dx="-3"></feOffset>
      <feComposite
        in2="firstfilter"
        operator="arithmetic"
        k2="-1"
        k3="1"
        result="shadowDiff"
      ></feComposite>

      <feFlood flood-color="#000000" flood-opacity="0.3"></feFlood>
      <feComposite in2="shadowDiff" operator="in"></feComposite>
      <feComposite in2="firstfilter" operator="over"></feComposite>
    </filter>

    <filter id="shadowBlur" x="-50%" y="-50%" width="400%" height="400%">
      <feGaussianBlur in="SourceGraphic" stdDeviation="6"></feGaussianBlur>
    </filter>
    <clipPath id="SvgjsClipPath1003">
      <path
        class="mask view-back leg-left"
        d="M695.2 23.5c-1.2-5.5-2.6-11-3.8-15.8l-.3-1.2-1.3-5.3A67 67 0 0 0 677-25H464.4a67.2 67.2 0 0 0-11.6 22l-.1.4c-1.2 3.7-2.2 7.5-3 11.3a196.2 196.2 0 0 0-3.4 21.3 66.6 66.6 0 0 0 .6 18.7c-1.4 32.6 1.4 73 6.7 91 2.7 11.5 8 55.3 16.1 130.1a1508 1508 0 0 0 2.5 23c.5 7-.6 28.8-1.4 35.1-2.5 17.1-.6 33 .8 44.6v.5a97 97 0 0 0-8.8 25.3c-2 5-3.2 9.6-4.4 13.8l-.6 2.3a96.9 96.9 0 0 0-4.3 76.6 86.4 86.4 0 0 0 50.6 52.4 158 158 0 0 0 55.7 9c8.6 0 18.1-.4 28.9-1.4a90.3 90.3 0 0 0 67.2-38.5 105.8 105.8 0 0 0 13.9-83.7 156 156 0 0 1 0-29l.2-1 .2-1.3a123.4 123.4 0 0 0 2.4-8.7l.4-1.7 3-39.5a230.7 230.7 0 0 0-4.8-37.5c-.4-21.4 5.6-99.7 9.1-116.3A673.8 673.8 0 0 0 696.2 45a67.3 67.3 0 0 0-1-21.6ZM634 55.2l-3 46.3a1.6 1.6 0 0 1-1.6 1.5h-.6l-.4 3.4-.2 2.3L627 121a459.2 459.2 0 0 1-3.1 22.9l-.7 4.5-2.2 12.3v.1a327 327 0 0 1-4.4 20.6l-.2 1.3-.2.6V184.3l-.2.5v.7l-.4 1.6a258.2 258.2 0 0 0-1 8l-.2 1-.2 1.9-.3 2v.4l-.2 1.5v.3l-.1 1.3-.3 2.6-.2 1.9-1 8.9-.2 2.2a2308 2308 0 0 0-.9 9.6l-.2 2.5A2108 2108 0 0 0 607 289c-.2 4-.4 26-.3 27.6.6 8 6.2 14.4 5.5 19.3-.3 2.5-.7 5.4-1.3 6.5h-.2l.1.6a127.6 127.6 0 0 1 .5 7.1 2.2 2.2 0 0 1 0 .3 87.3 87.3 0 0 1-1.6 22.6l-.1.3a47 47 0 0 1-.4 1.7l-.2.8-.7 2.3-.5 1.4-.1.5-.3 1-.2.7-.2 1.1v.3l-.1.3-.3 1.2v.6l-.3 1.3-.5 3-.1 1-.5 4v1.1a198.8 198.8 0 0 0-.5 6.2l-.1 1.3-.2 3.8V425.8l.8 9.8a1.1 1.1 0 0 0 0 .2l.2 1.8a5.4 5.4 0 0 0 0 .6l.6 3.1a3.5 3.5 0 0 0 0 .5l.3 1.3.1.4.1.3.6 2.4a48.5 48.5 0 0 1 .4 15.2 37.4 37.4 0 0 1-2 8.2 30 30 0 0 1-1.6 3.5 11.1 11.1 0 0 1-.6 1l-.4.7a24.4 24.4 0 0 1-2.4 3.2 79.3 79.3 0 0 1-2.4 2.4l-1.1.9-1.1.7h-.1l-.6.5-.7.3-1.3.7-.7.3a27.1 27.1 0 0 1-3 1.2l-.8.2-.8.2a33.3 33.3 0 0 1-3.6.7l-1.7.2c-27.5 2.6-42.6 1-56.3-4a13.1 13.1 0 0 1-2.5-1.3 17.8 17.8 0 0 1-2.5-1.9c-5-4.6-9-12.8-8.7-22.1v-1.5a28.5 28.5 0 0 1 .4-3.2l.2-.8a32.1 32.1 0 0 1 2.8-8.2l.5-.8c.2-.2.3-.6.4-1 3-5.1 5.3-18.3 7.6-22.1l.2-.3.3-.6a5.8 5.8 0 0 0 .2-.6 13.3 13.3 0 0 0 .5-1.9l.2-1v-.5a36 36 0 0 1 3.6-11.8 28.9 28.9 0 0 1 2.4-4.3v-.1l.6-1 .4-.9.5-1v-.2l.4-.9.4-.8.3-1 .1-.3.2-.5a1.4 1.4 0 0 0 0-.2l.3-.7v-.3l.3-1 .4-1.6.2-1.2.2-1V384.8a1.9 1.9 0 0 0 0-.2l.2-1 .1-1.2a4.6 4.6 0 0 1 0-.6v-.3l.2-1.2v-8l-.1-1.5c-.2-2-.3-4-.6-5.7-.8-7.7-1.8-15.5-1.4-22.7a10.3 10.3 0 0 1-1.5-4.3c-.1-.8-.2-5.3 0-7 .4-5.1 3.8-20.4 3.9-20.9v-1.8a314.6 314.6 0 0 0 0-20c0-1.3-.2-2.4-.3-3.4l-.1-.9-.1-.8a3.1 3.1 0 0 1 0-.3l-1-8.4v-.7l-1.1-10.3-.4-4-.5-4.5V254.3l-.4-3.1v-.5l-.5-3.5-.6-6.2-.2-2.1-2-17.8-.7-6.5-1.9-16.2-.1-1.5-2.2-17.6q-1-9.2-2.2-17.7L520 144c-1-7.3-2.1-13.3-3-17.7l-.1-.3-1.2-4.6a87.9 87.9 0 0 1-2-12.7l-.2-1.4-.1-1.4-.3-2.9a1.7 1.7 0 0 1-1.7-1.5l-2.9-44.7c-.3-4.5-.1-8.1-.1-13l.2-25.7a2.3 2.3 0 0 1 1.7-2.2 39.8 39.8 0 0 1 6.2-.9H625a54.8 54.8 0 0 1 5.6.5 3 3 0 0 1 2.6 3L634 45a93.7 93.7 0 0 1-.1 10Z"
        transform="matrix(1,0,0,1,0,-0.25)"
      ></path>
      <path
        class="mask view-side leg-left"
        d="M306.5 36.6a66.7 66.7 0 0 0-2.8-18.2 145.7 145.7 0 0 1-4.2-15.2l-.2-.9-.2-.6a67.1 67.1 0 0 0-13-26.6H77.8A66.7 66.7 0 0 0 63 15.2l-.1 1c-.6 5-1.1 10.9-1.5 17.6A67 67 0 0 0 63 51.4c-.8 57.3 6 159.6 15 198.5 3.6 15.5 5.3 50.7 2.6 65.1-20.6 23-38.3 41.7-46.1 49l-1.4.3-1.1.3-1.2.2-3.3.9-.6.1c-16 4.6-28.9 10.1-39.4 16.9a89.8 89.8 0 0 0-16.5 13.5 74.5 74.5 0 0 0-19.5 37.4 73 73 0 0 0 27.6 72l.6.6a86 86 0 0 0 11 7.3 93.4 93.4 0 0 0 11 5.2 94.7 94.7 0 0 0 20 5.5l2 .3 2 .3c5 .6 11.7 1.2 20.6 1.9h1.4l5.6.5 128.4-20.4a120.9 120.9 0 0 0 9.8-10c3.5-4 7-6.4 15.4-10l49.4-22.1 1.4-1 1.5-1.1a85 85 0 0 0 2.8-2.3l2-1.6a92.5 92.5 0 0 0 6.3-6.1l2.8-3.2.1-.1a82.6 82.6 0 0 0 8-11.4l.5-.8.9-1.7a67.4 67.4 0 0 0 3-6.3 106.9 106.9 0 0 0 4.3-13l.4-2a98.2 98.2 0 0 0 1.8-11.6v-1.7c.2-1.2.2-2.4.2-3.7v-6.3a118.3 118.3 0 0 0-.7-8.7l-.2-1a144 144 0 0 0-1-7.2l-.2-.6-.5-2.8-.2-.7-.6-2.8v-.3l-.7-3-.7-3-.7-2.8-1-4.2c-1-4.3-2.2-8.7-3.2-13.5-.2-1-2.8-16 4.7-65 4.8-31.5 10.9-58 11-58.2l1.7-7.2c9-37.8 23.8-100 6.6-173.2ZM250.8 101a3.5 3.5 0 0 1-1.5 1.4V112a270.4 270.4 0 0 1-3.1 35.3 399 399 0 0 1-7.7 39.3l-.5 2-.4 2-1.2 4.8-1.6 6.9v.3l-.2.6-.1.5-.1.6-.4 1.7-.1.3-.1.5-.2 1-.9 4v.5l-.5 2-.3 1.4-.3 1.5-.1.7a733.2 733.2 0 0 0-14.2 98.6c0 4.2-.8 9.6.9 17.2 1.2 5.5.5 11.4-.4 12.7l.5 4.1.5 2.5.2 1.2a429 429 0 0 0 2 8.8l.7 2.6c.5 2 1 3.8 1.3 5.6l.4 1.3.1.7.5 2 .2.5.5 2.3v.1l.5 2.4v.3l.4 2a1.9 1.9 0 0 0 .1.4l.4 1.8v.4l.7 4v.4l.1 1.5v.4l.2 1.8v3.8a9.7 9.7 0 0 1-.2 1.2v.3l-.2 1.5a.5.5 0 0 1-.1.3l-.3 1a1.9 1.9 0 0 1-.1.5l-.4 1-.2.4-.6 1.2v.2a8 8 0 0 1-.7 1c0 .2-.2.3-.3.4l-.5.8-.4.4-.7.8-.3.4-1.1 1-.5.3-.8.7-.5.4-.3.2a43 43 0 0 1-9.3 4.7c-27.8 10.6-48.6 16.4-67.3 38-11.2 12.8-17.8 11.2-22.9 11.2-6.2 0-37.7-1.4-61.9-3l-5.4-.4H51c-7.1-.6-13.2-1.1-17.1-1.6h-.5l-.5-.1h-.3l-.8-.1a29.7 29.7 0 0 1-6.3-1.8 27.8 27.8 0 0 1-3.4-1.6 20.4 20.4 0 0 1-2.9-1.9c-2.5-2-4.1-4.3-4.3-7a2.7 2.7 0 0 1 0-.6 5.4 5.4 0 0 1 0-.5 1.2 1.2 0 0 1 0-.6c1.2-5.5 9-11.9 29.6-17.7l.9-.3h.4l.3-.1c5-1 13.5-2 24-9.3 11.9-8.2 51.3-52 63.7-66a35.5 35.5 0 0 0 6-10.4c-.6-1.1-.7-1.5-.4-5.3a52.1 52.1 0 0 1 1-6.3c2.4-7.8 3.6-10.7 4.6-13.3a23.6 23.6 0 0 0 .9-4.2c2.4-29-1.6-63.6-5-77.9a611.2 611.2 0 0 1-9-75.2h.1l-.6-7.9-.3-4.7a1637.9 1637.9 0 0 1-2-35.3l-.1-2.7-.1-2.9-.2-3.4h-.2a1.7 1.7 0 0 1-.8-.4c-1.2-.5-1.5-1.7-2.1-3.8-.8-2.7.1-9.7.1-9.7 1.5-19.8-2.2-40.2-3.8-60.9-.3-4.2-.7-11 1.6-12a24 24 0 0 1 6-1.2h.5l4.7-.2h95.9c2.9 0 7.4.1 8.7 1.6 1.7 2 3 7.3 3.6 10.2a333.5 333.5 0 0 1 6.8 42.7q1 10.8 1.3 21.6c0 2.5 1 7.4-.1 9.8Z"
        transform="matrix(1,0,0,1,0,-0.25)"
      ></path>
      <path
        class="mask view-front leg-left"
        d="M505.4 44.6a67.3 67.3 0 0 0-1-21.2c-1-5.4-2.4-11-4-17.2l-1.4-6a66.8 66.8 0 0 0-12.8-25.6h-212a66.5 66.5 0 0 0-12.4 23.8v.4a264 264 0 0 0-6 27.6 67.5 67.5 0 0 0-.3 18.8c-1.8 20.4-1.6 41.6.7 54.6 1 6.5 6.8 50.5 11.6 86 7.8 58.5 12.6 94.5 13.8 102 4 24 6.3 45.6 6.6 54.8a100.4 100.4 0 0 0-2.4 33.7 156.4 156.4 0 0 0-2 23.3c-.2 5.2-1.2 17.6-2.2 27.4l-4.3 25-.2 1.4-.7 4.5v.5l-.3 1.9-.1.7-.2 2.1v.4l-.3 2.6v.7l-.2 2v.8l-.2 2v.8l-.1 2.9v7.2l.1 2.8v1.2l.2 2.7.1 1c0 1 .2 1.9.3 2.8l.1 1 .4 2.8.1.5.2 1a91 91 0 0 0 6 20.2l.7 1.5 2 4 1 1.8a74.4 74.4 0 0 0 3.6 5.9l.1.1a71.5 71.5 0 0 0 4.7 6.1l.1.1a72 72 0 0 0 12.7 11.7l2.4 1.7a70.8 70.8 0 0 0 8.2 4.7c16 7.9 36.2 11.1 69.8 11.1H399c8.4 0 33.6-.1 56-14.7a78.1 78.1 0 0 0 14.9-12.6 76.8 76.8 0 0 0 5.7-7v-.1l1.3-1.8 3-4.7.4-.7.8-1.5c1.1-2 2.1-4.2 3.1-6.4l.7-1.6a81.8 81.8 0 0 0 3.5-10.4l.3-1.1.3-1.3 1-4c0-.4 0-.8.2-1.2l.8-4.9.1-1 .4-3.7.1-1 .4-4.4v-14.4l-.2-3v-.4l-.1-.8a164 164 0 0 0-.3-3.9l-.1-.6a159 159 0 0 0-6.8-32.5 274 274 0 0 1-4.7-31.8l-1.6-18.6a142 142 0 0 0-1-41.3c-1-22.3 9-122.3 17.5-168.6 3.5-18.8 13.8-79.3 10.7-122.6ZM443 50.4 443 55l-3 46.4a1.6 1.6 0 0 1-1.6 1.5l-1 8.6-1.7 13.2-.7 4.5-.6 4.4-.3 1.6-.3 2.2v.2l-.4 2.2-.6 3.9-.4 2.8-.2.9-1 5.6-.2 1-.2 1.2-1.6 8.8-.6 4-1.5 9.5-.3 2.3-.7 4.4v.5a1209 1209 0 0 0-.9 6l-.3 2.6-.4 3-.4 3-1.6 12.3a1713 1713 0 0 0-9.3 95.4l-.1 1.3-.3 4.8v2.5c.5 7 2.7 10.4 1.4 15.2 0 0-1 4.2-1.1 5.9l-.3 2.3c0 .8 0 1.8.2 2.3a1.8 1.8 0 0 1-.6 1.2 27.8 27.8 0 0 0 .5 3.3c2.9 13.9.3 25.8.2 29.3v1a.1.1 0 0 0 0 .1 378 378 0 0 0 1.6 21.2c.7 6.8 1.5 14.5 2.5 22a191 191 0 0 0 5.5 28.2 93.6 93.6 0 0 1 4 19.1v.3l.3 2.5v2.7c.2 1.5.2 3 .2 4.4v.5l-.1 2v.2l-.2 2.1a1.7 1.7 0 0 1 0 .5c0 .6 0 1.1-.2 1.7v.3c0 .7-.2 1.3-.3 2a.8.8 0 0 1 0 .3l-.4 1.5a1.5 1.5 0 0 1 0 .4l-.6 1.7v.2l-.6 1.4-.1.3a15.1 15.1 0 0 1-.7 1.4v.2l-.8 1-.2.4a13 13 0 0 1-.8 1 12.6 12.6 0 0 1-2.5 2C413.4 502 403 502 399 502c-4.5 0-41 1.2-52.2-4.3a9 9 0 0 1-.9-.6l-.2-.1a6 6 0 0 1-.6-.5l-.3-.2-.6-.7h-.1a12 12 0 0 1-.7-1l-.1-.2a11 11 0 0 1-.5-.7l-.1-.3-.4-.8-.4-.8-.2-.6v-.2l-.4-1v-.3l-.3-1a3 3 0 0 0 0-.4l-.3-1v-.4l-.1-.7-.2-1.3V483.7l-.2-1.4V477a13.7 13.7 0 0 1 0-1.5v-.6a1 1 0 0 1 0-.1 3.8 3.8 0 0 1 0-.7 1.5 1.5 0 0 1 0-.2v-.5a9.4 9.4 0 0 1 .1-1.2v-.4l.2-1.5a.9.9 0 0 0 0-.2l.1-1.3v-.5a8.5 8.5 0 0 1 .2-1.1v-.4l.5-3a1.8 1.8 0 0 1 0-.3l.2-.6c.6-3.7 1.4-7 2-9.1 2.5-9.2 5.7-50.6 5.5-54-.2-5.9 1.6-17.6 2.4-21 .6-2.6-1.5-8-.8-15.6l.1-1.3a30 30 0 0 1 .6-3l.3-1.2.7-2.3a16.2 16.2 0 0 0 .7-3.1v-.7l.1-.6.1-1.8.1-1.8V343.3a1.6 1.6 0 0 0-.3.5c-2.5-.9-1.3-4.5-1.7-5.6a23 23 0 0 1-1.3-6.7c-.4-4.9 1.6-10.3 1-14.4a858 858 0 0 0-5.5-39.4l-8-59.8-.5-3-2-14.6-2.4-17.7-2.3-17.6-2.4-17.7-1-8.1c-.5-3.3-1-6.5-1.3-9.5-1-6.5-1.7-12.4-2.4-17.7l-1.2-9a1.6 1.6 0 0 1-1.4-1.6l-1-16V84.5l-.3-2.8-1.6-25-.1-3.2V43.3l.2-25.3a2.3 2.3 0 0 1 1.7-2.2 41.5 41.5 0 0 1 5.6-.9c.3-.2 93.5-.2 108.2 0h.5a13.5 13.5 0 0 1 1.4 0l4.3.5a3 3 0 0 1 2.6 3l1 26.6v5.4Z"
        transform="matrix(1,0,0,1,0,-0.25)"
      ></path>
    </clipPath>
  </defs>
  <ellipse
    rx="92.5"
    ry="12.5"
    cx="102.47086143493652"
    cy="457.88465118408203"
    filter="url(#shadowBlur)"
    fill="#777777"
    fill-opacity="0.7"
    class="part-shadow view-side"
    clip-path="url(#SvgjsClipPath1003)"
  ></ellipse>
  <ellipse
    rx="55"
    ry="12.5"
    cx="383.2785186767578"
    cy="497.0107727050781"
    filter="url(#shadowBlur)"
    fill="#777777"
    fill-opacity="0.7"
    class="part-shadow view-front"
    clip-path="url(#SvgjsClipPath1003)"
  ></ellipse>
  <ellipse
    rx="55"
    ry="12.5"
    cx="561.095458984375"
    cy="482.03195095062256"
    filter="url(#shadowBlur)"
    fill="#777777"
    fill-opacity="0.7"
    class="part-shadow view-back"
    clip-path="url(#SvgjsClipPath1003)"
  ></ellipse>
</svg>
