<svg
  xmlns="http://www.w3.org/2000/svg"
  viewBox="0 0 661.7310485839844 527.4945678710938"
  data-layout="base"
  version="1.1"
  xmlns:xlink="http://www.w3.org/1999/xlink"
  class="svg-template shadow-applied"
  data-upright="true"
>
  <path
    d="M439.4 94.4a593.6 593.6 0 01-3.7 30.8l-.6 4.5-2.8 17.6c-.6 3.5-1 6.3-1.5 8.4l-1.6 9.3a931 931 0 00-7.2 51l-.2 2a1657.7 1657.7 0 00-9.2 100.1c-.6 13.5-.6 23.7.3 28.2 2.9 13.8.3 25.7.2 29.2s3.7 54.6 9.7 72.5c5.2 15.7 7 40-.6 48.2-5.7 6.2-18.7 6.2-23.2 6.2s-41 1.2-52.2-4.3-5.8-34.7-3.3-43.9 5.7-50.5 5.6-54c-.3-5.8 1.6-17.6 2.3-21s-3.1-11.8.9-23.4c2-5.8 1-22.2-.9-38.7l-1-8.1a4800.7 4800.7 0 01-12.7-91l-.4-3.1-2-14.6-2.3-17.7-2.4-17.6-2.4-17.7-1-8.1c-.5-3.3-1-6.4-1.3-9.5l-2.4-17.7-2.4-17.6-.8-5.3a182.5 182.5 0 011-46.1c.1-1.3-1.4-5-1.2-6 .7-4.8 1.7-9.7 2.8-14.5l1.6-6a2 2 0 011.9-1.5H434a2 2 0 012 1.5v.1l1.4 5.8c1 4 2.2 9 3.3 14.6.3 1-1 4.7-.9 6 .4 2.6.7 5.4.8 8.4.8 12.4 0 27.8-1.3 43z"
    class="part-body view-front leg-left color1"
    filter="url(#inner-shadow-big)"
    fill="#0d1d32"
    style="fill: rgb(13, 29, 50)"
  ></path>
  <path
    d="M631 46c.8 6 .4 23.4-1.3 45l-1.5 17.7-1.4 12.5a459.2 459.2 0 01-3 22.8 548.4 548.4 0 01-6.7 34.5l-.2.8-1 4.9-1.8 12.8-1.7 15-.2 2.6-1.3 13.2c-1.6 17.7-3 37-3.8 53.6l-.1 2.7a545 545 0 00-.8 24.3c0 5.7.2 9.9.6 11.8l1 4.4c2.4 11.5 6.3 36.1.4 53.5-5.6 16.2-4.7 54.9-1.7 65.8s3.6 39.8-23.9 42.4-42.6 1-56.2-4c-9.9-3.6-19.8-22.5-9.5-40.7 3-5.2 5.3-18.4 7.6-22.2s.4-9.8 6.9-20.2 5.9-24.5 4.8-34-2.3-19.5-1-28.2a477.7 477.7 0 002-28.6 240.8 240.8 0 00-.4-23.5l-.2-2-2.6-23.3-.5-4.7-3.7-33.8-.7-6.6-1.8-16.1-.2-1.5-2.1-17.7-2.3-17.6-2.4-17.7c-1.1-7.2-2.2-13.3-3.1-17.6v-.4l-1.2-4.5a87.9 87.9 0 01-2.1-12.8 307.6 307.6 0 01-1.5-17.6 361 361 0 01-.3-42.2l.3-4.6V43c.2-1.4-1.5-5-1.4-6a131.7 131.7 0 012.3-14.5l1.6-6a2 2 0 012-1.5h108a2 2 0 011.8 1.5l1.5 6 .3 1 3.2 13.5c.2 1-1.1 4.7-.9 6l.2 1.2V46z"
    class="part-body view-back leg-left color1"
    filter="url(#inner-shadow-big)"
    fill="#0d1d32"
    style="fill: rgb(13, 29, 50)"
  ></path>
  <path
    d="M249.3 112.1a270.4 270.4 0 01-3 35.3 399 399 0 01-6.8 35.3l-4.2 17.7-.5 1.9a695.4 695.4 0 00-17.8 121v.3a131 131 0 004 39.6c6.3 25.9 11 39.3-2.2 48.4a43.7 43.7 0 01-9.1 4.5c-27.8 10.7-48.6 16.5-67.4 38-11.1 13-17.8 11.2-22.8 11.2-8.5 0-73-3-87.7-5.3s-34.3-18.2 12.9-31.7c4.6-1.3 13.8-1.5 25.6-9.7s51.3-52 63.7-66c19.4-21.9 12.4-95 7.2-117.4-1-4.5-2.1-10.4-3.1-17.2a570.1 570.1 0 01-4.1-35.3l-1.6-17.6a1396.9 1396.9 0 01-4.3-122c0-1.4-1.8-5-1.7-6 .2-5.1.6-9.5 1-13.1l.2-1.3.4-5.7a2 2 0 012-2h104l2 1.6a166.3 166.3 0 004.6 17.5l1 2.9c.2.9-.8 4.6-.4 6l1.5 5.7a231.8 231.8 0 014.5 23.5 250.5 250.5 0 012 39.9z"
    class="part-body view-side leg-left color1"
    filter="url(#inner-shadow-big)"
    fill="#0d1d32"
    style="fill: rgb(13, 29, 50)"
  ></path>
  <path
    d="M422.2 496.2c-5.7 6.2-18.7 6.2-23.2 6.2s-41 1.2-52.2-4.3c-8.5-4.2-7.4-22.4-5.3-34.7 19.5-5 60.1-7 84.7-1.1 2 13.5 1.5 28-4 34z"
    class="part-toe view-front leg-left color1 part-outline"
    filter="url(#inner-shadow-small)"
    fill="#0d1d32"
    style="fill: rgb(13, 29, 50)"
  ></path>
  <path
    d="M57.6 462.3a375 375 0 01-25.8-2.3c-14.6-2.4-34.3-18.2 12.9-31.7l1.6-.4c-2.2 7.4 2 25 11.3 34.4z"
    class="part-toe view-side leg-left color1 part-outline"
    filter="url(#inner-shadow-small)"
    fill="#0d1d32"
    style="fill: rgb(13, 29, 50)"
  ></path>
  <path
    d="M219 411.5a277.3 277.3 0 01-33.3-30.7c20.8-1 30.7-10.8 35.4-17.5 6.2 25.7 10.9 39-2.1 48.2z"
    class="part-heel view-side leg-left color1 part-outline"
    filter="url(#inner-shadow-small)"
    fill="#0d1d32"
    style="fill: rgb(13, 29, 50)"
  ></path>
  <path
    d="M609.4 373.6l-1.4 5a57.7 57.7 0 00-2.6 12.5c-4.4 6.6-4.2 12.2-6.6 23.5-5.3 25-40.4 19.8-55.2 9-10-7.3-10.9-19.1-10.4-27.5 4-8.8 4-19.5 3.1-27.7 21.6-15.7 40.3-27.5 73.1 5.2z"
    class="part-heel view-back leg-left color1 part-outline"
    filter="url(#inner-shadow-small)"
    fill="#0d1d32"
    style="fill: rgb(13, 29, 50)"
  ></path>
  <path
    id="a"
    d="M342 461.2c11.3-2.8 29-4.6 46.2-4.6 10.3 0 25 .6 37.6 3.5"
    class="area-toetext view-front leg-left color2"
    fill="#f8ba1d"
    style="fill: rgb(248, 186, 29)"
  ></path>
  <path
    id="b"
    d="M36.5 394.4c2.7 8 20.2 61 22.3 67.9"
    class="area-toetext view-side leg-left color2"
    fill="#f8ba1d"
    style="fill: rgb(248, 186, 29)"
  ></path>
  <path
    d="M634 55.2l-.3 3.5-1.3 20.7-1.4 22.1a1.6 1.6 0 01-1.6 1.5H513.2a1.7 1.7 0 01-1.7-1.5l-1.4-22.1-1.4-20.7v-2c-.4-4.4-.2-8-.2-13V38l.1-19.9a2.3 2.3 0 011.8-2.2 39.8 39.8 0 016.2-.9H624.9a54.8 54.8 0 015.6.5 3 3 0 012.6 3l.7 19.5.2 7a93.7 93.7 0 010 10.2z"
    class="part-foldover view-back leg-left color1"
    filter="url(#inner-shadow-small)"
    fill="#0d1d32"
    style="fill: rgb(13, 29, 50)"
  ></path>
  <path
    d="M634 55.2l-.3 3.5h-125v-2c-.4-4.4-.2-8-.2-13V38h125.3l.2 7.1a93.7 93.7 0 010 10z"
    class="part-foldover view-back leg-left color2"
    filter="url(#inner-shadow-small)"
    fill="#f8ba1d"
    style="fill: rgb(248, 186, 29)"
  ></path>
  <polygon
    points="633.7262365722657,58.66009521484375 632.3962365722656,79.3500952148438 510.08623657226565,79.3500952148438 508.7362365722656,58.66009521484375 633.7262365722657,58.66009521484375"
    class="part-foldover view-back leg-left color3"
    filter="url(#inner-shadow-small)"
    fill="#fc4e47"
    style="fill: rgb(252, 78, 71)"
  ></polygon>
  <path
    d="M628.2 108.4a2 2 0 010 .3L627 121l-.7 5.2-.3 2.8H517.7l-.6-2.8v-.3l-1.2-4.6a87.9 87.9 0 01-2-12.7 1.5 1.5 0 010-.3zm-104.9 58.3l1.3 10.5.3 2 1 8.2h89.6a153.6 153.6 0 011.4-8.1l.2-.8.3-1.3 2.4-10.5zm6.9 58.4l2.2 20.6h77l1.5-17.9.3-2.7zm6.3 58.3l.2 1.6a166.6 166.6 0 01.5 15.1v4h69l.1-4 .7-16v-.7z"
    class="part-design view-back leg-left color2"
    fill="#f8ba1d"
    style="fill: rgb(248, 186, 29)"
  ></path>
  <path
    d="M625.8 129.1a625.4 625.4 0 01-3 20.7H521l-.8-5.8a368 368 0 00-2.5-14.9zm-100 58.3l1.2 9.5.1 1.5.3 2.5.8 7.2h84.6l.8-7.2.5-4 1.3-9.5zm6.6 58.3l1 9.3.5 4.7.7 6.7H608l1.5-20.7zm75.4 78.9l-1-4.4c-.5-2-.7-6.1-.7-11.8V304h-69l-.2 4.4c-.1 5.6-.5 11.2-.8 16.2v.1h71.6z"
    class="part-design view-back leg-left color3"
    fill="#fc4e47"
    style="fill: rgb(252, 78, 71)"
  ></path>
  <path
    d="M555.4 450.3l-4.5 37 3.6.1 4.4-36.6zm-7-.9l-4.6 37.2 3.6.4 4.5-37.1zm-7-.9l-4.4 37 3.5.6L545 449zm-7-.9l-4.3 36 3.5 1 4.4-36.5zm-7-.9l-4 34.2a13.3 13.3 0 002.6 1.4l.7.2 4.3-35.3zm-7-.9l-3.4 28.6a24.9 24.9 0 003.1 4l4-32zm83.4 10.9l-2.2 19.7a29.4 29.4 0 005-11l1-8.3zm-6.8-1l-3.4 27.4a23.7 23.7 0 004-2.6l3-24.3zm-7-.8l-3.8 30.8a30.7 30.7 0 003.8-1l3.5-29.3zm-7-1l-4 32.7 3.1-.3h.5l3.9-31.9zm-7-.8l-4.1 34 3.6-.3 4-33.3zm-7-1l-4.3 35.3 3.7-.1 4.2-34.7zm-7-.9l-4.4 36.3h3.6l4.4-35.8zm-47.4-6.1a33.3 33.3 0 00-2.2 7.7l-.3 2v.1a31.5 31.5 0 002 14l2.8-23.5z"
    class="part-design view-back leg-left color2"
    fill="#f8ba1d"
    style="fill: rgb(248, 186, 29)"
  ></path>
  <path
    d="M250.9 100.9a3.3 3.3 0 01-1.6 1.4 10 10 0 01-4.2.8H132.2a9.7 9.7 0 01-3.4 0h-.3a1.7 1.7 0 01-.8-.3c-1.2-.6-1.5-1.8-2.1-4-.8-2.6.1-9.6.1-9.6.3-3.2.4-6.5.4-9.8 0-6.8-.5-13.7-1.2-20.7L122.8 38l-.9-9.7c-.3-4.3-.7-11 1.6-12a24.4 24.4 0 016.3-1.2h.2c1.7-.2 3.3-.2 4.7-.2h96c2.8 0 7.3.1 8.6 1.6 1.8 2 3 7.2 3.7 10.1l2.3 11.4q2 10.3 3.3 20.7l1.1 10.6.8 10L251 91c0 2.7 1 7.6-.1 10z"
    class="part-foldover view-side leg-left color1"
    filter="url(#inner-shadow-small)"
    fill="#0d1d32"
    style="fill: rgb(13, 29, 50)"
  ></path>
  <path
    d="M248.6 58.7H124.9L122.8 38h122.5q2 10.3 3.3 20.7z"
    class="part-foldover view-side leg-left color2"
    filter="url(#inner-shadow-small)"
    fill="#f8ba1d"
    style="fill: rgb(248, 186, 29)"
  ></path>
  <path
    d="M250.5 79.4H126c0-6.8-.5-13.7-1.2-20.7h123.7l1.1 10.6.8 10z"
    class="part-foldover view-side leg-left color3"
    filter="url(#inner-shadow-small)"
    fill="#fc4e47"
    style="fill: rgb(252, 78, 71)"
  ></path>
  <path
    d="M249.3 108.5v3.6c-.2 5.8-.5 11.5-1 17H130c-.4-5.6-.6-11.3-.9-17l-.2-3.6zm-116.7 58.3l.9 10.4a749.2 749.2 0 001 10.3h103.8l1.2-4.8 1.2-5.5 2.2-10.4zm6.6 58.3c.7 3.8 1.3 7.2 2 10.1s1.3 6.4 2 10.6h83c1.3-7.6 2.7-14.6 3.9-20.7zm7.4 58.3c.2 5.5.3 11.2.1 16.8v3.9h71.5l.3-4a554 554 0 011.9-16.7z"
    class="part-design view-side leg-left color2"
    fill="#f8ba1d"
    style="fill: rgb(248, 186, 29)"
  ></path>
  <path
    d="M248.3 129.2v.6l-2 17.6-.4 2.5H131.3l-.2-2.5-1.1-17.6v-.6zm-113.9 58.3l1.4 12.9v.5l1 7.3h96.7l1.3-5.9.3-1.4.2-.5 3-13zm8.7 58.3c1 5.9 1.8 13 2.5 20.7h77.2c1-7.2 2.2-14.2 3.4-20.7zm3.5 58.3a172.8 172.8 0 01-2 20.7H217v-1.2-.3c.2-6.1.6-12.6 1.2-19.2z"
    class="part-design view-side leg-left color3"
    fill="#fc4e47"
    style="fill: rgb(252, 78, 71)"
  ></path>
  <path
    d="M171.8 430.8l.4.5-3 1.5zM143 453.3l-.8.8c-5.4 6.3-9.8 9.1-13.4 10.3zm26.6-25.2l-43 33.6-2.1-2.8 42.9-33.6zm-4.4-5.5l-42.9 33.7-2.2-2.9 42.9-33.6zm-4.3-5.5L118 450.7 116 448l42.8-33.6zm-4.3-5.4l-42.9 33.6-2.2-2.8 42.8-33.7zm-4.4-5.6l-42.8 33.6-2.2-2.9 42.7-33.5z"
    class="part-design view-side leg-left color2"
    fill="#f8ba1d"
    style="fill: rgb(248, 186, 29)"
  ></path>
  <path
    d="M443.3 54.8l-.2 3.8-1.4 20.7-1.4 21.9a1.6 1.6 0 01-1.6 1.5H322.5a1.7 1.7 0 01-.3 0 1.7 1.7 0 01-1.4-1.6l-1-14.8V86l-.3-5v-1.5L318 58.7l-.2-2.3c-.2-4.4 0-8 0-13V17.8a2.3 2.3 0 011.8-2.2 40 40 0 016.2-1h108.4a56 56 0 015.6.6 3 3 0 012.6 3l.7 19.8.2 6.7-.1 10z"
    class="part-foldover view-front leg-left color1"
    filter="url(#inner-shadow-small)"
    fill="#0d1d32"
    style="fill: rgb(13, 29, 50)"
  ></path>
  <path
    d="M443.3 54.8l-.2 3.8H318l-.1-2.2c-.3-4.4-.1-8.1-.2-13V38h125.4l.2 6.7-.1 10z"
    class="part-foldover view-front leg-left color2"
    filter="url(#inner-shadow-small)"
    fill="#f8ba1d"
    style="fill: rgb(248, 186, 29)"
  ></path>
  <polygon
    points="443.05067749023436,58.63018798828125 441.7206774902344,79.3201879882813 319.45067749023434,79.3201879882813 318.1006774902344,58.63018798828125 443.05067749023436,58.63018798828125"
    class="part-foldover view-front leg-left color3"
    filter="url(#inner-shadow-small)"
    fill="#fc4e47"
    style="fill: rgb(252, 78, 71)"
  ></polygon>
  <path
    d="M437.9 108.4l-.4 3.6-1.8 13.2-.5 3.9H325.8l-2.3-17-.5-3.6zm-107 58.3l1.3 10.4.8 5.5.6 4.8h92.2l.7-4.8.8-5.5 1.6-10.4zm7.8 58.3l2.8 20.7h77.1L421 225zm8.1 58.3c.7 4.5 1.6 10.3 2.4 16.8l.6 4h63.6l.3-4 1.3-16.8z"
    class="part-design view-front leg-left color2"
    fill="#f8ba1d"
    style="fill: rgb(248, 186, 29)"
  ></path>
  <path
    d="M435.2 129l-.1.7-2.8 17.6-.4 2.5H328.6l-.4-2.5-1-8.1c-.5-3.3-1-6.4-1.3-9.5l-.1-.6zm-101.6 58.4l1.7 12.9v.5l1 7.3H423l1-7.3v-.5l1.8-12.9zm7.9 58.3c1 8.2 2 15.2 2.8 20.7h72.2l2.1-20.7zm8.3 58.3a483 483 0 012.4 20.7h60.1a454.8 454.8 0 01.8-16l.3-4.7z"
    class="part-design view-front leg-left color3"
    fill="#fc4e47"
    style="fill: rgb(252, 78, 71)"
  ></path>
  <text
    class="part-toetext view-front leg-left color2 __className_c224bf"
    dx="0"
    dy="-1.1em"
    fill="#f8ba1d"
    style="fill: rgb(248, 186, 29)"
  >
    <textPath xlink:href="#a" startOffset="50%" text-anchor="middle">
      ELITE
    </textPath>
  </text>
  <text
    class="part-toetext view-front leg-left color2 __className_c224bf"
    dx="0"
    dy="0"
    fill="#f8ba1d"
    style="fill: rgb(248, 186, 29)"
  >
    <textPath xlink:href="#a" startOffset="50%" text-anchor="middle">
      SPORT SOCKS
    </textPath>
  </text>
  <text
    class="part-toetext view-side leg-left color2 __className_c224bf"
    dx="0"
    dy="-1.1em"
    fill="#f8ba1d"
    style="fill: rgb(248, 186, 29)"
  >
    <textPath xlink:href="#b" startOffset="50%" text-anchor="middle">
      ELITE
    </textPath>
  </text>
  <text
    class="part-toetext view-side leg-left color2 __className_c224bf"
    dx="0"
    dy="0"
    fill="#f8ba1d"
    style="fill: rgb(248, 186, 29)"
  >
    <textPath xlink:href="#b" startOffset="50%" text-anchor="middle">
      SPORT SOCKS
    </textPath>
  </text>
  <path
    d="M695.1 23.5c-1.1-5.5-2.5-11-3.7-15.8l-.3-1.2-1.4-5.3A67 67 0 00677-25H464.4a67.2 67.2 0 00-11.7 22v.4c-1.2 3.7-2.2 7.5-3 11.3a196.2 196.2 0 00-3.4 21.3 66.6 66.6 0 00.6 18.7c-1.4 32.6 1.4 73 6.6 91 2.7 11.5 8.2 55.3 16.2 130.1a1508 1508 0 002.5 23c.4 7-.7 28.8-1.5 35.1-2.4 17.1-.5 33 .8 44.6v.5a97 97 0 00-8.8 25.3c-1.9 5-3.2 9.6-4.3 13.8l-.7 2.3a96.9 96.9 0 00-4.3 76.6 86.4 86.4 0 0050.7 52.4 158 158 0 0055.6 9c8.7 0 18.2-.4 29-1.4a90.3 90.3 0 0067.1-38.5 105.8 105.8 0 0014-83.7 156 156 0 010-29l.1-1 .2-1.3a123.4 123.4 0 002.5-8.7l.4-1.7 3-39.5a230.7 230.7 0 00-4.8-37.5c-.5-21.4 5.6-99.7 9-116.3a673.8 673.8 0 0016-148.7 67.3 67.3 0 00-1-21.6zM634 55.2l-3 46.3a1.6 1.6 0 01-1.6 1.5h-.7l-.5 5.7-1.4 12.4a459.2 459.2 0 01-3 22.9l-.8 4.5a455.6 455.6 0 01-6.8 34.3l-.1.7-.2.7a216.7 216.7 0 00-1.5 10.9l-.2 1-.2 2-.2 1.9-.1.5-.2 1.4v.4l-.1 1.3-.3 2.6-.2 1.8-1 9c0 .7 0 1.4-.2 2.2l-.8 9.5-.6 6-.5 6.3-.3 3.7a259 259 0 00-.6 8.7l-.2 2.5-.3 5-.1.9a1028.3 1028.3 0 00-1.2 20.4v2.2l-.2 1.5v2.9l-.1 2-.2 4v2l-.2 5.6v6a75 75 0 00.6 11.4v.4l.1.5a154.9 154.9 0 011.6 7.5l.2 1.5c0 .5.2.9.3 1.3l.2 1.5.1.5.3 2.2.3 2.3.3 1.7.2 2.5.2 1.3a127.6 127.6 0 01.5 7.2 2.2 2.2 0 010 .2 87.3 87.3 0 01-1.7 22.6l-.1.3a47 47 0 01-.5 1.7c0 .3 0 .6-.2.8l-.7 2.3-.4 1.4-.2.5c0 .4-.2.7-.3 1l-.1.7c0 .4-.2.7-.3 1.1v.6l-.3 1.2-.1.6-.3 1.3-.4 3-.1 1-.5 4-.1 1.1a198.8 198.8 0 00-.5 6.2v1.3l-.2 3.8V425.8l.7 9.8a1.1 1.1 0 000 .2l.3 1.8a5.4 5.4 0 000 .6l.5 3.1a3.5 3.5 0 00.1.5l.3 1.3.1.4.1.3.5 2.4a48.5 48.5 0 01.5 15.2 37.4 37.4 0 01-2 8.2 30 30 0 01-1.6 3.5 11.1 11.1 0 01-.6 1l-.4.7a24.4 24.4 0 01-2.4 3.2 79.3 79.3 0 01-2.5 2.4l-1 .9-1.2.7-.7.5-.6.3-1.3.7-.7.3a27.1 27.1 0 01-3 1.2l-.8.2-.8.2a33.3 33.3 0 01-3.6.7l-1.7.2c-27.5 2.6-42.6 1-56.3-4a13.1 13.1 0 01-2.6-1.3 17.8 17.8 0 01-2.4-1.9c-5-4.6-9-12.8-8.8-22.1l.1-1.5a28.5 28.5 0 01.4-3.2l.1-.8a32.1 32.1 0 012.9-8.2l.4-.8.5-1c3-5.1 5.2-18.3 7.6-22.1l.2-.3.2-.6a5.8 5.8 0 00.3-.6 13.3 13.3 0 00.4-1.9l.2-1 .1-.5a36 36 0 013.5-11.8 28.9 28.9 0 012.5-4.3v-.1l.5-1 .5-.9.5-1v-.2l.4-.9.3-.8.4-1v-.3l.2-.5a1.4 1.4 0 00.1-.2l.2-.7.1-.3.3-1 .3-1.6.3-1.2.1-1v-.2l.1-.7a1.9 1.9 0 000-.2l.2-1v-1.2a4.6 4.6 0 01.1-.6v-.3l.1-1.2v-7.5-.5-1.5l-.6-5.7c-1.1-9.7-2.3-19.4-1-28.2a477.7 477.7 0 002-28.6 240.8 240.8 0 00-.3-23.4l-.3-2-2.5-23.3-.5-4.7-3.7-33.9-.7-6.5-1.9-16.2-.2-1.5-2-17.6-2.3-17.7L520 144c-1-7.3-2.1-13.3-3-17.7l-.1-.3c-.4-1.9-.8-3.4-1.2-4.5a87.9 87.9 0 01-2-12.8q-.4-2.7-.6-5.7a1.7 1.7 0 01-1.7-1.5l-3-44.7c-.2-4.4 0-8.1 0-13l.2-25.6a2.3 2.3 0 011.7-2.3 39.8 39.8 0 016.2-.8h108.3a54.8 54.8 0 015.6.5 3 3 0 012.6 2.9l1 26.6a93.7 93.7 0 010 10.2z"
    class="mask view-back leg-left"
  ></path>
  <path
    d="M306.5 36.6a66.7 66.7 0 00-2.8-18.2 145.7 145.7 0 01-4.2-15.2l-.2-.9-.2-.6a67.1 67.1 0 00-13-26.6H77.8A66.7 66.7 0 0063 15.2l-.1 1c-.6 5-1.1 10.9-1.5 17.6A67 67 0 0063 51.4c-.8 57.3 6 159.6 15 198.5 3.6 15.5 5.3 50.7 2.6 65.1-20.6 23-38.3 41.7-46.1 49l-1.4.3-1.1.3-1.2.2-3.3.9-.6.1c-16 4.6-28.9 10.1-39.4 16.9a89.8 89.8 0 00-16.5 13.5 74.5 74.5 0 00-19.5 37.4 73 73 0 0027.6 72l.6.6a86 86 0 0011 7.3 93.4 93.4 0 0011 5.2 94.7 94.7 0 0020 5.5l2 .3 2 .3c5 .6 11.7 1.2 20.6 1.9h1.4l5.6.5 128.4-20.4a120.9 120.9 0 009.8-10c3.5-4 7-6.4 15.4-10l49.4-22.1 1.4-1 1.5-1.1a85 85 0 002.8-2.3l2-1.6a92.5 92.5 0 006.3-6.1l2.8-3.2.1-.1a82.6 82.6 0 008-11.4l.5-.8.9-1.7a67.4 67.4 0 003-6.3 106.9 106.9 0 004.3-13l.4-2a98.2 98.2 0 001.8-11.6v-1.7c.2-1.2.2-2.4.2-3.7v-6.3a118.3 118.3 0 00-.7-8.7l-.2-1a144 144 0 00-1-7.2l-.2-.6-.5-2.8-.2-.7-.6-2.8v-.3l-.7-3-.7-3-.7-2.8-1-4.2c-1-4.3-2.2-8.7-3.2-13.5-.2-1-2.8-16 4.7-65 4.8-31.5 10.9-58 11-58.2l1.7-7.2c9-37.8 23.8-100 6.6-173.2zM250.8 101a3.5 3.5 0 01-1.5 1.4V112a270.4 270.4 0 01-3.1 35.3 399 399 0 01-8.6 43.2l-1.2 4.8-1.6 6.9-.2 1-.1.5-.6 2.6-.1.4-1.1 5-.1.5L230 225l-.5 2.8v.3l-.8 4.2-.7 3.5-.7 4-.6 3-.1.6-.4 2.3-.2 1.1-.4 2.3-.2 1.2-.2 1.1-.5 3a779 779 0 00-3.5 22.9l-.8 6.4-.3 2.5-.6 5.1-.6 5.1-.6 6.2-.3 3.6-.3 3.5a197.1 197.1 0 00-.8 17.3v3.2c0 3 .1 6 .3 8.9v2.2l.3 2.5.2 2a81.5 81.5 0 001 7.3 429 429 0 002.3 10l.7 2.7c.5 1.9 1 3.7 1.3 5.5l.4 1.3.2.8.4 1.9.2.6.5 2.3.5 2.5v.2l.5 2a1.9 1.9 0 000 .5l.4 1.8v.3l.7 4v.4l.2 1.5v6a9.7 9.7 0 010 1.2v.3l-.3 1.5a.5.5 0 01-.1.3c0 .4-.2.8-.3 1.1a1.9 1.9 0 01-.1.5l-.4.9-.1.4-.6 1.3-.1.1a8 8 0 01-.7 1c0 .2-.2.3-.3.5l-.5.7-.4.5c0 .2-.4.5-.7.8l-.3.3-1 1-.5.4c-.1.2-.6.4-.9.6l-.5.4-.3.3a43 43 0 01-9.3 4.6c-27.8 10.7-48.5 16.5-67.3 38-11.2 12.9-17.8 11.2-22.8 11.2h-.2c-6 0-37.6-1.4-61.8-3l-5.4-.4H51c-7.1-.6-13.2-1.1-17.1-1.6h-1.2l-1-.2a29.7 29.7 0 01-6.2-1.8 27.8 27.8 0 01-3.4-1.5 20.4 20.4 0 01-2.9-2c-2.4-2-4.1-4.3-4.3-7a2.7 2.7 0 010-.5 5.4 5.4 0 010-.6 1.2 1.2 0 01.1-.6c1-5.5 9-11.8 29.5-17.7l1-.2.3-.1.3-.1c5-1 13.5-2 24-9.3 11.9-8.1 51.3-52 63.7-66 19.4-21.9 12.4-95 7.2-117.4a611.2 611.2 0 01-9.2-75.3h.2a1446.2 1446.2 0 01-2.9-47.8l-.4-9h-.2a1.7 1.7 0 01-.8-.3c-1.2-.6-1.5-1.8-2.1-4-.8-2.6.1-9.6.1-9.6 1.5-19.8-2.2-40.2-3.8-60.9-.3-4.2-.7-11 1.6-12a24.3 24.3 0 016.2-1.2h.3l4.7-.2h95.9c2.9 0 7.4.1 8.7 1.6 1.7 2 3 7.3 3.6 10.2a333.5 333.5 0 016.8 42.7q1 10.8 1.3 21.6c0 2.6 1 7.5-.1 9.9z"
    class="mask view-side leg-left"
  ></path>
  <path
    d="M505.7 44.7a67.3 67.3 0 00-.9-21.3c-1.1-5.4-2.4-11-4-17.2l-1.5-6a66.8 66.8 0 00-12.7-25.6h-212a66.5 66.5 0 00-12.4 23.9l-.1.3a264 264 0 00-6 27.7 67.5 67.5 0 00-.2 18.7c-1.8 20.5-1.6 41.7.6 54.6 1 6.6 6.9 50.5 11.6 86 7.8 58.5 12.7 94.6 13.9 102 4 24 6.3 45.6 6.6 54.8a100.4 100.4 0 00-2.4 33.7 156.4 156.4 0 00-2 23.4c-.2 5-1.2 17.5-2.2 27.3l-4.3 25-.2 1.4-.7 4.5-.1.5-.2 2-.1.7-.3 2v.4l-.2 2.6v.7l-.2 2-.1.8-.1 2.1v.7l-.1 2.9v11.2l.3 2.7v1l.4 2.8v1l.5 2.8v.5l.2 1a91 91 0 006 20.2l.7 1.5 2 4 1 1.9a74.4 74.4 0 003.7 5.8v.1a71.5 71.5 0 004.8 6.1v.1a72 72 0 0012.8 11.7c.4.3 1.2 1 2.4 1.7a70.8 70.8 0 008.1 4.7c16 7.9 36.3 11.1 69.9 11.1H399.3c8.5 0 33.7-.1 56.1-14.7a78.1 78.1 0 0014.8-12.5 76.8 76.8 0 005.8-7.1v-.1l1.3-1.8 3-4.7.4-.7.8-1.5 3-6.4.7-1.5a81.8 81.8 0 003.5-10.4l.4-1.2.3-1.3.9-4 .2-1.2.8-4.9.2-1 .4-3.7v-1l.4-4.4v-.8l.1-3.5v-1-9.1l-.3-3v-1.3a164 164 0 00-.4-3.7v-.7a159 159 0 00-6.8-32.5 274 274 0 01-4.7-31.8c-.8-7.2-1.4-14-1.7-18.6a142 142 0 00-1-41.2c-.9-22.4 9-122.4 17.6-168.6 3.5-18.8 13.7-79.3 10.6-122.6zm-62.2 5.7c0 1.6 0 3.1-.2 4.7l-3 46.4a1.6 1.6 0 01-1.6 1.5q-.4 4.4-1 8.7l-1.7 13-.6 4.6-.7 4.4-.2 1.6v.1l-.4 2.1v.2c0 .8-.2 1.5-.3 2.2l-.6 3.9-.5 2.8-.1.9-1 5.6-.2 1.1-.2 1.2c-.6 2.7-1 5.6-1.6 8.7l-.6 4-1.5 9.5-.4 2.3-.6 4.5v.4a1209 1209 0 00-1 6l-.3 2.6c0 .8-.3 2-.4 3l-.4 3-1.6 12.3a1713 1713 0 00-9.3 95.5v1.3l-.3 4.7v.3a522 522 0 00-.5 10.4v.4l-.1 4v1c-.2 7.8 0 13.6.7 16.7 2.9 13.9.3 25.8.2 29.3v1a.1.1 0 000 .1 378 378 0 001.6 21.2c.7 6.8 1.5 14.5 2.5 21.9a191 191 0 005.5 28.3 93.6 93.6 0 014 19.1v.3l.2 2.4.2 2.3V479.5l-.2 2.1a1.7 1.7 0 010 .5c0 .5 0 1.1-.2 1.7v.3l-.3 1.9a.8.8 0 010 .4l-.4 1.5a1.5 1.5 0 010 .4l-.6 1.6v.3l-.6 1.3-.1.4a15.1 15.1 0 01-.7 1.4v.1l-.8 1.2-.2.3a13 13 0 01-.8 1 12.6 12.6 0 01-2.5 2c-6.3 4.2-16.8 4.2-20.7 4.2-4.5 0-41 1.2-52.2-4.3a9 9 0 01-.9-.6l-.2-.2a6 6 0 01-.6-.4l-.3-.2-.6-.7-.1-.1a12 12 0 01-.7-.9l-.1-.2a11 11 0 01-.5-.8l-.1-.2-.4-.8a12.8 12.8 0 01-.6-1.5v-.2l-.4-.8v-.2-.2a.1.1 0 000-.1l-.3-1a3 3 0 000-.3l-.3-1v-.4l-.1-.7-.2-1.3-.1-.8v-.4l-.1-1.4v-.1-5.2a13.7 13.7 0 010-1.6v-.5a1 1 0 010-.2 3.8 3.8 0 010-.7 1.5 1.5 0 010-.2v-.5a9.4 9.4 0 01.1-1.2v-.3l.2-1.6a.9.9 0 000-.2l.1-1.3v-.5a8.5 8.5 0 01.2-1.1v-.4l.5-2.9a1.8 1.8 0 010-.4l.2-.5c.6-3.8 1.3-7 2-9.2 2.5-9.1 5.6-50.5 5.5-54-.3-5.9 1.6-17.6 2.4-21 .5-2.5-1.5-8-.8-15.6l.1-1.3a30 30 0 01.6-3l.3-1.2.7-2.3a16.2 16.2 0 00.6-3.1l.1-.6v-.7c.2-.6.2-1.1.2-1.8l.1-1.8v-.4a226.2 226.2 0 00-1.6-27l-.1-1.4-.2-2v-.3l-.3-2.4-.7-5.3a4800.7 4800.7 0 01-12.7-91l-.4-3.1-2-14.6-2.3-17.7-2.4-17.6-2.3-17.7-1.1-8.1-1.3-9.5-2.4-17.7c-.4-3.1-1.1-6-1.5-8.6v-.4a1.6 1.6 0 01-1.2-1 1.6 1.6 0 01-.1-.2l-3-44.6V43.4l.1-25.3a2.3 2.3 0 011.8-2.2 41.5 41.5 0 015.5-1c.3-.2 109.7-.1 110 .1l4.4.5a3 3 0 012.6 2.9l.9 26.6v5.4z"
    class="mask view-front leg-left"
  ></path>
  <defs>
    <filter
      id="inner-shadow-big"
      x0="-50%"
      y0="-50%"
      width="200%"
      height="200%"
    >
      <feGaussianBlur
        in="SourceAlpha"
        stdDeviation="8"
        result="blur"
      ></feGaussianBlur>
      <feOffset dy="2" dx="3"></feOffset>
      <feComposite
        in2="SourceAlpha"
        operator="arithmetic"
        k2="-1"
        k3="1"
        result="shadowDiff"
      ></feComposite>
      <feFlood flood-color="#000000" flood-opacity="0.4"></feFlood>
      <feComposite in2="shadowDiff" operator="in"></feComposite>
      <feComposite
        in2="SourceGraphic"
        operator="over"
        result="firstfilter"
      ></feComposite>
      <feGaussianBlur
        in="firstfilter"
        stdDeviation="8"
        result="blur2"
      ></feGaussianBlur>
      <feOffset dy="-2" dx="-3"></feOffset>
      <feComposite
        in2="firstfilter"
        operator="arithmetic"
        k2="-1"
        k3="1"
        result="shadowDiff"
      ></feComposite>
      <feFlood flood-color="#000000" flood-opacity="0.4"></feFlood>
      <feComposite in2="shadowDiff" operator="in"></feComposite>
      <feComposite in2="firstfilter" operator="over"></feComposite>
    </filter>
    <filter
      id="inner-shadow-small"
      x0="-50%"
      y0="-50%"
      width="300%"
      height="300%"
    >
      <feGaussianBlur
        in="SourceAlpha"
        stdDeviation="3"
        result="blur"
      ></feGaussianBlur>
      <feOffset dy="2" dx="3"></feOffset>
      <feComposite
        in2="SourceAlpha"
        operator="arithmetic"
        k2="-1"
        k3="1"
        result="shadowDiff"
      ></feComposite>
      <feFlood flood-color="#000000" flood-opacity="0.3"></feFlood>
      <feComposite in2="shadowDiff" operator="in"></feComposite>
      <feComposite
        in2="SourceGraphic"
        operator="over"
        result="firstfilter"
      ></feComposite>
      <feGaussianBlur
        in="firstfilter"
        stdDeviation="3"
        result="blur2"
      ></feGaussianBlur>
      <feOffset dy="-2" dx="-3"></feOffset>
      <feComposite
        in2="firstfilter"
        operator="arithmetic"
        k2="-1"
        k3="1"
        result="shadowDiff"
      ></feComposite>
      <feFlood flood-color="#000000" flood-opacity="0.3"></feFlood>
      <feComposite in2="shadowDiff" operator="in"></feComposite>
      <feComposite in2="firstfilter" operator="over"></feComposite>
    </filter>
    <filter id="shadowBlur" x="-50%" y="-50%" width="400%" height="400%">
      <feGaussianBlur in="SourceGraphic" stdDeviation="6"></feGaussianBlur>
    </filter>
    <clipPath id="SvgjsClipPath1000">
      <path
        d="M695.1 23.5c-1.1-5.5-2.5-11-3.7-15.8l-.3-1.2-1.4-5.3A67 67 0 00677-25H464.4a67.2 67.2 0 00-11.7 22v.4c-1.2 3.7-2.2 7.5-3 11.3a196.2 196.2 0 00-3.4 21.3 66.6 66.6 0 00.6 18.7c-1.4 32.6 1.4 73 6.6 91 2.7 11.5 8.2 55.3 16.2 130.1a1508 1508 0 002.5 23c.4 7-.7 28.8-1.5 35.1-2.4 17.1-.5 33 .8 44.6v.5a97 97 0 00-8.8 25.3c-1.9 5-3.2 9.6-4.3 13.8l-.7 2.3a96.9 96.9 0 00-4.3 76.6 86.4 86.4 0 0050.7 52.4 158 158 0 0055.6 9c8.7 0 18.2-.4 29-1.4a90.3 90.3 0 0067.1-38.5 105.8 105.8 0 0014-83.7 156 156 0 010-29l.1-1 .2-1.3a123.4 123.4 0 002.5-8.7l.4-1.7 3-39.5a230.7 230.7 0 00-4.8-37.5c-.5-21.4 5.6-99.7 9-116.3a673.8 673.8 0 0016-148.7 67.3 67.3 0 00-1-21.6zM634 55.2l-3 46.3a1.6 1.6 0 01-1.6 1.5h-.7l-.5 5.7-1.4 12.4a459.2 459.2 0 01-3 22.9l-.8 4.5a455.6 455.6 0 01-6.8 34.3l-.1.7-.2.7a216.7 216.7 0 00-1.5 10.9l-.2 1-.2 2-.2 1.9-.1.5-.2 1.4v.4l-.1 1.3-.3 2.6-.2 1.8-1 9c0 .7 0 1.4-.2 2.2l-.8 9.5-.6 6-.5 6.3-.3 3.7a259 259 0 00-.6 8.7l-.2 2.5-.3 5-.1.9a1028.3 1028.3 0 00-1.2 20.4v2.2l-.2 1.5v2.9l-.1 2-.2 4v2l-.2 5.6v6a75 75 0 00.6 11.4v.4l.1.5a154.9 154.9 0 011.6 7.5l.2 1.5c0 .5.2.9.3 1.3l.2 1.5.1.5.3 2.2.3 2.3.3 1.7.2 2.5.2 1.3a127.6 127.6 0 01.5 7.2 2.2 2.2 0 010 .2 87.3 87.3 0 01-1.7 22.6l-.1.3a47 47 0 01-.5 1.7c0 .3 0 .6-.2.8l-.7 2.3-.4 1.4-.2.5c0 .4-.2.7-.3 1l-.1.7c0 .4-.2.7-.3 1.1v.6l-.3 1.2-.1.6-.3 1.3-.4 3-.1 1-.5 4-.1 1.1a198.8 198.8 0 00-.5 6.2v1.3l-.2 3.8V425.8l.7 9.8a1.1 1.1 0 000 .2l.3 1.8a5.4 5.4 0 000 .6l.5 3.1a3.5 3.5 0 00.1.5l.3 1.3.1.4.1.3.5 2.4a48.5 48.5 0 01.5 15.2 37.4 37.4 0 01-2 8.2 30 30 0 01-1.6 3.5 11.1 11.1 0 01-.6 1l-.4.7a24.4 24.4 0 01-2.4 3.2 79.3 79.3 0 01-2.5 2.4l-1 .9-1.2.7-.7.5-.6.3-1.3.7-.7.3a27.1 27.1 0 01-3 1.2l-.8.2-.8.2a33.3 33.3 0 01-3.6.7l-1.7.2c-27.5 2.6-42.6 1-56.3-4a13.1 13.1 0 01-2.6-1.3 17.8 17.8 0 01-2.4-1.9c-5-4.6-9-12.8-8.8-22.1l.1-1.5a28.5 28.5 0 01.4-3.2l.1-.8a32.1 32.1 0 012.9-8.2l.4-.8.5-1c3-5.1 5.2-18.3 7.6-22.1l.2-.3.2-.6a5.8 5.8 0 00.3-.6 13.3 13.3 0 00.4-1.9l.2-1 .1-.5a36 36 0 013.5-11.8 28.9 28.9 0 012.5-4.3v-.1l.5-1 .5-.9.5-1v-.2l.4-.9.3-.8.4-1v-.3l.2-.5a1.4 1.4 0 00.1-.2l.2-.7.1-.3.3-1 .3-1.6.3-1.2.1-1v-.2l.1-.7a1.9 1.9 0 000-.2l.2-1v-1.2a4.6 4.6 0 01.1-.6v-.3l.1-1.2v-7.5-.5-1.5l-.6-5.7c-1.1-9.7-2.3-19.4-1-28.2a477.7 477.7 0 002-28.6 240.8 240.8 0 00-.3-23.4l-.3-2-2.5-23.3-.5-4.7-3.7-33.9-.7-6.5-1.9-16.2-.2-1.5-2-17.6-2.3-17.7L520 144c-1-7.3-2.1-13.3-3-17.7l-.1-.3c-.4-1.9-.8-3.4-1.2-4.5a87.9 87.9 0 01-2-12.8q-.4-2.7-.6-5.7a1.7 1.7 0 01-1.7-1.5l-3-44.7c-.2-4.4 0-8.1 0-13l.2-25.6a2.3 2.3 0 011.7-2.3 39.8 39.8 0 016.2-.8h108.3a54.8 54.8 0 015.6.5 3 3 0 012.6 2.9l1 26.6a93.7 93.7 0 010 10.2z"
        class="mask view-back leg-left"
        transform="matrix(1,0,0,1,0,-0.25)"
      ></path>
      <path
        d="M306.5 36.6a66.7 66.7 0 00-2.8-18.2 145.7 145.7 0 01-4.2-15.2l-.2-.9-.2-.6a67.1 67.1 0 00-13-26.6H77.8A66.7 66.7 0 0063 15.2l-.1 1c-.6 5-1.1 10.9-1.5 17.6A67 67 0 0063 51.4c-.8 57.3 6 159.6 15 198.5 3.6 15.5 5.3 50.7 2.6 65.1-20.6 23-38.3 41.7-46.1 49l-1.4.3-1.1.3-1.2.2-3.3.9-.6.1c-16 4.6-28.9 10.1-39.4 16.9a89.8 89.8 0 00-16.5 13.5 74.5 74.5 0 00-19.5 37.4 73 73 0 0027.6 72l.6.6a86 86 0 0011 7.3 93.4 93.4 0 0011 5.2 94.7 94.7 0 0020 5.5l2 .3 2 .3c5 .6 11.7 1.2 20.6 1.9h1.4l5.6.5 128.4-20.4a120.9 120.9 0 009.8-10c3.5-4 7-6.4 15.4-10l49.4-22.1 1.4-1 1.5-1.1a85 85 0 002.8-2.3l2-1.6a92.5 92.5 0 006.3-6.1l2.8-3.2.1-.1a82.6 82.6 0 008-11.4l.5-.8.9-1.7a67.4 67.4 0 003-6.3 106.9 106.9 0 004.3-13l.4-2a98.2 98.2 0 001.8-11.6v-1.7c.2-1.2.2-2.4.2-3.7v-6.3a118.3 118.3 0 00-.7-8.7l-.2-1a144 144 0 00-1-7.2l-.2-.6-.5-2.8-.2-.7-.6-2.8v-.3l-.7-3-.7-3-.7-2.8-1-4.2c-1-4.3-2.2-8.7-3.2-13.5-.2-1-2.8-16 4.7-65 4.8-31.5 10.9-58 11-58.2l1.7-7.2c9-37.8 23.8-100 6.6-173.2zM250.8 101a3.5 3.5 0 01-1.5 1.4V112a270.4 270.4 0 01-3.1 35.3 399 399 0 01-8.6 43.2l-1.2 4.8-1.6 6.9-.2 1-.1.5-.6 2.6-.1.4-1.1 5-.1.5L230 225l-.5 2.8v.3l-.8 4.2-.7 3.5-.7 4-.6 3-.1.6-.4 2.3-.2 1.1-.4 2.3-.2 1.2-.2 1.1-.5 3a779 779 0 00-3.5 22.9l-.8 6.4-.3 2.5-.6 5.1-.6 5.1-.6 6.2-.3 3.6-.3 3.5a197.1 197.1 0 00-.8 17.3v3.2c0 3 .1 6 .3 8.9v2.2l.3 2.5.2 2a81.5 81.5 0 001 7.3 429 429 0 002.3 10l.7 2.7c.5 1.9 1 3.7 1.3 5.5l.4 1.3.2.8.4 1.9.2.6.5 2.3.5 2.5v.2l.5 2a1.9 1.9 0 000 .5l.4 1.8v.3l.7 4v.4l.2 1.5v6a9.7 9.7 0 010 1.2v.3l-.3 1.5a.5.5 0 01-.1.3c0 .4-.2.8-.3 1.1a1.9 1.9 0 01-.1.5l-.4.9-.1.4-.6 1.3-.1.1a8 8 0 01-.7 1c0 .2-.2.3-.3.5l-.5.7-.4.5c0 .2-.4.5-.7.8l-.3.3-1 1-.5.4c-.1.2-.6.4-.9.6l-.5.4-.3.3a43 43 0 01-9.3 4.6c-27.8 10.7-48.5 16.5-67.3 38-11.2 12.9-17.8 11.2-22.8 11.2h-.2c-6 0-37.6-1.4-61.8-3l-5.4-.4H51c-7.1-.6-13.2-1.1-17.1-1.6h-1.2l-1-.2a29.7 29.7 0 01-6.2-1.8 27.8 27.8 0 01-3.4-1.5 20.4 20.4 0 01-2.9-2c-2.4-2-4.1-4.3-4.3-7a2.7 2.7 0 010-.5 5.4 5.4 0 010-.6 1.2 1.2 0 01.1-.6c1-5.5 9-11.8 29.5-17.7l1-.2.3-.1.3-.1c5-1 13.5-2 24-9.3 11.9-8.1 51.3-52 63.7-66 19.4-21.9 12.4-95 7.2-117.4a611.2 611.2 0 01-9.2-75.3h.2a1446.2 1446.2 0 01-2.9-47.8l-.4-9h-.2a1.7 1.7 0 01-.8-.3c-1.2-.6-1.5-1.8-2.1-4-.8-2.6.1-9.6.1-9.6 1.5-19.8-2.2-40.2-3.8-60.9-.3-4.2-.7-11 1.6-12a24.3 24.3 0 016.2-1.2h.3l4.7-.2h95.9c2.9 0 7.4.1 8.7 1.6 1.7 2 3 7.3 3.6 10.2a333.5 333.5 0 016.8 42.7q1 10.8 1.3 21.6c0 2.6 1 7.5-.1 9.9z"
        class="mask view-side leg-left"
        transform="matrix(1,0,0,1,0,-0.25)"
      ></path>
      <path
        d="M505.7 44.7a67.3 67.3 0 00-.9-21.3c-1.1-5.4-2.4-11-4-17.2l-1.5-6a66.8 66.8 0 00-12.7-25.6h-212a66.5 66.5 0 00-12.4 23.9l-.1.3a264 264 0 00-6 27.7 67.5 67.5 0 00-.2 18.7c-1.8 20.5-1.6 41.7.6 54.6 1 6.6 6.9 50.5 11.6 86 7.8 58.5 12.7 94.6 13.9 102 4 24 6.3 45.6 6.6 54.8a100.4 100.4 0 00-2.4 33.7 156.4 156.4 0 00-2 23.4c-.2 5-1.2 17.5-2.2 27.3l-4.3 25-.2 1.4-.7 4.5-.1.5-.2 2-.1.7-.3 2v.4l-.2 2.6v.7l-.2 2-.1.8-.1 2.1v.7l-.1 2.9v11.2l.3 2.7v1l.4 2.8v1l.5 2.8v.5l.2 1a91 91 0 006 20.2l.7 1.5 2 4 1 1.9a74.4 74.4 0 003.7 5.8v.1a71.5 71.5 0 004.8 6.1v.1a72 72 0 0012.8 11.7c.4.3 1.2 1 2.4 1.7a70.8 70.8 0 008.1 4.7c16 7.9 36.3 11.1 69.9 11.1H399.3c8.5 0 33.7-.1 56.1-14.7a78.1 78.1 0 0014.8-12.5 76.8 76.8 0 005.8-7.1v-.1l1.3-1.8 3-4.7.4-.7.8-1.5 3-6.4.7-1.5a81.8 81.8 0 003.5-10.4l.4-1.2.3-1.3.9-4 .2-1.2.8-4.9.2-1 .4-3.7v-1l.4-4.4v-.8l.1-3.5v-1-9.1l-.3-3v-1.3a164 164 0 00-.4-3.7v-.7a159 159 0 00-6.8-32.5 274 274 0 01-4.7-31.8c-.8-7.2-1.4-14-1.7-18.6a142 142 0 00-1-41.2c-.9-22.4 9-122.4 17.6-168.6 3.5-18.8 13.7-79.3 10.6-122.6zm-62.2 5.7c0 1.6 0 3.1-.2 4.7l-3 46.4a1.6 1.6 0 01-1.6 1.5q-.4 4.4-1 8.7l-1.7 13-.6 4.6-.7 4.4-.2 1.6v.1l-.4 2.1v.2c0 .8-.2 1.5-.3 2.2l-.6 3.9-.5 2.8-.1.9-1 5.6-.2 1.1-.2 1.2c-.6 2.7-1 5.6-1.6 8.7l-.6 4-1.5 9.5-.4 2.3-.6 4.5v.4a1209 1209 0 00-1 6l-.3 2.6c0 .8-.3 2-.4 3l-.4 3-1.6 12.3a1713 1713 0 00-9.3 95.5v1.3l-.3 4.7v.3a522 522 0 00-.5 10.4v.4l-.1 4v1c-.2 7.8 0 13.6.7 16.7 2.9 13.9.3 25.8.2 29.3v1a.1.1 0 000 .1 378 378 0 001.6 21.2c.7 6.8 1.5 14.5 2.5 21.9a191 191 0 005.5 28.3 93.6 93.6 0 014 19.1v.3l.2 2.4.2 2.3V479.5l-.2 2.1a1.7 1.7 0 010 .5c0 .5 0 1.1-.2 1.7v.3l-.3 1.9a.8.8 0 010 .4l-.4 1.5a1.5 1.5 0 010 .4l-.6 1.6v.3l-.6 1.3-.1.4a15.1 15.1 0 01-.7 1.4v.1l-.8 1.2-.2.3a13 13 0 01-.8 1 12.6 12.6 0 01-2.5 2c-6.3 4.2-16.8 4.2-20.7 4.2-4.5 0-41 1.2-52.2-4.3a9 9 0 01-.9-.6l-.2-.2a6 6 0 01-.6-.4l-.3-.2-.6-.7-.1-.1a12 12 0 01-.7-.9l-.1-.2a11 11 0 01-.5-.8l-.1-.2-.4-.8a12.8 12.8 0 01-.6-1.5v-.2l-.4-.8v-.2-.2a.1.1 0 000-.1l-.3-1a3 3 0 000-.3l-.3-1v-.4l-.1-.7-.2-1.3-.1-.8v-.4l-.1-1.4v-.1-5.2a13.7 13.7 0 010-1.6v-.5a1 1 0 010-.2 3.8 3.8 0 010-.7 1.5 1.5 0 010-.2v-.5a9.4 9.4 0 01.1-1.2v-.3l.2-1.6a.9.9 0 000-.2l.1-1.3v-.5a8.5 8.5 0 01.2-1.1v-.4l.5-2.9a1.8 1.8 0 010-.4l.2-.5c.6-3.8 1.3-7 2-9.2 2.5-9.1 5.6-50.5 5.5-54-.3-5.9 1.6-17.6 2.4-21 .5-2.5-1.5-8-.8-15.6l.1-1.3a30 30 0 01.6-3l.3-1.2.7-2.3a16.2 16.2 0 00.6-3.1l.1-.6v-.7c.2-.6.2-1.1.2-1.8l.1-1.8v-.4a226.2 226.2 0 00-1.6-27l-.1-1.4-.2-2v-.3l-.3-2.4-.7-5.3a4800.7 4800.7 0 01-12.7-91l-.4-3.1-2-14.6-2.3-17.7-2.4-17.6-2.3-17.7-1.1-8.1-1.3-9.5-2.4-17.7c-.4-3.1-1.1-6-1.5-8.6v-.4a1.6 1.6 0 01-1.2-1 1.6 1.6 0 01-.1-.2l-3-44.6V43.4l.1-25.3a2.3 2.3 0 011.8-2.2 41.5 41.5 0 015.5-1c.3-.2 109.7-.1 110 .1l4.4.5a3 3 0 012.6 2.9l.9 26.6v5.4z"
        class="mask view-front leg-left"
        transform="matrix(1,0,0,1,0,-0.25)"
      ></path>
    </clipPath>
  </defs>
  <ellipse
    rx="92.5"
    ry="12.5"
    cx="102.47086143493652"
    cy="457.88465118408203"
    filter="url(#shadowBlur)"
    fill="#777777"
    fill-opacity="0.7"
    class="part-shadow view-side"
    clip-path="url(#SvgjsClipPath1000)"
  ></ellipse>
  <ellipse
    rx="55"
    ry="12.5"
    cx="383.64208984375"
    cy="497.0107727050781"
    filter="url(#shadowBlur)"
    fill="#777777"
    fill-opacity="0.7"
    class="part-shadow view-front"
    clip-path="url(#SvgjsClipPath1000)"
  ></ellipse>
  <ellipse
    rx="55"
    ry="12.5"
    cx="560.9956970214844"
    cy="482.0319585800171"
    filter="url(#shadowBlur)"
    fill="#777777"
    fill-opacity="0.7"
    class="part-shadow view-back"
    clip-path="url(#SvgjsClipPath1000)"
  ></ellipse>
</svg>
