<svg
  xmlns="http://www.w3.org/2000/svg"
  viewBox="0 0 661.6 527.5"
  data-layout="base"
  version="1.1"
  xmlns:xlink="http://www.w3.org/1999/xlink"
  class="svg-template shadow-applied"
  data-upright="true"
>
  <path
    class="part-body view-front leg-left color1"
    d="m439.2 94.3-1 10-.3 2.2a439.7 439.7 0 0 1-2.3 18.6l-.2 1.2v.4l-.5 3v.5a.6.6 0 0 1 0 .2 892 892 0 0 1-1 6.1 1.9 1.9 0 0 1 0 .3l-.5 3.2a.6.6 0 0 0 0 .2l-1.2 7.1-1.4 8.4-1.7 9.3a931 931 0 0 0-7.2 51l-.2 2-2.9 25.5v.6l-1 9.1v.2l-.1.8v.3l-2.1 22-.1.6a1215.4 1215.4 0 0 0-3 41c-.6 13.5-.6 23.7.4 28.2 2.8 13.8.3 25.7.1 29.2s3.8 54.6 9.7 72.5c5.3 15.7 7 40-.6 48.2-5.7 6.2-18.7 6.2-23.2 6.2s-41 1.2-52.1-4.3-5.9-34.7-3.4-43.9 5.7-50.5 5.6-54c-.3-5.8 1.6-17.6 2.4-21s-3.2-11.8.8-23.4c2-5.8 1-22.2-.9-38.7l-1-8.1a858 858 0 0 0-4.5-31.3v-.6l-.1-.6-3.1-22v-.3l-.2-.8v-.2l-1.2-9-.1-.7-3.4-25.6-.4-3-2-14.6-2.4-17.7-2.3-17.6-2.4-17.7-1-7.1v-.2l-.1-.8-.3-2.4v-.3l-.9-6.1a.6.6 0 0 0 0-.2v-.5l-.4-3v-.4l-2-14.3-.8-5.5-.2-2.1-1.4-10-.8-5.3a182.5 182.5 0 0 1 1-46.1c.1-1.3-1.4-5-1.2-6 .7-4.8 1.7-9.7 2.8-14.5l1.5-6a2 2 0 0 1 2-1.5H434a2 2 0 0 1 2 1.5v.1l1.4 5.8c1 4 2.2 9 3.3 14.6.3 1-1 4.7-.9 6 .4 2.6.7 5.4.8 8.4.6 12.3-.1 27.7-1.5 43Z"
    filter="url(#a)"
    fill="#77b8df"
    style="fill: rgb(119, 184, 223)"
  ></path>
  <path
    class="part-body view-back leg-left color1"
    d="M630.6 46c.7 6 .3 23.4-1.3 45l-1.1 13.5-.2 2-.2 2.2a620 620 0 0 1-2 17.7v.3l-.5 3.6-.8 6.2a1.9 1.9 0 0 1 0 .3l-.5 3.2a.7.7 0 0 1 0 .2 492 492 0 0 1-7.2 38.2l-.2.9-1 4.8-1.8 12.8-1.7 15.1-.2 2.6c-1 9-1.8 18.9-2.6 28.9v.6l-.7 9.2v1.3l-1.5 21.9v.6l-.2 4.2-.1 2.8c-.9 17.9-1 32-.1 36 1.8 8 8 37.8 1.2 58-5.5 16.2-4.6 54.8-1.6 65.7s3.6 39.9-24 42.5-42.5 1-56.2-4c-9.8-3.6-19.7-22.6-9.4-40.8 3-5.2 5.2-18.3 7.6-22.2s.4-9.7 6.9-20.1 5.8-24.5 4.7-34.1-2.2-19.4-1-28.2a358.5 358.5 0 0 0 1.6-52 103.5 103.5 0 0 1-.9-7.8v-.6a4459 4459 0 0 1-1.8-16.9l-.6-5v-1.2a.5.5 0 0 1 0-.1l-1-9.2-.1-.6-2.5-22.4-.7-6.6-1.9-16.1-.1-1.5-2.1-17.7-2.3-17.6a691 691 0 0 0-2.5-17.7l-.5-3.7a.6.6 0 0 0 0-.2l-.6-3.2v-.3l-1-6.1v-.1a256 256 0 0 0-.7-3.6l-.1-.3v-.1a44 44 0 0 0-1.2-4.9 87.9 87.9 0 0 1-2.1-12.8l-.2-2-.2-2.2c-.4-4-.8-8.5-1.1-13.4a360.9 360.9 0 0 1 0-46.8V43c.2-1.4-1.5-5-1.4-6a131.7 131.7 0 0 1 2.3-14.5l1.6-6a2 2 0 0 1 2-1.5h108a2 2 0 0 1 1.8 1.5l1.5 6 .3 1 3.2 13.5c.2 1-1.1 4.7-1 6l.3 1.2c-.4.6-.3 1.2-.3 1.8Z"
    filter="url(#a)"
    fill="#77b8df"
    style="fill: rgb(119, 184, 223)"
  ></path>
  <path
    class="part-toe view-front leg-left color2"
    d="M422 496.2c-5.7 6.1-18.7 6.1-23.2 6.1s-41 1.2-52.1-4.3c-8.6-4.2-7.5-22.3-5.4-34.7a220 220 0 0 1 84.7-1c2 13.4 1.5 27.9-4 33.9Z"
    filter="url(#b)"
    fill="#ba0000"
    style="fill: rgb(186, 0, 0)"
  ></path>
  <path
    class="part-body view-side leg-left color1"
    d="M249.4 104.5v2.1l-.1 5.5a256 256 0 0 1-.7 14.4 2.3 2.3 0 0 1 0 .3l-.3 3v.7l-.6 6.2v.2l-.4 3.3a.6.6 0 0 1 0 .1q-.4 3.7-1 7.2a399 399 0 0 1-6.7 35.3l-4.2 17.6-.4 2a1090.5 1090.5 0 0 0-8.3 41.2l-.1.7-1.6 9.1v.1l-.1.8v.4c-1.2 7-2.4 14.4-3.4 22l-.1.6a446.5 446.5 0 0 0-4.2 46v.4a131 131 0 0 0 4 39.5c6.3 26 11 39.4-2.3 48.5a43.7 43.7 0 0 1-9 4.5c-27.8 10.6-48.6 16.4-67.4 38-11.3 12.9-18 11.1-23 11.1-8.5 0-73-3-87.7-5.3s-34.3-18.2 12.9-31.7c4.6-1.3 13.8-1.5 25.6-9.6s51.3-52 63.7-66c12-13.6 13.9-46.8 12.3-75.5v-.6a339 339 0 0 0-1.9-22v-1.1l-1.4-9.2-.1-.6c-.5-3.3-1.1-6-1.6-8.3-1-4.6-2.1-10.4-3.1-17.3a570.1 570.1 0 0 1-4.1-35.3l-1.6-17.6-1.3-17.7-.5-7.1v-.2c0-1 0-2.1-.2-3.2v-.3l-.3-6.1a.6.6 0 0 0 0-.1v-.6l-.2-3v-.4a1443.7 1443.7 0 0 1-1-19.8v-2.1a2021.7 2021.7 0 0 1-1-35.2c0-9.6 0-18.5.3-26.3 0-1.3-1.8-4.9-1.8-6 .3-5 .7-9.4 1.1-13l.2-1.3.4-5.7a2 2 0 0 1 2-2h104l2 1.6a166.3 166.3 0 0 0 4.6 17.5l1 2.9c.3.9-.8 4.6-.4 6l1.5 5.7a231.8 231.8 0 0 1 4.5 23.5c1 7.6 1.6 15 2 22.2v10.1Z"
    filter="url(#a)"
    fill="#77b8df"
    style="fill: rgb(119, 184, 223)"
  ></path>
  <path
    class="part-toe view-side leg-left color2"
    d="M57.6 462.3a375 375 0 0 1-25.8-2.3c-14.6-2.3-34.3-18.2 12.9-31.7l1.6-.3c-2.2 7.4 2 25 11.3 34.3Z"
    filter="url(#b)"
    fill="#ba0000"
    style="fill: rgb(186, 0, 0)"
  ></path>
  <path
    id="c"
    class="area-toetext view-front leg-left color2"
    d="M341.8 461.1c11.3-2.8 29-4.5 46.2-4.5 10.3 0 25 .6 37.6 3.4"
    fill="#ba0000"
    style="fill: rgb(186, 0, 0)"
  ></path>
  <path
    id="d"
    class="area-toetext view-side leg-left color2"
    d="M36.5 394.4c2.7 8 20.2 61 22.3 68"
    fill="#ba0000"
    style="fill: rgb(186, 0, 0)"
  ></path>
  <path
    class="part-heel view-side leg-left color2"
    d="M219 411.5a277.3 277.3 0 0 1-33.3-30.7c20.8-1 30.7-10.8 35.4-17.5 6.2 25.8 10.9 39.1-2.1 48.2Z"
    filter="url(#b)"
    fill="#ba0000"
    style="fill: rgb(186, 0, 0)"
  ></path>
  <path
    class="part-heel view-back leg-left color2"
    d="m609 373.6-1.4 5a57.7 57.7 0 0 0-2.6 12.5c-4.4 6.6-4.2 12.2-6.6 23.5-5.3 25-40.4 19.8-55.2 9-10-7.3-11-19.1-10.4-27.5 4-8.8 3.9-19.5 3-27.7 21.7-15.7 40.3-27.5 73.2 5.2Z"
    filter="url(#b)"
    fill="#ba0000"
    style="fill: rgb(186, 0, 0)"
  ></path>
  <path
    class="part-design view-front leg-left color2"
    d="M435.4 126.3c0-.4 0-.8.2-1.2a775.4 775.4 0 0 0 2.3-18.6l.3-2.1H322.3l.3 2 .7 5.6 2 14.3v.4h110Z"
    fill="#ba0000"
    style="fill: rgb(186, 0, 0)"
  ></path>
  <path
    class="part-design1 view-front leg-left color3"
    d="M433.8 136.7H326.6v-.2l-.8-6.2a.6.6 0 0 0 0-.1v-.6l-.5-3v-.3h110v.3l-.4 3v.6a.6.6 0 0 1 0 .1 892 892 0 0 1-1 6.2Z"
    fill="#000000"
    style="fill: rgb(0, 0, 0)"
  ></path>
  <path
    class="part-design2 view-front leg-left color4 shadow-small"
    d="M433.9 136.5H326.6v.2l.3 2.4.1.9v.1l1 7.2 2.4 17.6 2.4 17.7 2.3 17.6 2 14.6.4 3 3.5 25.6v.7h77.6v-.7l3-25.5.2-1.9a1413.5 1413.5 0 0 1 8.8-60.3c.4-2.1 1-5 1.5-8.4l1.2-7.2a.6.6 0 0 1 0-.1l.5-3.3Z"
    filter="url(#b)"
    fill="#d9d9d9"
    style="fill: rgb(217, 217, 217)"
  ></path>
  <path
    class="part-design view-front leg-left color2"
    d="M342.4 254.1h75.2v.4l-2.1 22h-70l-3-22Z"
    fill="#ba0000"
    style="fill: rgb(186, 0, 0)"
  ></path>
  <path
    class="part-design1 view-front leg-left color3"
    d="M342.5 254.5h75v-.4l.1-.8v-.1l1-9.1h-77.5l1.2 9v.2l.1.8Z"
    fill="#000000"
    style="fill: rgb(0, 0, 0)"
  ></path>
  <path
    class="part-design view-side leg-left color2"
    d="M248.5 126.5a256 256 0 0 0 .9-19.9v-2H128.8v2a7766.6 7766.6 0 0 0 1 19.9v.3h118.7Z"
    fill="#ba0000"
    style="fill: rgb(186, 0, 0)"
  ></path>
  <path
    class="part-design1 view-side leg-left color3"
    d="M247.6 136.9H130.4v-.3l-.3-6.1a.6.6 0 0 0 0-.1v-.6l-.2-3v-.4h118.6v.4l-.2 3v.6c0 .2 0 0 0 0l-.6 6.2Z"
    fill="#000000"
    style="fill: rgb(0, 0, 0)"
  ></path>
  <path
    class="part-design2 view-side leg-left color4 shadow-small"
    d="M247.6 136.6H130.4v.3l.2 3.3.5 7.2 1.3 17.7 1.5 17.6A928.5 928.5 0 0 0 138 218c1 6.9 2.1 12.7 3.1 17.3.6 2.2 1.1 5 1.7 8.3v.7h83.6l.1-.7a1051.7 1051.7 0 0 1 8.3-41.3l.5-2 4.1-17.6a521.4 521.4 0 0 0 6.8-35.3l1-7.1a.6.6 0 0 0 0-.1l.3-3.3Z"
    filter="url(#b)"
    fill="#d9d9d9"
    style="fill: rgb(217, 217, 217)"
  ></path>
  <path
    class="part-design view-side leg-left color2"
    d="M224.7 254.3h-80.4v.4c.8 6.6 1.5 14 2 21.9h75c1-7.5 2.1-14.9 3.3-22Z"
    fill="#ba0000"
    style="fill: rgb(186, 0, 0)"
  ></path>
  <path
    class="part-design1 view-side leg-left color3"
    d="m224.7 254.3.1-.8v-.1l1.6-9.1h-83.5l1.3 9v.2l.1.8v.4h80.3Z"
    fill="#000000"
    style="fill: rgb(0, 0, 0)"
  ></path>
  <path
    class="part-design1 view-back leg-left color3"
    d="M624.4 136.8H518.6v-.3l-1-6v-.2a256 256 0 0 0-.8-3.6v-.3h109v.3l-.4 3.6v.1l-.9 6.1Z"
    fill="#000000"
    style="fill: rgb(0, 0, 0)"
  ></path>
  <path
    class="part-design2 view-back leg-left color4 shadow-small"
    d="M624.4 136.5H518.6v.3l.5 3.3a.6.6 0 0 1 0 .1l.6 3.7 2.4 17.7 2.3 17.6 2.1 17.7.2 1.5 1.8 16.1.8 6.6 2.4 22.4v.7h77.4v-.7l2.6-29 .2-2.5a760.1 760.1 0 0 1 3.6-27.8c.3-2 .6-3.6 1-5l.1-.7a300.7 300.7 0 0 0 6.7-34.5l.5-3.8a.7.7 0 0 0 0-.1l.5-3.3Z"
    filter="url(#b)"
    fill="#d9d9d9"
    style="fill: rgb(217, 217, 217)"
  ></path>
  <path
    class="part-design view-back leg-left color2"
    d="M625.7 126.4c.8-6 1.5-11.9 2-17.7l.3-2.1c0-.7 0-1.4.2-2H512.9l.2 2 .3 2.1a87.9 87.9 0 0 0 2 12.8l1.3 4.8v.5h109Zm-17.4 127.8H533v.4l.6 5 1.8 16.9H607c.4-7 .8-14.4 1.4-22Z"
    fill="#ba0000"
    style="fill: rgb(186, 0, 0)"
  ></path>
  <path
    class="part-design1 view-back leg-left color3"
    d="m608.3 254.2.1-.8v-.1l.7-9.1h-77.3l1 9a.5.5 0 0 0 0 .2l.1.8v.4h75.4Z"
    fill="#000000"
    style="fill: rgb(0, 0, 0)"
  ></path>
  <text
    class="part-toetext view-front leg-left color2 __className_c224bf"
    dx="0"
    dy="-1.1em"
    fill="#ba0000"
    style="fill: rgb(186, 0, 0)"
  >
    <textPath xlink:href="#c" startOffset="50%" text-anchor="middle">
      ELITE
    </textPath>
  </text>
  <text
    class="part-toetext view-front leg-left color2 __className_c224bf"
    dx="0"
    dy="0"
    fill="#ba0000"
    style="fill: rgb(186, 0, 0)"
  >
    <textPath xlink:href="#c" startOffset="50%" text-anchor="middle">
      SPORT SOCKS
    </textPath>
  </text>
  <text
    class="part-toetext view-side leg-left color2 __className_c224bf"
    dx="0"
    dy="-1.1em"
    fill="#ba0000"
    style="fill: rgb(186, 0, 0)"
  >
    <textPath xlink:href="#d" startOffset="50%" text-anchor="middle">
      ELITE
    </textPath>
  </text>
  <text
    class="part-toetext view-side leg-left color2 __className_c224bf"
    dx="0"
    dy="0"
    fill="#ba0000"
    style="fill: rgb(186, 0, 0)"
  >
    <textPath xlink:href="#d" startOffset="50%" text-anchor="middle">
      SPORT SOCKS
    </textPath>
  </text>
  <text
    class="part-toetext view-front leg-left color2 __className_c224bf"
    dx="0"
    dy="-1.1em"
    fill="#ba0000"
    style="fill: rgb(186, 0, 0)"
  >
    <textPath xlink:href="#c" startOffset="50%" text-anchor="middle">
      ELITE
    </textPath>
  </text>
  <text
    class="part-toetext view-front leg-left color2 __className_c224bf"
    dx="0"
    dy="0"
    fill="#ba0000"
    style="fill: rgb(186, 0, 0)"
  >
    <textPath xlink:href="#c" startOffset="50%" text-anchor="middle">
      SPORT SOCKS
    </textPath>
  </text>
  <text
    class="part-toetext view-side leg-left color2 __className_c224bf"
    dx="0"
    dy="-1.1em"
    fill="#ba0000"
    style="fill: rgb(186, 0, 0)"
  >
    <textPath xlink:href="#d" startOffset="50%" text-anchor="middle">
      ELITE
    </textPath>
  </text>
  <text
    class="part-toetext view-side leg-left color2 __className_c224bf"
    dx="0"
    dy="0"
    fill="#ba0000"
    style="fill: rgb(186, 0, 0)"
  >
    <textPath xlink:href="#d" startOffset="50%" text-anchor="middle">
      SPORT SOCKS
    </textPath>
  </text>
  <rect
    class="view-front leg-left location-front area-logo color-color2 basecolor-color4"
    x="329.9"
    y="135.3"
    width="100.3"
    height="108"
  ></rect>
  <use
    xlink:href="#embed-93-0"
    class="type-logo part-logo0 location-front basecolor-color4 unclickable"
    width="100.30000305175781"
    height="108"
    x="329.8999938964844"
    y="135.3000030517578"
    transform="matrix(0.95,0,0,0.95,19.00908985137943,9.46939601898194)"
  ></use>
  <rect
    class="area-logo view-front leg-left location-inside location-sides color-color2 basecolor-color4"
    x="274"
    y="135.3"
    width="100.3"
    height="108"
  ></rect>
  <rect
    class="area-logo view-front leg-left location-outside location-sides color-color2 basecolor-color4"
    x="385.5"
    y="135.3"
    width="100.3"
    height="108"
  ></rect>
  <rect
    class="view-side leg-left location-front area-logo color-color2 basecolor-color4"
    x="79"
    y="135.5"
    width="100.3"
    height="108"
  ></rect>
  <use
    xlink:href="#embed-93-0"
    class="type-logo part-logo0 location-front basecolor-color4 unclickable"
    width="100.30000305175781"
    height="108"
    x="79"
    y="135.5"
    transform="matrix(0.95,0,0,0.95,6.464090919494637,9.479395866394043)"
  ></use>
  <rect
    class="view-side leg-left location-outside location-sides area-logo color-color2 basecolor-color4"
    x="135.5"
    y="135.5"
    width="100.3"
    height="108"
  ></rect>
  <rect
    class="view-side leg-left location-back area-logo color-color2 basecolor-color4"
    x="198.9"
    y="135.5"
    width="100.3"
    height="108"
  ></rect>
  <rect
    class="view-back leg-left location-outside location-sides area-logo color-color2 basecolor-color4"
    x="453.3"
    y="135.4"
    width="100.3"
    height="108"
  ></rect>
  <rect
    class="view-back leg-left location-inside location-sides area-logo color-color2 basecolor-color4"
    x="588.3"
    y="135.4"
    width="100.3"
    height="108"
  ></rect>
  <rect
    class="view-back leg-left location-back area-logo color-color2 basecolor-color4"
    x="521.2"
    y="135.4"
    width="100.3"
    height="108"
  ></rect>
  <rect
    class="area-text view-front leg-left location-front color-color2 basecolor-color4"
    x="333.9"
    y="161.1"
    width="92.5"
    height="58.6"
  ></rect>
  <rect
    class="area-text view-front leg-left location-inside location-sides color-color2 basecolor-color4"
    x="283.8"
    y="161.1"
    width="92.5"
    height="58.6"
  ></rect>
  <rect
    class="area-text view-front leg-left location-outside location-sides color-color2 basecolor-color4"
    x="383.5"
    y="161.1"
    width="92.5"
    height="58.6"
  ></rect>
  <rect
    class="area-text view-side leg-left location-outside location-sides color-color2 basecolor-color4"
    x="138.5"
    y="161.3"
    width="92.5"
    height="58.6"
  ></rect>
  <rect
    class="area-text view-side leg-left location-front color-color2 basecolor-color4"
    x="87.6"
    y="161.3"
    width="92.5"
    height="58.6"
  ></rect>
  <rect
    class="area-text view-side leg-left location-back color-color2 basecolor-color4"
    x="183.2"
    y="161.3"
    width="92.5"
    height="58.6"
  ></rect>
  <text
    class="type-text part-text0 location-back orientation-horizontal __className_19d588 unclickable"
    font-size="65"
    letter-spacing="normal"
    style="fill: rgb(186, 0, 0)"
    x="210.57390785217285"
    y="218.8074867630005"
  >
    C
  </text>
  <rect
    class="area-text view-back leg-left location-back color-color2 basecolor-color4"
    x="524.9"
    y="161.2"
    width="92.5"
    height="58.6"
  ></rect>
  <text
    class="type-text part-text0 location-back orientation-horizontal __className_19d588 unclickable"
    font-size="65"
    letter-spacing="normal"
    style="fill: rgb(186, 0, 0)"
    x="552.2739353179932"
    y="218.70748065948487"
  >
    C
  </text>
  <rect
    class="area-text view-back leg-left location-outside location-sides color-color2 basecolor-color4"
    x="477.3"
    y="161.2"
    width="92.5"
    height="58.6"
  ></rect>
  <rect
    class="area-text view-back leg-left location-inside location-sides color-color2 basecolor-color4"
    x="572.8"
    y="161.2"
    width="92.5"
    height="58.6"
  ></rect>
  <path
    class="mask view-front leg-left"
    d="M505.3 45a67.3 67.3 0 0 0-1-21.3c-1-5.4-2.3-11-4-17.2l-1.4-6A66.8 66.8 0 0 0 486-25H274a66.5 66.5 0 0 0-12.4 23.9v.3a264 264 0 0 0-6 27.7 67.5 67.5 0 0 0-.3 18.7c-1.8 20.5-1.6 41.6.7 54.6 1 6.6 6.8 50.5 11.6 86 7.8 58.5 12.6 94.5 13.8 102 4 24 6.3 45.6 6.6 54.8a100.4 100.4 0 0 0-2.4 33.7 156.4 156.4 0 0 0-2 23.4c-.2 5-1.2 17.5-2.2 27.3l-4.3 25-.2 1.4-.7 4.5v.5l-.3 2-.1.6-.2 2.1v.5l-.3 2.6v.6l-.2 2v.9l-.2 2v.8l-.1 2.8v7.2l.1 2.9v1.2l.2 2.7.1 1c0 1 .2 1.8.3 2.7l.1 1.1.4 2.8.1.5.2 1a91 91 0 0 0 6 20.1l.7 1.6 2 4 1 1.8a74.4 74.4 0 0 0 3.6 5.9h.1a71.5 71.5 0 0 0 4.7 6.2h.1a72 72 0 0 0 12.7 11.8l2.4 1.7a70.8 70.8 0 0 0 8.2 4.6c16 8 36.2 11.2 69.8 11.2l9.8-.1h1.4c8.4 0 33.6 0 56-14.7a78.1 78.1 0 0 0 14.9-12.5 76.8 76.8 0 0 0 5.7-7v-.2l1.3-1.7 3-4.7.4-.7.8-1.5c1.1-2 2.1-4.2 3.1-6.5l.7-1.5a81.8 81.8 0 0 0 3.5-10.4c0-.4.2-.7.3-1.1a38.5 38.5 0 0 0 1.2-5.3l.3-1.2.8-4.9.1-1 .4-3.7.1-1 .4-4.4V469l-.2-3v-.4l-.1-.9a164 164 0 0 0-.3-3.8l-.1-.6a159 159 0 0 0-6.8-32.5 274 274 0 0 1-4.7-31.8l-1.6-18.6a142 142 0 0 0-1.1-41.3c-.9-22.3 9-122.4 17.6-168.6 3.5-18.8 13.8-79.4 10.7-122.6Zm-74.6 110.7c-9.4 50.2-22 171.4-18 190.5 2.9 13.9.3 25.8.2 29.3s3.8 54.5 9.7 72.5a93.6 93.6 0 0 1 4 19.1v.3l.2 2.4.2 2.3v7.6l-.2 2.1a1.7 1.7 0 0 1 0 .5l-.2 1.7v.3l-.4 2a.8.8 0 0 1 0 .3l-.4 1.5a1.5 1.5 0 0 1 0 .4l-.5 1.7-.1.2-.5 1.3-.2.4a15.1 15.1 0 0 1-.7 1.4v.2l-.7 1-.2.4a13 13 0 0 1-1 1 12.6 12.6 0 0 1-2.4 2c-6.3 4.2-16.7 4.2-20.7 4.2-4.5 0-41 1.2-52.1-4.3a9 9 0 0 1-1-.6l-.2-.1a6 6 0 0 1-.6-.5l-.2-.2-.7-.7a12 12 0 0 1-.8-1l-.1-.2a11 11 0 0 1-.5-.7l-.1-.3a23 23 0 0 1-.4-.9l-.1-.2-.5-1.1v-.2l-.4-1a1.4 1.4 0 0 0 0-.4 2 2 0 0 1-.3-1 3 3 0 0 0-.1-.3l-.3-1.4-.2-1.4a1.3 1.3 0 0 0 0-.4 10 10 0 0 0-.1-1v-.5l-.1-1.4-.1-1.5v-3.6a13.7 13.7 0 0 1 0-1.6v-.4a7 7 0 0 1 .1-1.2v-.5a9.4 9.4 0 0 1 .1-1.1v-.4l.2-1.6a.9.9 0 0 0 0-.2l.1-1.3v-.5a8.5 8.5 0 0 1 .2-1v-.5l.5-2.9a1.8 1.8 0 0 1 0-.4l.2-.5c.6-3.8 1.4-7 2-9.2a461 461 0 0 0 5.5-54c-.2-5.8 1.7-17.6 2.4-21s-3.1-11.8.9-23.4-4-64.4-6.3-78.2S321.5 96.2 320.2 89c-.9-4.7-1.9-23.9 1-46 .2-1.4-1.4-5-1.2-6a191.7 191.7 0 0 1 4.4-20.6 2 2 0 0 1 2-1.5h107.5a2 2 0 0 1 2 1.5l1.4 6c1 3.8 2.2 9 3.4 14.5.2 1-1.1 4.7-1 6 4.6 31.8-6 96-9 112.8Z"
  ></path>
  <path
    class="mask view-side leg-left"
    d="M306.5 36.7a66.7 66.7 0 0 0-2.8-18.3 145.7 145.7 0 0 1-4.2-15.2l-.2-.8-.2-.7a67.1 67.1 0 0 0-13-26.6H77.8A66.7 66.7 0 0 0 63 15.3l-.1.9a309 309 0 0 0-1.5 17.6A67 67 0 0 0 63 51.4c-.8 57.4 6 159.7 15 198.6 3.6 15.4 5.3 50.6 2.6 65a998 998 0 0 1-46.1 49l-1.4.4-1.1.2-1.2.3-3.3.8-.6.2c-16 4.6-28.9 10-39.4 16.8A89.8 89.8 0 0 0-29 396.2a74.5 74.5 0 0 0-19.5 37.5 73 73 0 0 0 27.6 72l.6.5a86 86 0 0 0 11 7.3 93.4 93.4 0 0 0 11 5.2 94.7 94.7 0 0 0 20 5.6l2 .2 2 .3c5 .7 11.7 1.3 20.6 2h1.4l5.6.4L181.6 507a120.9 120.9 0 0 0 9.8-10c3.5-4 7-6.5 15.4-10l49.4-22.2 1.4-1 1.5-1.1a85 85 0 0 0 2.8-2.2l2-1.7a92.5 92.5 0 0 0 6.3-6.1l2.8-3.2.1-.1a82.6 82.6 0 0 0 8-11.4l.5-.8.9-1.6a67.4 67.4 0 0 0 3-6.4 106.9 106.9 0 0 0 4.3-12.9l.4-2a98.2 98.2 0 0 0 1.8-11.7V401c.2-1.2.2-2.5.2-3.8V391a118.3 118.3 0 0 0-.7-8.8l-.2-1a144 144 0 0 0-1-7.2l-.2-.6-.5-2.8-.2-.7-.6-2.7v-.4l-.7-3-.7-3-.7-2.8-1-4.1c-1-4.3-2.2-8.8-3.2-13.5-.2-1-2.8-16.1 4.7-65 4.8-31.5 10.9-58 11-58.2l1.7-7.3c9-37.7 23.8-100 6.6-173.1Zm-71.7 165.6c-2.1 9.3-24.8 111.7-15.8 152l4 17 .3 1.3.2.8.5 1.9.1.6.6 2.3.5 2.5v.2l.4 2a1.9 1.9 0 0 0 .1.5l.4 1.8v.3l.6 4v.4l.2 1.5v.4l.1 1.8v3.8a9.7 9.7 0 0 1-.1 1.2v.3l-.3 1.5a.5.5 0 0 1 0 .3l-.3 1a1.8 1.8 0 0 1-.2.6l-.3.9-.2.4-.6 1.3v.1a8 8 0 0 1-.7 1l-.3.4-.6.8-.3.4-.7.9-.3.3-1.1 1-.5.4-.8.6-.6.4-.3.2a43 43 0 0 1-9.2 4.7c-27.8 10.7-48.6 16.5-67.4 38-11.1 12.9-17.8 11.2-22.8 11.2h-.1c-6.1 0-37.7-1.4-61.8-3l-5.5-.4h-1c-7.2-.6-13.2-1.1-17.2-1.6h-.2l-.8-.1h-.2l-.9-.2a29.7 29.7 0 0 1-6.2-1.7 27.8 27.8 0 0 1-3.4-1.6 20.4 20.4 0 0 1-3-2c-2.4-2-4-4.3-4.2-7a2.7 2.7 0 0 1 0-.5 5.4 5.4 0 0 1 0-.6 1.2 1.2 0 0 1 0-.5c1.1-5.5 9-11.9 29.6-17.8l.9-.2h.3l.4-.1c5-1.1 13.4-2 24-9.3 11.8-8.2 51.2-52 63.7-66 19.4-22 12.3-95 7.1-117.4-7.8-34-14.8-140-13-192.2 0-1.4-1.8-5-1.8-6 .3-5 .6-9.5 1-13.1l.2-1.2c.3-2 .4-3.9.4-5.8a2 2 0 0 1 2-2h104a2 2 0 0 1 2 1.6 166.3 166.3 0 0 0 4.7 17.5l.9 3c.3 1-.7 4.6-.4 5.9 18.4 66.5 2 124.3-6 159.3Z"
  ></path>
  <path
    class="mask view-back leg-left"
    d="M694.7 23.5c-1.2-5.5-2.6-11-3.8-15.8l-.3-1.2-1.3-5.4A67 67 0 0 0 676.5-25H464a67.2 67.2 0 0 0-11.7 22l-.1.4c-1.1 3.7-2.1 7.5-3 11.3A196.2 196.2 0 0 0 446 30a66.6 66.6 0 0 0 .6 18.7c-1.5 32.6 1.4 73 6.6 91 2.7 11.5 8.1 55.2 16.1 130.1a1508 1508 0 0 0 2.6 23c.4 7-.7 28.8-1.5 35.1-2.4 17.1-.6 33 .8 44.6v.5a97 97 0 0 0-8.8 25.3c-2 5-3.2 9.6-4.4 13.7l-.6 2.4A96.9 96.9 0 0 0 453 491a86.4 86.4 0 0 0 50.6 52.3 158 158 0 0 0 55.7 9.2c8.7 0 18.1-.5 28.9-1.5a90.3 90.3 0 0 0 67.2-38.5 105.8 105.8 0 0 0 13.9-83.7 156 156 0 0 1 0-29l.2-1 .2-1.3a123.4 123.4 0 0 0 2.4-8.7l.4-1.7 3.1-39.5a230.7 230.7 0 0 0-4.9-37.5c-.4-21.4 5.6-99.7 9.1-116.3A673.8 673.8 0 0 0 695.7 45a67.3 67.3 0 0 0-1-21.6ZM630.2 43l.4 2.9c1.6 13.6-2.4 85.8-14 132.5-5.1 21-13.1 129-10.2 141.7 1.7 7.4 7.1 33.1 2.7 52.8l-.1.4a47 47 0 0 1-.4 1.7l-.3.8-.6 2.2-.5 1.5-.2.5-.2 1-.2.6-.3 1.2a4.3 4.3 0 0 1 0 .6l-.3 1.2-.2.6-.2 1.3-.6 4a186.9 186.9 0 0 0 1 53.3c3 10.9 3.6 39.9-23.9 42.5s-42.6 1-56.2-4c-9.9-3.6-19.8-22.6-9.5-40.8 3-5.2 5.3-18.3 7.6-22.2s.4-9.8 6.9-20.1a31.3 31.3 0 0 0 2-3.8l.4-1 .4-.9.3-1 .3-1 .3-1 .3-1 .4-1.6.2-1.2.2-1 .1-1.1.2-1v-1.2l.2-.9v-10.9l-.1-1.7v-.4a136 136 0 0 0-.4-3.5c-1.1-9.7-2.3-19.4-1-28.2s3.1-41 1.6-52-14.5-143.2-20.8-163.5c-2.3-7.2-6-46.6-3.5-78.4 0-1.3-1.6-5-1.5-6a131.7 131.7 0 0 1 2.3-14.5c.4-2 1-4 1.6-6a2 2 0 0 1 1.9-1.5h108a2 2 0 0 1 2 1.5l1.4 6 .2 1c1.3 4.8 2.4 9.3 3.3 13.5.1 1.1-1.2 4.8-1 6Z"
  ></path>
  <defs>
    <filter id="a" x0="-50%" y0="-50%" width="200%" height="200%">
      <feGaussianBlur
        in="SourceAlpha"
        stdDeviation="8"
        result="blur"
      ></feGaussianBlur>
      <feOffset dy="2" dx="3"></feOffset>
      <feComposite
        in2="SourceAlpha"
        operator="arithmetic"
        k2="-1"
        k3="1"
        result="shadowDiff"
      ></feComposite>
      <feFlood flood-color="#000000" flood-opacity=".4"></feFlood>
      <feComposite in2="shadowDiff" operator="in"></feComposite>
      <feComposite
        in2="SourceGraphic"
        operator="over"
        result="firstfilter"
      ></feComposite>
      <feGaussianBlur
        in="firstfilter"
        stdDeviation="8"
        result="blur2"
      ></feGaussianBlur>
      <feOffset dy="-2" dx="-3"></feOffset>
      <feComposite
        in2="firstfilter"
        operator="arithmetic"
        k2="-1"
        k3="1"
        result="shadowDiff"
      ></feComposite>
      <feFlood flood-color="#000000" flood-opacity=".4"></feFlood>
      <feComposite in2="shadowDiff" operator="in"></feComposite>
      <feComposite in2="firstfilter" operator="over"></feComposite>
    </filter>
    <filter id="b" x0="-50%" y0="-50%" width="300%" height="300%">
      <feGaussianBlur
        in="SourceAlpha"
        stdDeviation="3"
        result="blur"
      ></feGaussianBlur>
      <feOffset dy="2" dx="3"></feOffset>
      <feComposite
        in2="SourceAlpha"
        operator="arithmetic"
        k2="-1"
        k3="1"
        result="shadowDiff"
      ></feComposite>
      <feFlood flood-color="#000000" flood-opacity=".3"></feFlood>
      <feComposite in2="shadowDiff" operator="in"></feComposite>
      <feComposite
        in2="SourceGraphic"
        operator="over"
        result="firstfilter"
      ></feComposite>
      <feGaussianBlur
        in="firstfilter"
        stdDeviation="3"
        result="blur2"
      ></feGaussianBlur>
      <feOffset dy="-2" dx="-3"></feOffset>
      <feComposite
        in2="firstfilter"
        operator="arithmetic"
        k2="-1"
        k3="1"
        result="shadowDiff"
      ></feComposite>
      <feFlood flood-color="#000000" flood-opacity=".3"></feFlood>
      <feComposite in2="shadowDiff" operator="in"></feComposite>
      <feComposite in2="firstfilter" operator="over"></feComposite>
    </filter>
    <filter id="shadowBlur" x="-50%" y="-50%" width="400%" height="400%">
      <feGaussianBlur in="SourceGraphic" stdDeviation="6"></feGaussianBlur>
    </filter>
    <clipPath id="SvgjsClipPath1008">
      <path
        class="mask view-front leg-left"
        d="M505.3 45a67.3 67.3 0 0 0-1-21.3c-1-5.4-2.3-11-4-17.2l-1.4-6A66.8 66.8 0 0 0 486-25H274a66.5 66.5 0 0 0-12.4 23.9v.3a264 264 0 0 0-6 27.7 67.5 67.5 0 0 0-.3 18.7c-1.8 20.5-1.6 41.6.7 54.6 1 6.6 6.8 50.5 11.6 86 7.8 58.5 12.6 94.5 13.8 102 4 24 6.3 45.6 6.6 54.8a100.4 100.4 0 0 0-2.4 33.7 156.4 156.4 0 0 0-2 23.4c-.2 5-1.2 17.5-2.2 27.3l-4.3 25-.2 1.4-.7 4.5v.5l-.3 2-.1.6-.2 2.1v.5l-.3 2.6v.6l-.2 2v.9l-.2 2v.8l-.1 2.8v7.2l.1 2.9v1.2l.2 2.7.1 1c0 1 .2 1.8.3 2.7l.1 1.1.4 2.8.1.5.2 1a91 91 0 0 0 6 20.1l.7 1.6 2 4 1 1.8a74.4 74.4 0 0 0 3.6 5.9h.1a71.5 71.5 0 0 0 4.7 6.2h.1a72 72 0 0 0 12.7 11.8l2.4 1.7a70.8 70.8 0 0 0 8.2 4.6c16 8 36.2 11.2 69.8 11.2l9.8-.1h1.4c8.4 0 33.6 0 56-14.7a78.1 78.1 0 0 0 14.9-12.5 76.8 76.8 0 0 0 5.7-7v-.2l1.3-1.7 3-4.7.4-.7.8-1.5c1.1-2 2.1-4.2 3.1-6.5l.7-1.5a81.8 81.8 0 0 0 3.5-10.4c0-.4.2-.7.3-1.1a38.5 38.5 0 0 0 1.2-5.3l.3-1.2.8-4.9.1-1 .4-3.7.1-1 .4-4.4V469l-.2-3v-.4l-.1-.9a164 164 0 0 0-.3-3.8l-.1-.6a159 159 0 0 0-6.8-32.5 274 274 0 0 1-4.7-31.8l-1.6-18.6a142 142 0 0 0-1.1-41.3c-.9-22.3 9-122.4 17.6-168.6 3.5-18.8 13.8-79.4 10.7-122.6Zm-74.6 110.7c-9.4 50.2-22 171.4-18 190.5 2.9 13.9.3 25.8.2 29.3s3.8 54.5 9.7 72.5a93.6 93.6 0 0 1 4 19.1v.3l.2 2.4.2 2.3v7.6l-.2 2.1a1.7 1.7 0 0 1 0 .5l-.2 1.7v.3l-.4 2a.8.8 0 0 1 0 .3l-.4 1.5a1.5 1.5 0 0 1 0 .4l-.5 1.7-.1.2-.5 1.3-.2.4a15.1 15.1 0 0 1-.7 1.4v.2l-.7 1-.2.4a13 13 0 0 1-1 1 12.6 12.6 0 0 1-2.4 2c-6.3 4.2-16.7 4.2-20.7 4.2-4.5 0-41 1.2-52.1-4.3a9 9 0 0 1-1-.6l-.2-.1a6 6 0 0 1-.6-.5l-.2-.2-.7-.7a12 12 0 0 1-.8-1l-.1-.2a11 11 0 0 1-.5-.7l-.1-.3a23 23 0 0 1-.4-.9l-.1-.2-.5-1.1v-.2l-.4-1a1.4 1.4 0 0 0 0-.4 2 2 0 0 1-.3-1 3 3 0 0 0-.1-.3l-.3-1.4-.2-1.4a1.3 1.3 0 0 0 0-.4 10 10 0 0 0-.1-1v-.5l-.1-1.4-.1-1.5v-3.6a13.7 13.7 0 0 1 0-1.6v-.4a7 7 0 0 1 .1-1.2v-.5a9.4 9.4 0 0 1 .1-1.1v-.4l.2-1.6a.9.9 0 0 0 0-.2l.1-1.3v-.5a8.5 8.5 0 0 1 .2-1v-.5l.5-2.9a1.8 1.8 0 0 1 0-.4l.2-.5c.6-3.8 1.4-7 2-9.2a461 461 0 0 0 5.5-54c-.2-5.8 1.7-17.6 2.4-21s-3.1-11.8.9-23.4-4-64.4-6.3-78.2S321.5 96.2 320.2 89c-.9-4.7-1.9-23.9 1-46 .2-1.4-1.4-5-1.2-6a191.7 191.7 0 0 1 4.4-20.6 2 2 0 0 1 2-1.5h107.5a2 2 0 0 1 2 1.5l1.4 6c1 3.8 2.2 9 3.4 14.5.2 1-1.1 4.7-1 6 4.6 31.8-6 96-9 112.8Z"
        transform="matrix(1,0,0,1,0,-0.25)"
      ></path>
      <path
        class="mask view-side leg-left"
        d="M306.5 36.7a66.7 66.7 0 0 0-2.8-18.3 145.7 145.7 0 0 1-4.2-15.2l-.2-.8-.2-.7a67.1 67.1 0 0 0-13-26.6H77.8A66.7 66.7 0 0 0 63 15.3l-.1.9a309 309 0 0 0-1.5 17.6A67 67 0 0 0 63 51.4c-.8 57.4 6 159.7 15 198.6 3.6 15.4 5.3 50.6 2.6 65a998 998 0 0 1-46.1 49l-1.4.4-1.1.2-1.2.3-3.3.8-.6.2c-16 4.6-28.9 10-39.4 16.8A89.8 89.8 0 0 0-29 396.2a74.5 74.5 0 0 0-19.5 37.5 73 73 0 0 0 27.6 72l.6.5a86 86 0 0 0 11 7.3 93.4 93.4 0 0 0 11 5.2 94.7 94.7 0 0 0 20 5.6l2 .2 2 .3c5 .7 11.7 1.3 20.6 2h1.4l5.6.4L181.6 507a120.9 120.9 0 0 0 9.8-10c3.5-4 7-6.5 15.4-10l49.4-22.2 1.4-1 1.5-1.1a85 85 0 0 0 2.8-2.2l2-1.7a92.5 92.5 0 0 0 6.3-6.1l2.8-3.2.1-.1a82.6 82.6 0 0 0 8-11.4l.5-.8.9-1.6a67.4 67.4 0 0 0 3-6.4 106.9 106.9 0 0 0 4.3-12.9l.4-2a98.2 98.2 0 0 0 1.8-11.7V401c.2-1.2.2-2.5.2-3.8V391a118.3 118.3 0 0 0-.7-8.8l-.2-1a144 144 0 0 0-1-7.2l-.2-.6-.5-2.8-.2-.7-.6-2.7v-.4l-.7-3-.7-3-.7-2.8-1-4.1c-1-4.3-2.2-8.8-3.2-13.5-.2-1-2.8-16.1 4.7-65 4.8-31.5 10.9-58 11-58.2l1.7-7.3c9-37.7 23.8-100 6.6-173.1Zm-71.7 165.6c-2.1 9.3-24.8 111.7-15.8 152l4 17 .3 1.3.2.8.5 1.9.1.6.6 2.3.5 2.5v.2l.4 2a1.9 1.9 0 0 0 .1.5l.4 1.8v.3l.6 4v.4l.2 1.5v.4l.1 1.8v3.8a9.7 9.7 0 0 1-.1 1.2v.3l-.3 1.5a.5.5 0 0 1 0 .3l-.3 1a1.8 1.8 0 0 1-.2.6l-.3.9-.2.4-.6 1.3v.1a8 8 0 0 1-.7 1l-.3.4-.6.8-.3.4-.7.9-.3.3-1.1 1-.5.4-.8.6-.6.4-.3.2a43 43 0 0 1-9.2 4.7c-27.8 10.7-48.6 16.5-67.4 38-11.1 12.9-17.8 11.2-22.8 11.2h-.1c-6.1 0-37.7-1.4-61.8-3l-5.5-.4h-1c-7.2-.6-13.2-1.1-17.2-1.6h-.2l-.8-.1h-.2l-.9-.2a29.7 29.7 0 0 1-6.2-1.7 27.8 27.8 0 0 1-3.4-1.6 20.4 20.4 0 0 1-3-2c-2.4-2-4-4.3-4.2-7a2.7 2.7 0 0 1 0-.5 5.4 5.4 0 0 1 0-.6 1.2 1.2 0 0 1 0-.5c1.1-5.5 9-11.9 29.6-17.8l.9-.2h.3l.4-.1c5-1.1 13.4-2 24-9.3 11.8-8.2 51.2-52 63.7-66 19.4-22 12.3-95 7.1-117.4-7.8-34-14.8-140-13-192.2 0-1.4-1.8-5-1.8-6 .3-5 .6-9.5 1-13.1l.2-1.2c.3-2 .4-3.9.4-5.8a2 2 0 0 1 2-2h104a2 2 0 0 1 2 1.6 166.3 166.3 0 0 0 4.7 17.5l.9 3c.3 1-.7 4.6-.4 5.9 18.4 66.5 2 124.3-6 159.3Z"
        transform="matrix(1,0,0,1,0,-0.25)"
      ></path>
      <path
        class="mask view-back leg-left"
        d="M694.7 23.5c-1.2-5.5-2.6-11-3.8-15.8l-.3-1.2-1.3-5.4A67 67 0 0 0 676.5-25H464a67.2 67.2 0 0 0-11.7 22l-.1.4c-1.1 3.7-2.1 7.5-3 11.3A196.2 196.2 0 0 0 446 30a66.6 66.6 0 0 0 .6 18.7c-1.5 32.6 1.4 73 6.6 91 2.7 11.5 8.1 55.2 16.1 130.1a1508 1508 0 0 0 2.6 23c.4 7-.7 28.8-1.5 35.1-2.4 17.1-.6 33 .8 44.6v.5a97 97 0 0 0-8.8 25.3c-2 5-3.2 9.6-4.4 13.7l-.6 2.4A96.9 96.9 0 0 0 453 491a86.4 86.4 0 0 0 50.6 52.3 158 158 0 0 0 55.7 9.2c8.7 0 18.1-.5 28.9-1.5a90.3 90.3 0 0 0 67.2-38.5 105.8 105.8 0 0 0 13.9-83.7 156 156 0 0 1 0-29l.2-1 .2-1.3a123.4 123.4 0 0 0 2.4-8.7l.4-1.7 3.1-39.5a230.7 230.7 0 0 0-4.9-37.5c-.4-21.4 5.6-99.7 9.1-116.3A673.8 673.8 0 0 0 695.7 45a67.3 67.3 0 0 0-1-21.6ZM630.2 43l.4 2.9c1.6 13.6-2.4 85.8-14 132.5-5.1 21-13.1 129-10.2 141.7 1.7 7.4 7.1 33.1 2.7 52.8l-.1.4a47 47 0 0 1-.4 1.7l-.3.8-.6 2.2-.5 1.5-.2.5-.2 1-.2.6-.3 1.2a4.3 4.3 0 0 1 0 .6l-.3 1.2-.2.6-.2 1.3-.6 4a186.9 186.9 0 0 0 1 53.3c3 10.9 3.6 39.9-23.9 42.5s-42.6 1-56.2-4c-9.9-3.6-19.8-22.6-9.5-40.8 3-5.2 5.3-18.3 7.6-22.2s.4-9.8 6.9-20.1a31.3 31.3 0 0 0 2-3.8l.4-1 .4-.9.3-1 .3-1 .3-1 .3-1 .4-1.6.2-1.2.2-1 .1-1.1.2-1v-1.2l.2-.9v-10.9l-.1-1.7v-.4a136 136 0 0 0-.4-3.5c-1.1-9.7-2.3-19.4-1-28.2s3.1-41 1.6-52-14.5-143.2-20.8-163.5c-2.3-7.2-6-46.6-3.5-78.4 0-1.3-1.6-5-1.5-6a131.7 131.7 0 0 1 2.3-14.5c.4-2 1-4 1.6-6a2 2 0 0 1 1.9-1.5h108a2 2 0 0 1 2 1.5l1.4 6 .2 1c1.3 4.8 2.4 9.3 3.3 13.5.1 1.1-1.2 4.8-1 6Z"
        transform="matrix(1,0,0,1,0,-0.25)"
      ></path>
    </clipPath>
  </defs>
  <ellipse
    rx="92.5"
    ry="12.5"
    cx="102.47084617614746"
    cy="457.8857002258301"
    filter="url(#shadowBlur)"
    fill="#777777"
    fill-opacity="0.7"
    class="part-shadow view-side"
    clip-path="url(#SvgjsClipPath1008)"
  ></ellipse>
  <ellipse
    rx="55"
    ry="12.5"
    cx="383.445068359375"
    cy="496.9107666015625"
    filter="url(#shadowBlur)"
    fill="#777777"
    fill-opacity="0.7"
    class="part-shadow view-front"
    clip-path="url(#SvgjsClipPath1008)"
  ></ellipse>
  <ellipse
    rx="55"
    ry="12.5"
    cx="560.8958435058594"
    cy="482.0319890975952"
    filter="url(#shadowBlur)"
    fill="#777777"
    fill-opacity="0.7"
    class="part-shadow view-back"
    clip-path="url(#SvgjsClipPath1008)"
  ></ellipse>
</svg>
