<svg width="100" height="100" viewBox="0 0 100 100" fill="none" xmlns="http://www.w3.org/2000/svg">
<g clip-path="url(#clip0_101_5)">
<path d="M60.5281 10L38.6517 31.8764V75.0169L48.2416 81.3483H67.1966L76.8539 75.2416V31.8764L60.5281 10Z" fill="#F97316"/>
<path d="M38.6517 75.0169L48.2416 81.3483H67.1966L76.8539 75.2416" fill="white"/>
<path d="M60.5281 10L76.8539 31.8764H81.9236L67.1966 10H60.5281Z" fill="white"/>
<path d="M38.6517 31.8764L60.5281 10L76.8539 31.8764" fill="#FB923C"/>
<rect x="42" y="15" width="2" height="15" fill="white" transform="rotate(20 42 15)"/>
<rect x="45" y="16" width="2" height="15" fill="white" transform="rotate(20 45 16)"/>
<rect x="48" y="17" width="2" height="15" fill="white" transform="rotate(20 48 17)"/>
<rect x="51" y="18" width="2" height="15" fill="white" transform="rotate(20 51 18)"/>
<rect x="54" y="19" width="2" height="15" fill="white" transform="rotate(20 54 19)"/>
</g>
<defs>
<clipPath id="clip0_101_5">
<rect width="100" height="100" fill="white"/>
</clipPath>
</defs>
</svg>
