<?xml version="1.0" encoding="UTF-8" standalone="no"?>
<svg
   xmlns:dc="http://purl.org/dc/elements/1.1/"
   xmlns:cc="http://creativecommons.org/ns#"
   xmlns:rdf="http://www.w3.org/1999/02/22-rdf-syntax-ns#"
   xmlns:svg="http://www.w3.org/2000/svg"
   xmlns="http://www.w3.org/2000/svg"
   xmlns:sodipodi="http://sodipodi.sourceforge.net/DTD/sodipodi-0.dtd"
   xmlns:inkscape="http://www.inkscape.org/namespaces/inkscape"
   id="Stirrup_Pttn_F"
   data-name="Stirrup Pttn#F"
   viewBox="0 -150 483.763 915.392"
   version="1.1"
   width="483.763"
   height="915.392"
   sodipodi:docname="lengths-2n1a.svg"
   inkscape:version="0.92.4 (5da689c313, 2019-01-14)">
  <metadata
     id="metadata15">
    <rdf:RDF>
      <cc:Work
         rdf:about="">
        <dc:format>image/svg+xml</dc:format>
        <dc:type
           rdf:resource="http://purl.org/dc/dcmitype/StillImage" />
        <dc:title></dc:title>
      </cc:Work>
    </rdf:RDF>
  </metadata>
  <sodipodi:namedview
     pagecolor="#ffffff"
     bordercolor="#666666"
     borderopacity="1"
     objecttolerance="10"
     gridtolerance="10"
     guidetolerance="10"
     inkscape:pageopacity="0"
     inkscape:pageshadow="2"
     inkscape:window-width="1920"
     inkscape:window-height="1009"
     id="namedview13"
     showgrid="false"
     inkscape:zoom="0.25781304"
     inkscape:cx="-892.84331"
     inkscape:cy="993.90895"
     inkscape:window-x="1912"
     inkscape:window-y="-8"
     inkscape:window-maximized="1"
     inkscape:current-layer="g13" />
  <defs
     id="defs7">
    <clipPath
       id="clip-path">
      <path
         class="cls-1"
         d="M291.92 725.27c23.67 14.67 32.79 31.51 50.33 93.34 7 24.66 46.67 27.66 70.34 27.66 42.16 0 54.59-4.86 84-14.66 12-4 26.66-27 15-39.67-3.91-4.24-10.52-8.92-18.9-13.35-6.74-3.58-9.94-2.38-18.87-7.32-12.31-6.8-31.38-1.06-32.9-2.66-14.6-15.4-21.81-44-29.33-65.67-9.8-28.2-17.11-51.83-19-57.33-4-11.67 3.94-46 12.66-66.67C422 539.18 457 493.13 488.44 452.63c15.46-19.94 30-38.52 41.15-54.36 53-75.54 87.66-136.66 111.66-176.66 12-20 11.44-17.15 23-37.67 13.34-23.67 20-39.28 7-60-28-44.67-71-63-84.66-68.67-23.42-9.71-44.55-10.64-64 10.34-25.34 27.33-29.79 35.89-35 44-9 14-19.67 29-28.34 45.66-25.81 49.64-26.87 81.93-45.33 114.67-19.16 34-53 107.67-100.67 217.67-9.9 22.86-16.73 40.66-53.66 70.33-18.67 15-96 81.67-51.34 120.33 32.75 28.33 63.46 34.48 83.67 47z"
         id="path2" />
    </clipPath>
    <style
       id="style5">.cls-1{fill:none}</style>
  </defs>
  <path
     d="m 119.6163,438.80336 c 10.08066,-19.58496 43.44306,-70.0301 50.82705,-84.06615 4.64846,-8.81289 11.32467,-15.96387 12.88372,-26.11579 1.50166,-9.84803 -1.01387,-19.94297 -3.692,-29.43962 -2.33379,-8.18612 -8.1396,-21.47193 -9.08651,-32.85842 0,0 -3.89285,-8.7749 1.31994,-14.58685 5.21279,-5.81194 37.83816,-68.09099 37.83816,-68.09099 8.17786,-16.90403 15.13143,-30.94008 18.48866,-36.84701 17.65654,-31.09203 18.6704,-61.728221 43.35703,-108.898085 8.29264,-15.82142 18.49823,-30.0663963 27.1065,-43.3617077 4.98324,-7.7017843 9.23956,-15.8309173 33.47664,-41.7852633 18.60345,-19.942967 38.81377,-18.993302 61.21441,-9.819537 13.06546,5.384601 54.1939,22.791962 80.97521,65.213501 12.43417,19.677061 6.06405,34.501332 -6.69534,56.979905 -11.05685,19.487127 -10.52122,16.818569 -21.99892,35.773887 -22.84063,37.79667 -55.81034,95.46983 -106.07311,166.7327 -50.26277,71.26286 -38.6416,55.43195 -38.95723,57.69215 -0.31565,2.26021 -2.27642,6.21081 -10.09083,6.50521 -13.7828,4.18802 -27.61344,7.0655 -39.71285,10.44631 -12.43418,3.51376 -27.43171,7.27444 -34.33745,19.22123 -2.13295,3.70369 -4.24676,7.37889 -6.48491,11.09208 -17.87652,29.772 -41.60551,68.48191 -54.58518,91.8552 -21.35961,10.18503 -40.95737,-9.73271 -35.77299,-25.64275 z"
     id="path15"
     inkscape:connector-curvature="0"
     style="fill:#a6d7b0;stroke-width:0.95306408"
     sodipodi:nodetypes="cccccscccccccccsscccccc" />
  <g
     clip-path="url(#clip-path)"
     id="g13"
     transform="translate(-194.553 -115.772)">
    <path
       id="Outline"
       d="M291.92 725.27c23.67 14.67 32.79 31.51 50.33 93.34 7 24.66 46.67 27.66 70.34 27.66 42.16 0 54.59-4.86 84-14.66 12-4 26.66-27 15-39.67-3.91-4.24-10.52-8.92-18.9-13.35-6.74-3.58-9.94-2.38-18.87-7.32-12.31-6.8-31.38-1.06-32.9-2.66-14.6-15.4-21.81-44-29.33-65.67-9.8-28.2-17.11-51.83-19-57.33-4-11.67 3.94-46 12.66-66.67 25-59.33 90.67-132.67 124.34-180.67 53-75.54 87.66-136.66 111.66-176.66 12-20 11.44-17.15 23-37.67 13.34-23.67 20-39.28 7-60-28-44.67-71-63-84.66-68.67-23.42-9.71-44.55-10.64-64 10.34-25.34 27.33-29.79 35.89-35 44-9 14-19.67 29-28.34 45.66-25.81 49.64-26.87 81.93-45.33 114.67-19.16 34-53 107.67-100.67 217.67-9.9 22.86-16.73 40.66-53.66 70.33-18.67 15-96 81.67-51.34 120.33 32.75 28.33 63.46 34.48 83.67 47z"
       stroke-miterlimit="10"
       fill="none"
       stroke="#111820"
       stroke-width="12" />
    <path
       id="Box"
       class="cls-1"
       d="M-39.8 0h912.62v919.44H-39.8z"
       fill="none" />
  </g>
</svg>
