<?xml version="1.0" encoding="UTF-8" standalone="no"?>
<svg
   xmlns:dc="http://purl.org/dc/elements/1.1/"
   xmlns:cc="http://creativecommons.org/ns#"
   xmlns:rdf="http://www.w3.org/1999/02/22-rdf-syntax-ns#"
   xmlns:svg="http://www.w3.org/2000/svg"
   xmlns="http://www.w3.org/2000/svg"
   xmlns:sodipodi="http://sodipodi.sourceforge.net/DTD/sodipodi-0.dtd"
   xmlns:inkscape="http://www.inkscape.org/namespaces/inkscape"
   id="Stirrup_Pttn_F"
   data-name="Stirrup Pttn#F"
   viewBox="0 -150 483.763 915.392"
   version="1.1"
   width="483.763"
   height="915.392"
   sodipodi:docname="lengths-stirrup - Copy.svg"
   inkscape:version="0.92.4 (5da689c313, 2019-01-14)">
  <metadata
     id="metadata4546">
    <rdf:RDF>
      <cc:Work
         rdf:about="">
        <dc:format>image/svg+xml</dc:format>
        <dc:type
           rdf:resource="http://purl.org/dc/dcmitype/StillImage" />
      </cc:Work>
    </rdf:RDF>
  </metadata>
  <sodipodi:namedview
     pagecolor="#ffffff"
     bordercolor="#666666"
     borderopacity="1"
     objecttolerance="10"
     gridtolerance="10"
     guidetolerance="10"
     inkscape:pageopacity="0"
     inkscape:pageshadow="2"
     inkscape:window-width="1920"
     inkscape:window-height="1009"
     id="namedview4544"
     showgrid="false"
     inkscape:zoom="0.45881981"
     inkscape:cx="-351.3267"
     inkscape:cy="334.00965"
     inkscape:window-x="1912"
     inkscape:window-y="-8"
     inkscape:window-maximized="1"
     inkscape:current-layer="Stirrup_Pttn_F" />
  <defs
     id="defs7">
    <clipPath
       id="clip-path">
      <path
         class="cls-1"
         d="M291.92 725.27c23.67 14.67 32.79 31.51 50.33 93.34 7 24.66 46.67 27.66 70.34 27.66 42.16 0 54.59-4.86 84-14.66 12-4 26.66-27 15-39.67-3.91-4.24-10.52-8.92-18.9-13.35-6.74-3.58-9.94-2.38-18.87-7.32-12.31-6.8-31.38-1.06-32.9-2.66-14.6-15.4-21.81-44-29.33-65.67-9.8-28.2-17.11-51.83-19-57.33-4-11.67 3.94-46 12.66-66.67C422 539.18 457 493.13 488.44 452.63c15.46-19.94 30-38.52 41.15-54.36 53-75.54 87.66-136.66 111.66-176.66 12-20 11.44-17.15 23-37.67 13.34-23.67 20-39.28 7-60-28-44.67-71-63-84.66-68.67-23.42-9.71-44.55-10.64-64 10.34-25.34 27.33-29.79 35.89-35 44-9 14-19.67 29-28.34 45.66-25.81 49.64-26.87 81.93-45.33 114.67-19.16 34-53 107.67-100.67 217.67-9.9 22.86-16.73 40.66-53.66 70.33-18.67 15-96 81.67-51.34 120.33 32.75 28.33 63.46 34.48 83.67 47z"
         id="path2" />
    </clipPath>
    <style
       id="style5">.cls-1{fill:none}</style>
  </defs>
  <path
     id="Foot_Color"
     data-name="Foot Color"
     d="M65.027 442.598c36.93-29.68 43.76-47.48 53.66-70.33 17.95-41.42 42.16-95.65 56.14-126.58 1.11-2.45 37.1 34.8 40.82 36.59a328.85 328.85 0 0153 32.08c8.91 7.16 33.51-6.06 41.5 2.06-8.89 11.51-34 43.85-42.69 55.52-14.37 19.29-28.28 39-40.46 59.78a273.87 273.87 0 00-16.27 31.88c-8.72 20.7-16.66 55-12.66 66.67 1.89 5.5 9.2 29.13 19 57.33 7.48 21.63 14.69 50.27 29.29 65.63 1.52 1.6 20.58-4.14 32.9 2.66 8.93 4.94 12.13 3.74 18.87 7.32 8.38 4.43 15 9.1 18.9 13.35 11.66 12.67-3 35.67-15 39.67-29.41 9.8-41.84 14.66-84 14.66-23.67 0-63.34-3-70.34-27.66-17.54-61.83-26.66-78.67-50.33-93.34-20.22-12.52-50.94-18.67-83.67-47-44.66-38.66 32.67-105.29 51.34-120.29z"
     fill="#fff" />
  <g
     clip-path="url(#clip-path)"
     id="g13"
     transform="translate(-194.553 -115.772)">
    <path
       id="Outline"
       d="M291.92 725.27c23.67 14.67 32.79 31.51 50.33 93.34 7 24.66 46.67 27.66 70.34 27.66 42.16 0 54.59-4.86 84-14.66 12-4 26.66-27 15-39.67-3.91-4.24-10.52-8.92-18.9-13.35-6.74-3.58-9.94-2.38-18.87-7.32-12.31-6.8-31.38-1.06-32.9-2.66-14.6-15.4-21.81-44-29.33-65.67-9.8-28.2-17.11-51.83-19-57.33-4-11.67 3.94-46 12.66-66.67 25-59.33 90.67-132.67 124.34-180.67 53-75.54 87.66-136.66 111.66-176.66 12-20 11.44-17.15 23-37.67 13.34-23.67 20-39.28 7-60-28-44.67-71-63-84.66-68.67-23.42-9.71-44.55-10.64-64 10.34-25.34 27.33-29.79 35.89-35 44-9 14-19.67 29-28.34 45.66-25.81 49.64-26.87 81.93-45.33 114.67-19.16 34-53 107.67-100.67 217.67-9.9 22.86-16.73 40.66-53.66 70.33-18.67 15-96 81.67-51.34 120.33 32.75 28.33 63.46 34.48 83.67 47z"
       stroke-miterlimit="10"
       fill="none"
       stroke="#111820"
       stroke-width="12" />
    <path
       id="Box"
       class="cls-1"
       d="M-39.8 0h912.62v919.44H-39.8z"
       fill="none" />
    <path
       id="Welt_seam"
       data-name="Welt seam"
       d="M650.09 207.71a.74.74 0 00.53-.21c2.17-2.24.92-7.31-.52-11.18-9.24-24.9-59.22-86.1-147.49-105.8a.7.7 0 00-.84.43.6.6 0 00.49.72C590 111.25 639.62 172 648.79 196.68c1.86 5 2.14 8.66.78 10.06a.53.53 0 00.08.83.79.79 0 00.44.14"
       fill="#999" />
  </g>
  <path
     d="m 159.69824,278.6833 c 0,0 -4.84057,5.78614 0.60943,-0.33386 5.45,-6.12 40.33057,-86.72614 40.33057,-86.72614 8.55,-17.8 15.82,-32.58 19.33,-38.8 18.46,-32.74 19.52,-65 45.33,-114.670001 8.67,-16.660003 19.34,-31.660003 28.34,-45.660003 5.21,-8.11 9.66,-16.67 35,-44 19.45,-21 40.58,-20 64,-10.34 13.66,5.67 56.66,24 84.66,68.67 13,20.72 6.34,36.330003 -7,60.000003 -11.56,20.520001 -11,17.710001 -23,37.670001 -23.88,39.8 -58.35,100.53 -110.9,175.57 -52.55,75.04 -40.4,58.37 -40.73,60.75 -0.33,2.38 -16.63557,19.63971 -25.19086,28.81128 -14.41,4.41 -57.81924,105.35149 -70.46924,108.91149 -15.98737,-47.73382 39.36959,-111.55634 0,0 0,0 -31.3725,-23.97497 -35.1825,-25.80497 -3.81,-1.83 -71.269013,-31.506 -71.269013,-31.506 23.267003,-41.57704 33.307713,-73.41743 43.368903,-94.43019 10.86992,-22.70177 8.00687,-7.24241 22.77271,-48.11161 z"
     id="path15"
     inkscape:connector-curvature="0"
     style="fill:#a6d7b0"
     sodipodi:nodetypes="cscccccccccsscccscsc" />
</svg>
