<svg xmlns="http://www.w3.org/2000/svg" width="265.6" height="842.2"><path d="M182.5 799c-5.2-1.6-10-3-13.2-4.7a46 46 0 01-2.3-1.1 53.9 53.9 0 01-11.2-6.7 35.4 35.4 0 01-1.6-1.4l-2.2-2.2-.7-.8-.8-1a17.2 17.2 0 01-1-1.2l-.4-.6-.6-.8-.6-1-.5-.7-.5-.8-.2-.5a36.4 36.4 0 01-.8-1.5 15 15 0 01-.4-.8 27.8 27.8 0 01-.8-1.8l-.5-1.1-.5-1.3-.5-1.3-.2-.8-.3-.9-.3-1-.5-1.6a27.7 27.7 0 01-.4-1.5l-.2-.7-.2-.7-.7-3.5-.3-1.8-.3-1.8-.2-1.8a112.4 112.4 0 01-.6-5.8l-.1-2.2-.2-2.2v-.8-1.7l-.1-4.8c0-5.5.3-16.9.8-30.4l-1.8-.2 1.8.2v-1l1.7-37.9.1-1.9 1.2-19.9c.4-6.2 1.2-14.7 2.2-24.8l.1-1c2.9-28 8.2-67.6 16-102.8l7.5-34.2-12.5-1.3-3.4-.3a617.3 617.3 0 01-75.3-13 583 583 0 01-7.6 123.7v.2a5.5 5.5 0 01-.1.7v.2a166.3 166.3 0 01-2 9.7c-4.7 21.2-16 36.2-27.1 48.3l-.2.2a6.7 6.7 0 00-.5.6l-.1.1c-2.7 3-5.4 5.7-8 8.3l-7 7.3c-6.5 7.2-11 13.5-11 20.2 0 12 10.4 23 23.6 37.1 18 19.1 40.2 43 51.6 82.4 6.4 22.3 15.5 24.3 40 24.3h12.2l5.8-.3 3-.1 2.9-.1 5.7-.4a347.8 347.8 0 0013.1-1l2.1-.3 2-.2 2.8-.3 4-.6 3.8-.6 2.4-.4 1.5-.3 2.1-.4 1.9-.4 4.2-1 .9-.3 1.3-.5.7-.2 1.2-.4.8-.3.3-.1.6-.3.5-.2a17.2 17.2 0 001.2-.7l.4-.2a10.7 10.7 0 00.6-.4l.6-.5.4-.3a2.6 2.6 0 00.3-.3 3.5 3.5 0 001-2.4c-.2-8.2-14.9-12.7-26.4-16.4zM52.2 663l-3.6-3.7 3.6 3.7zm22 18.7a150.2 150.2 0 0053.8 20.5 149.1 149.1 0 01-53.8-20.6z" fill="#a5d6af"/><path d="M204.5 10a457 457 0 00-66.9 6.1C102.7 22.2 85 31.4 85 43.5c0 10 6.9 36.8 14.9 67.7 9.3 36 19.8 76.9 19.8 94.4 0 20.3-10.7 41-22 62.8-13.3 25.7-28.4 54.9-28.4 88.8 0 31.7 1.6 58 2.9 81.2 1.1 18.6 2.1 34.6 2.1 50.2a544 544 0 01-10.3 111c-5.7 26-22 42.6-35 56-10.6 10.9-19 19.5-19 29.7 0 13.1 10.8 24.6 24.4 39.2 17.7 18.9 39.7 42.4 50.9 81.2 7 24.1 17.8 26.5 42.8 26.5 13.9 0 83.5-.8 83.5-16.7 0-10.3-15.1-15-28.5-19.2a89.7 89.7 0 01-12.7-4.5l-2.4-1.2c-10.6-5.1-26.6-12.9-26.6-56.3 0-13.9 2.1-66.9 3.8-90.9a1000 1000 0 0118.3-128.1l34-158.7c2.2-10.7 4.2-23.2 6.2-35.3 4.3-26.5 8.7-53.9 15.7-67.3 2-3.9 4.1-7.7 6.2-11.4 8.7-15.6 17-30.4 17-51.7a928.3 928.3 0 0110.7-140.6 190 190 0 002.3-19.7C255.7 10 219.8 10 204.5 10zm47.4 29l-1.5 10.8c-1.9 13.2-4.5 31.9-6.8 55.7l-.1 1a907.3 907.3 0 00-3.8 84.4c0 20.5-8.1 35-16.6 50.2l-.9 1.6-.5.9c-1.6 2.9-3.3 5.9-4.8 8.9-7.2 13.9-11.7 41.5-16 68.2l-6.1 34.9a.3.3 0 010 0 .3.3 0 010 .3c-.2.2-.2.5-.3.7v0l-26 122.6a.3.3 0 000 0l-.2 1v0l-7.5 34.2a962.2 962.2 0 00-16 102.7.4.4 0 010 .1l-.1 1v0l-2.2 24.8-1.2 20-.1 1.8-1.7 38v1l-.8 30.3v4.8l.1 1.7v.8l.1 2.2.2 2.2a113.5 113.5 0 00.6 5.7l.2 1.9.3 1.8.3 1.8a71.7 71.7 0 00.9 4.2l.2.7.4 1.5.4 1.7.3.9.3.9a8.9 8.9 0 01.3.8l.5 1.3.5 1.3.5 1.1a27.8 27.8 0 00.8 1.8 10 10 0 00.4.8l.8 1.5.2.4a10.2 10.2 0 00.5.9l.5.8.6.9.6.8.4.6.2.3.3.3.4.6.9 1 .7.7q1 1.2 2.2 2.3a26 26 0 001.6 1.4 54.4 54.4 0 0011 6.5l2.4 1.1c3.2 1.7 8 3.1 13.2 4.7 11.7 3.6 26.4 8.2 26.4 16.3a3.6 3.6 0 01-1.2 2.5 2.6 2.6 0 01-.3.3l-.3.4-.6.4a10.7 10.7 0 01-.7.4l-.4.3a17.2 17.2 0 01-1.2.6l-.5.2-.5.3h-.4l-.8.4-1.2.4-.6.2-1.4.5-.9.2-4.2 1.1-1.8.4-2.1.4-1.6.3-2.4.5a168.1 168.1 0 01-3.8.5l-4 .6-2.7.3-2 .2-2.1.3a347.8 347.8 0 01-13.2 1l-5.7.4-3 .1-2.8.1-6 .2-4 .1h-8.1c-24.4 0-33.5-2-40-24.3C77.2 765 54.9 741.1 37 722c-13.3-13.9-23.7-25-23.7-36.9 0-6.8 4.5-13 11-20.2l7.1-7.3 8-8.2v-.2a6.7 6.7 0 01.6-.6l.1-.2a103.4 103.4 0 0029.1-58v-.2a5.5 5.5 0 00.2-.7v-.1a.8.8 0 010-.2 583 583 0 007.6-123.7v-1.2L75.4 438a1281 1281 0 01-3-81c0-4.5.4-8.7.8-13v-.2-.8a.5.5 0 000-.1c3.4-27 15.5-50.5 27.3-73.3 7.4-14.4 14.6-28.3 18.7-42l.2-1v0a74.9 74.9 0 003.3-21.2c0-16.4-8.9-52.3-17.5-86v0a7 7 0 01-.3-1v0l-2.1-8.1C95.2 80.9 88 53.1 88 43.4c0-5 4.1-9.3 11-13l2-1c25.4-12.2 80.9-16.5 103.6-16.5 22.4 0 48.2 2 48.2 17.5 0 1.8-.4 4.7-.9 8.6zm-49.1 781.7l.2-.2z" stroke="#000"/><path d="M144.6 476.1a907.5 907.5 0 01-43.4-6.7l-22-4-2.5-44.6c-4.5-77.4-2.5-89.7 22.9-143.3 13.2-28 22.9-53.6 24.1-63.9 1.6-13.4-2-33.8-16.6-93.6L88.5 43.5l9.2-8c5-4.3 18.4-9.9 29.8-12.4 27.3-6.1 113.2-6.5 119.2-.5 3.5 3.4 3.4 11.6-.2 39.2-2.5 19.2-5.8 60.3-7.3 91.4-2.6 55.8-2.8 56.8-15.6 81.4-9.1 17.4-15.2 36.3-20.3 63A10964 10964 0 01166.7 477c-.4 1-10.3.7-22.1-.8z" fill="#fff"/></svg>