<svg xmlns="http://www.w3.org/2000/svg" width="265.6" height="842.2"><path d="M203 820.5l-.2.2zm5.7-5.2a3.5 3.5 0 01-1 2.4 2.6 2.6 0 01-.4.3 4 4 0 01-.3.3l-.5.4-.4.2-.3.2-.4.3-.6.3h-.2l-.4.3-.5.3-.6.2-.3.1-.8.3-1.2.5-.7.2-1.4.4-.8.3-4.2 1-1.9.4-2 .5-1.6.3-2.4.4-3.8.6-4 .5-2.8.3-2 .3-2.1.2a347.8 347.8 0 01-13.1 1l-5.8.4-2.9.1-2.9.2-5.9.2h-12.2c-24.4 0-33.5-2-39.9-24.2C77 765 54.7 741.2 36.8 722c-13.2-14-23.6-25.1-23.6-37 0-6.8 4.5-13 11-20.2l7.1-7.3 8-8.2v-.2a6.7 6.7 0 01.6-.6l.1-.2a103.4 103.4 0 0029.1-58l75.5 27.8-2.2 24.8v1.6l-.2 1.6v1.2l-.1 1v.2l-.1 1v1.3c0 .4 0 .8-.2 1.2v1.3l-.1 1.3v1.3c0 .4 0 .9-.2 1.3v1.3l-.1 1.4v1.4l-.2 1.4v1.9l-1.8 37.9v1l-1.8-.2 1.8.2-.8 30.4v4.8l.1 1.7v.7l.2 2.3.1 2.2a113.5 113.5 0 00.6 5.7l.3 1.9.2 1.8.3 1.7a71.7 71.7 0 001 4.3v.7a28 28 0 00.5 1.5l.5 1.7.3.9.3.9c.2.3.1.5.2.8l.5 1.3.5 1.3.5 1.1a27.8 27.8 0 00.8 1.7 10 10 0 00.4.8l.8 1.6.2.4a10.2 10.2 0 00.5.9l.5.8.6.9.6.8.5.6.2.3a18.3 18.3 0 00.7.9l.8 1 .7.7q1 1.2 2.2 2.3a26 26 0 001.6 1.4A53.9 53.9 0 00167 793l2.3 1.1c3.2 1.7 8 3.1 13.2 4.7 11.5 3.9 26.2 8.4 26.2 16.5z" fill="#a5d6af"/><path d="M204.5 10a457 457 0 00-66.9 6.1C102.7 22.2 85 31.4 85 43.5c0 10 6.9 36.8 14.9 67.7 9.3 36 19.8 76.9 19.8 94.4 0 20.3-10.7 41-22 62.8-13.3 25.7-28.4 54.9-28.4 88.8 0 31.7 1.6 58 2.9 81.2 1.1 18.6 2.1 34.6 2.1 50.2a544 544 0 01-10.3 111c-5.7 26-22 42.6-35 56-10.6 10.9-19 19.5-19 29.7 0 13.1 10.8 24.6 24.4 39.2 17.7 18.9 39.7 42.4 50.9 81.2 7 24.1 17.8 26.5 42.8 26.5 13.9 0 83.5-.8 83.5-16.7 0-10.3-15.1-15-28.5-19.2a89.7 89.7 0 01-12.7-4.5l-2.4-1.2c-10.6-5.1-26.6-12.9-26.6-56.3 0-13.9 2.1-66.9 3.8-90.9a1000 1000 0 0118.3-128.1l34-158.7c2.2-10.7 4.2-23.2 6.2-35.3 4.3-26.5 8.7-53.9 15.7-67.3 2-3.9 4.1-7.7 6.2-11.4 8.7-15.6 17-30.4 17-51.7a928.3 928.3 0 0110.7-140.6 190 190 0 002.3-19.7C255.7 10 219.8 10 204.5 10zm47.7 26.3l-.2 1.9-.1.8-1.5 10.8c-1.9 13.1-4.5 31.8-6.8 55.6l-.1 1a907.3 907.3 0 00-3.8 84.4c0 20.5-8.1 35-16.6 50.2l-.9 1.6-.5 1c-1.6 2.8-3.3 5.8-4.8 8.8-7.2 14-11.7 41.5-16 68.2l-6.1 35a.3.3 0 010 0 .3.3 0 010 .2c-.2.2-.2.5-.3.7v.1l-26 122.5a.3.3 0 000 .1l-.2.9v.1l-7.5 34.2a962.2 962.2 0 00-16 102.7.4.4 0 010 .1l-.1.9v.1l-2.2 24.8v1.6h0l-.2 1.6v1.2l-.1 1v.2l-.1 1v1.3l-.1 1.2v0l-.1 1.3v.1l-.1 1.2v1.3l-.1 1.3-.1 1.3-.1 1.4v1.4l-.1 1.4-.2 1.9-1.7 37.9v1l-.8 30.4.1 4.8v2.4l.2 2.3.1 2.2a113.5 113.5 0 00.6 5.7l.3 1.8.2 1.9.3 1.7a71.7 71.7 0 001 4.3l.1.7.4 1.5.5 1.6.3 1 .3.9a8.9 8.9 0 01.3.8l.4 1.3.5 1.3.5 1a27.8 27.8 0 00.8 1.8 10 10 0 00.4.8l.8 1.6.3.4a10.2 10.2 0 00.5.8l.5.8.5 1 .6.8.5.6.2.3.2.2.5.7.8 1 .7.7q1 1.2 2.2 2.2a26 26 0 001.6 1.5 54.4 54.4 0 0011.1 6.5l2.3 1.1c3.2 1.7 8 3.1 13.2 4.7 11.7 3.6 26.4 8.2 26.4 16.3a3.6 3.6 0 01-1.1 2.5 2.6 2.6 0 01-.3.3 4 4 0 01-.4.3l-.5.4-.4.3-.3.2-.4.2-.6.3-.2.1-.4.2-.5.3-.6.2-.2.1h-.1l-.8.3-1.2.5-.7.2-1.3.4-1 .3q-2 .6-4.1 1l-1.9.5-2 .4-1.6.3-2.4.4a168.1 168.1 0 01-3.8.6l-4 .5-2.7.4-2.1.2-2 .2a347.8 347.8 0 01-13.2 1l-5.7.4-3 .2h-2.9l-5.8.3H128.4c-24.4 0-33.5-2-39.9-24.2C77.1 764.8 54.8 741 37 721.9 23.6 708 13.2 697 13.2 685c0-6.8 4.5-13 11-20.2l7.1-7.3 8-8.2v-.2a6.7 6.7 0 01.6-.6l.1-.2a103.4 103.4 0 0029.1-58v-.2a5.5 5.5 0 00.2-.7v-.1a.8.8 0 010-.2 583 583 0 007.6-123.7v-1.2L75.4 438a1281 1281 0 01-3-81c0-4.5.4-8.7.8-13v-.2-.8a.5.5 0 000-.1c3.4-27 15.5-50.5 27.3-73.3 7.4-14.4 14.6-28.3 18.7-42l.2-1v0a74.9 74.9 0 003.3-21.2c0-16.4-8.9-52.3-17.5-86v0a7 7 0 01-.3-1v0l-2.1-8.1C95.2 80.9 88 53.1 88 43.4c0-4.3 3-8 8-11.3l1.2-.6 1-.6.8-.4 2-1 1.3-.6 1.2-.6c26.3-11.3 79-15.4 101-15.4 22.5 0 48.3 2 48.3 17.5 0 1.4-.3 3.4-.6 6zm-49.4 784.4l.2-.2z" stroke="#000"/><path d="M105.5 602.6l-33.3-12.8 3-20c1.5-11 2.9-71.3 3-134V321.4l22.7-47.6c28.5-60 28.7-65.5 6-156.8C98 81 90.7 48.5 90.7 44.6c0-15.5 49.9-28.1 111.1-28.2 27.6 0 36 1.3 42 6.3 7.4 6.1 7.4 6.7 2.2 45.5-3 21.6-6.4 62.3-7.7 90.6-2.4 50-2.8 52-16.2 79.7a245.1 245.1 0 00-21 70c-4.1 22.9-17 86.3-28.6 140.9A2475 2475 0 00147 582.3c-2.3 18.5-5.1 33.5-6.2 33.4-1-.1-17-6-35.3-13z" fill="#fff"/></svg>