<?xml version="1.0" encoding="UTF-8" standalone="no"?><svg xmlns:dc="http://purl.org/dc/elements/1.1/" xmlns:cc="http://creativecommons.org/ns#" xmlns:rdf="http://www.w3.org/1999/02/22-rdf-syntax-ns#" xmlns:svg="http://www.w3.org/2000/svg" xmlns="http://www.w3.org/2000/svg" xmlns:sodipodi="http://sodipodi.sourceforge.net/DTD/sodipodi-0.dtd" xmlns:inkscape="http://www.inkscape.org/namespaces/inkscape" width="265.6" height="842.2" version="1.1" sodipodi:docname="lengths-knee-high-euro.svg" inkscape:version="0.92.4 (5da689c313, 2019-01-14)"><metadata><rdf:RDF><cc:Work rdf:about=""><dc:format>image/svg+xml</dc:format><dc:type rdf:resource="http://purl.org/dc/dcmitype/StillImage"/><dc:title/></cc:Work></rdf:RDF></metadata><defs/><sodipodi:namedview pagecolor="#ffffff" bordercolor="#666666" borderopacity="1" objecttolerance="10" gridtolerance="10" guidetolerance="10" inkscape:pageopacity="0" inkscape:pageshadow="2" inkscape:window-width="1920" inkscape:window-height="1017" showgrid="false" inkscape:zoom="0.56043694" inkscape:cx="-188.09156" inkscape:cy="441.53747" inkscape:window-x="1912" inkscape:window-y="-8" inkscape:window-maximized="1" inkscape:current-layer="svg10" showguides="false"/><path d="M168.4 479.1l26-122.6c.2-.2.2-.5.3-.7a.3.3 0 000-.2.3.3 0 000-.1c2.3-10.6 4.3-23 6.2-34.9 4.3-26.7 8.8-54.3 16-68.2 1.5-3 3.2-6 4.8-8.9l-20-3.6a1387 1387 0 00-76.3-11.4l-6.2-.8c-4 13.7-11.3 27.6-18.7 42C88.8 292.5 76.8 316 73.4 343a.5.5 0 010 .1l-.1.9v.1c-.4 4.3-.7 8.5-.7 13 0 31.6 1.5 57.8 2.9 81l1.5 26.4q7.7 1.9 15.5 3.5-7.9-1.6-15.5-3.4v1a583 583 0 01-7.6 123.7v.2a5.5 5.5 0 01-.1.7v.2a166.3 166.3 0 01-2 9.7c-4.7 21.2-16 36.2-27.1 48.3l-.2.2a6.7 6.7 0 00-.5.6l-.1.1a118.5 118.5 0 0023 24 118 118 0 01-23.1-23.9c-2.7 2.9-5.4 5.7-8 8.2s-4.9 5-7 7.4c-6.5 7-11 13.4-11 20.1 0 12 10.4 23 23.6 37.1 18 19.1 40.2 43 51.6 82.4C95 827 104 829 128.5 829h12.2l5.8-.3h3l2.9-.2 5.7-.3a347.8 347.8 0 0013.1-1.1l2.1-.2 2-.3 2.8-.3 4-.5 3.8-.6 2.4-.5 1.5-.3 2.1-.4 1.9-.4 4.2-1 .9-.3 1.3-.5.7-.2 1.2-.4.8-.3.3-.1.6-.3.5-.2a17.2 17.2 0 001.2-.6l.4-.3a10.7 10.7 0 00.6-.4l.6-.4.4-.4a2.6 2.6 0 00.3-.3 3.5 3.5 0 001-2.4c0-8-14.7-12.6-26.2-16.3-5.2-1.6-10-3-13.2-4.7a46 46 0 01-2.3-1 53.9 53.9 0 01-11.3-7 35.4 35.4 0 01-1.6-1.3q-1.1-1-2.2-2.3l-.7-.7-.9-1a26.4 26.4 0 01-.9-1.2l-.4-.6-.6-.8-.6-1-.5-.7-.5-.9-.3-.4a36.4 36.4 0 01-.8-1.6 15 15 0 01-.4-.8 27.8 27.8 0 01-.8-1.7l-.4-1.1-.5-1.3-.5-1.3c0-.3-.2-.5-.3-.8l-.3-.9-.3-1-.4-1.6a27.7 27.7 0 01-.4-1.5l-.2-.7-.2-.7-.7-3.5-.3-1.8-.3-1.8-.2-1.9a112.4 112.4 0 01-.6-5.7l-.2-2.2v-3l-.1-1.7-.1-4.8c0-5.5.3-17 .8-30.4v-1l1.7-37.9.1-1.9 1.2-19.9c.4-6.2 1.2-14.7 2.2-24.8v-1c3-28 8.3-67.6 16-102.8l7.6-34.2-12.5-1.3 12.5 1.3.1-1-12.5-1.3 12.5 1.3a.3.3 0 010-.1zM48.6 659.3a138.2 138.2 0 003.6 3.7l-3.6-3.7zm21 19.4l4.5 2.9q-2.3-1.4-4.5-3zM185.4 356l-19.2-1.3 19.2 1.3z" fill="#a5d6af"/><path d="M204.5 10a457 457 0 00-66.9 6.1C102.7 22.2 85 31.4 85 43.5c0 10 6.9 36.8 14.9 67.7 9.3 36 19.8 76.9 19.8 94.4 0 20.3-10.7 41-22 62.8-13.3 25.7-28.4 54.9-28.4 88.8 0 31.7 1.6 58 2.9 81.2 1.1 18.6 2.1 34.6 2.1 50.2a544 544 0 01-10.3 111c-5.7 26-22 42.6-35 56-10.6 10.9-19 19.5-19 29.7 0 13.1 10.8 24.6 24.4 39.2 17.7 18.9 39.7 42.4 50.9 81.2 7 24.1 17.8 26.5 42.8 26.5 13.9 0 83.5-.8 83.5-16.7 0-10.3-15.1-15-28.5-19.2a89.7 89.7 0 01-12.7-4.5l-2.4-1.2c-10.6-5.1-26.6-12.9-26.6-56.3 0-13.9 2.1-66.9 3.8-90.9a1000 1000 0 0118.3-128.1l34-158.7c2.2-10.7 4.2-23.2 6.2-35.3 4.3-26.5 8.7-53.9 15.7-67.3 2-3.9 4.1-7.7 6.2-11.4 8.7-15.6 17-30.4 17-51.7a928.3 928.3 0 0110.7-140.6 190 190 0 002.3-19.7C255.7 10 219.8 10 204.5 10zm47.4 29l-1.5 10.8c-1.9 13.2-4.5 31.9-6.8 55.7l-.1 1a907.3 907.3 0 00-3.8 84.4c0 20.5-8.1 35-16.6 50.2l-.9 1.6-.5.9c-1.6 2.9-3.3 5.9-4.8 8.9-7.2 13.9-11.7 41.5-16 68.2l-6.1 34.9a.3.3 0 010 0 .3.3 0 010 .3c-.2.2-.2.5-.3.7v0l-26 122.6a.3.3 0 000 0l-.2 1v0l-7.5 34.2a962.2 962.2 0 00-16 102.7.4.4 0 010 .1l-.1 1v0l-2.2 24.8-1.2 20-.1 1.8-1.7 38v1l-.8 30.3v4.8l.1 1.7v.8l.1 2.2.2 2.2a113.5 113.5 0 00.6 5.7l.2 1.9.3 1.8.3 1.8a71.7 71.7 0 00.9 4.2l.2.7.4 1.5.4 1.7.3.9.3.9a8.9 8.9 0 01.3.8l.5 1.3.5 1.3.5 1.1a27.8 27.8 0 00.8 1.8 10 10 0 00.4.8l.8 1.5.2.4a10.2 10.2 0 00.5.9l.5.8.6.9.6.8.4.6.2.3.3.3.4.6.9 1 .7.7q1 1.2 2.2 2.3a26 26 0 001.6 1.4 54.4 54.4 0 0011 6.5l2.4 1.1c3.2 1.7 8 3.1 13.2 4.7 11.7 3.6 26.4 8.2 26.4 16.3a3.6 3.6 0 01-1.2 2.5 2.6 2.6 0 01-.3.3l-.3.4-.6.4a10.7 10.7 0 01-.7.4l-.4.3a17.2 17.2 0 01-1.2.6l-.5.2-.5.3h-.4l-.8.4-1.2.4-.6.2-1.4.5-.9.2-4.2 1.1-1.8.4-2.1.4-1.6.3-2.4.5a168.1 168.1 0 01-3.8.5l-4 .6-2.7.3-2 .2-2.1.3a347.8 347.8 0 01-13.2 1l-5.7.4-3 .1-2.8.1-6 .2-4 .1h-8.1c-24.4 0-33.5-2-40-24.3C77.2 765 54.9 741.1 37 722c-13.3-13.9-23.7-25-23.7-36.9 0-6.8 4.5-13 11-20.2l7.1-7.3 8-8.2v-.2a6.7 6.7 0 01.6-.6l.1-.2a103.4 103.4 0 0029.1-58v-.2a5.5 5.5 0 00.2-.7v-.1a.8.8 0 010-.2A583 583 0 0077 465.5v-1.2L75.4 438a1281 1281 0 01-3-81c0-4.5.4-8.7.8-13v-1a.5.5 0 000-.1c3.4-27 15.5-50.5 27.3-73.3 7.4-14.4 14.6-28.3 18.7-42l.2-1v0a74.9 74.9 0 003.3-21.2c0-16.4-8.9-52.3-17.5-86v0a7 7 0 01-.3-1v0l-2.1-8.1C95.2 80.9 88 53.1 88 43.4c0-5 4.1-9.3 11-13l2-1c25.4-12.2 80.9-16.5 103.6-16.5 22.4 0 48.2 2 48.2 17.5 0 1.8-.4 4.7-.9 8.6zm-49.1 781.7l.2-.2z" stroke="#000"/><path d="M182 235.8a2094 2094 0 00-43.2-6.9l-16.5-2.2 1.7-15.2c1.2-10.8-3.7-37.4-16.9-91.6L88.5 43.5l9.2-8c5-4.3 18.4-9.9 29.8-12.4 27.3-6.1 113.2-6.5 119.2-.5 3.5 3.4 3.4 11.6-.2 39.2-2.5 19.2-5.8 59.8-7.2 90.2-2.1 44.5-4 58.7-10.1 72.3-8.4 18.9-6.8 18.5-47.2 11.5z" fill="#ebffff"/><path d="M175 235.5c-58.5-9.4-51.8-5.4-52.1-30.8-.2-13.8-6.8-49-17.3-91.8l-17-69.4 9-8c5.1-4.3 18.5-10 29.9-12.5 26.8-6.1 113.2-6.4 119.2-.5 3.4 3.4 3.3 12.3-.2 41a1569 1569 0 00-7.2 90.4c-2.1 42.5-4.2 57.1-10.1 70.5-8.5 19.1-6.7 18.8-54.3 11z" fill="#fff"/><path style="fill:#82c3a9;fill-opacity:1" d="M119.2 227.7c-4 13.7-11.3 27.6-18.7 42A383.7 383.7 0 0082 309.4l119 10.4c4.3-26.5 8.8-53.6 15.9-67.4 1.5-3 3.2-6 4.8-8.9l-20-3.6a1387 1387 0 00-76.3-11.4z" inkscape:connector-curvature="0"/></svg>