<svg xmlns="http://www.w3.org/2000/svg" width="265.6" height="842.2"><path d="M208.7 815.3a3.5 3.5 0 01-1 2.4 2.6 2.6 0 01-.4.3c-7.6 7.1-44.3 10.9-79 10.9-24.4 0-33.5-2-39.9-24.3-11.4-39.5-33.7-63.3-51.6-82.4-13.2-14.1-23.6-25.2-23.6-37.1 0-6.8 4.5-13 11-20.2l7.1-7.3 8-8.2a118 118 0 0023 23.9q3.6 2.8 7.3 5.4l4.5 2.9a149.1 149.1 0 0054 20.6 125.3 125.3 0 003.8.6l2.5.3 3.1.4h.1l1.8.2-.8 30.4c0 27 6 40.9 13.4 48.8q1 1.2 2.2 2.2a49.4 49.4 0 0012.8 8.1l2.3 1.1c3.2 1.7 8 3.1 13.2 4.7 11.5 3.7 26.2 8.2 26.2 16.3z" fill="#a5d6af"/><path d="M202.8 820.7l.2-.2zm0 0zM204.5 10a457 457 0 00-66.9 6.1C102.7 22.2 85 31.4 85 43.5c0 10 6.9 36.8 14.9 67.7 9.3 36 19.8 76.9 19.8 94.4 0 20.3-10.7 41-22 62.8-13.3 25.7-28.4 54.9-28.4 88.8 0 31.7 1.6 58 2.9 81.2 1.1 18.6 2.1 34.6 2.1 50.2a544 544 0 01-10.3 111c-5.7 26-22 42.6-35 56-10.6 10.9-19 19.5-19 29.7 0 13.1 10.8 24.6 24.4 39.2 17.7 18.9 39.7 42.4 50.9 81.2 7 24.1 17.8 26.5 42.8 26.5 13.9 0 83.5-.8 83.5-16.7 0-10.3-15.1-15-28.5-19.2a89.7 89.7 0 01-12.7-4.5l-2.4-1.2c-10.6-5.1-26.6-12.9-26.6-56.3 0-13.9 2.1-66.9 3.8-90.9a1000 1000 0 0118.3-128.1l34-158.7c2.2-10.7 4.2-23.2 6.2-35.3 4.3-26.5 8.7-53.9 15.7-67.3 2-3.9 4.1-7.7 6.2-11.4 8.7-15.6 17-30.4 17-51.7a928.3 928.3 0 0110.7-140.6 190 190 0 002.3-19.7C255.7 10 219.8 10 204.5 10zm47.4 29l-1.5 10.8c-1.9 13.2-4.5 31.9-6.8 55.7l-.1 1a907.3 907.3 0 00-3.8 84.4c0 20.5-8.1 35-16.6 50.2l-.9 1.6-.5.9c-1.6 2.9-3.3 5.9-4.8 8.9-7.2 13.9-11.7 41.5-16 68.2l-6.1 34.9a.3.3 0 010 0 .3.3 0 010 .3c-.2.2-.2.5-.3.7v0l-26 122.6a.3.3 0 000 0l-.2 1v0l-7.5 34.2a962.2 962.2 0 00-16 102.7.4.4 0 010 .1l-.1 1v0l-2.2 24.8-1.2 20-.1 1.8-1.7 38v1l-.8 30.3v4.8l.1 1.7v.8l.1 2.2.2 2.2c0 1.4.2 2.7.4 4l.2 1.8.2 1.8.3 1.8.3 1.8a71.7 71.7 0 00.9 4.2l.2.7.4 1.5.4 1.7.3 1 .3.8a8.9 8.9 0 01.3.9l.5 1.2.5 1.3.5 1.1a39.8 39.8 0 00.8 1.8l.4.8.8 1.5.2.5 1 1.6.6.9.6.9.4.6.5.5.4.6.9 1 .7.8q1 1.2 2.2 2.2a26 26 0 001.6 1.4 54.4 54.4 0 0011 6.6l2.4 1c3.2 1.8 8 3.2 13.2 4.8 11.7 3.6 26.4 8.2 26.4 16.3a3.6 3.6 0 01-1.2 2.5 2.6 2.6 0 01-.3.3l-.2.2a.1.1 0 01-.1 0 11.2 11.2 0 01-1.3 1l-.4.2-.7.4-.5.2-.5.3-.5.2-.3.1h0l-.8.3h-.2l-1 .5-.7.2-1.4.4-.9.3-4.2 1-1.8.4-2.1.5-1.6.3-4.9.8-5.2.7-2.8.3-2 .3-2.1.2-7.6.7-3 .2-2.5.2-5.8.3-2.9.1-2.9.2h-2l-2.4.1h-1.4l-4.1.1h-8.2c-24.4 0-33.5-2-39.9-24.3C77.1 765 54.8 741.1 37 722c-13.3-13.9-23.7-25-23.7-36.9 0-6.7 4.5-13 11-20.2l7.1-7.3 8-8.2v0-.2a6.7 6.7 0 01.6-.6l.1-.2a103.4 103.4 0 0029.1-58v-.2a5.5 5.5 0 00.2-.7v-.1a.8.8 0 010-.2 583 583 0 007.6-123.6v-1.3l-1.5-26.2a1281 1281 0 01-3-81c0-4.4.4-8.7.8-13v-.1-.9a.5.5 0 000-.1c3.4-27 15.5-50.5 27.3-73.3 7.4-14.4 14.6-28.3 18.7-42l.2-.9v-.1a74.9 74.9 0 003.3-21.2c0-16.4-8.9-52.2-17.5-86v0a7 7 0 01-.3-1v0l-2.1-8C95.2 80.8 88 53 88 43.4c0-5 4.1-9.4 11-13l2-1c25.4-12.3 80.9-16.6 103.6-16.6 22.4 0 48.2 2 48.2 17.5 0 1.8-.4 4.8-.9 8.6zm-49.2 781.7zm0 0z" stroke="#000"/><path d="M100.3 692.5a129.1 129.1 0 01-49.2-32.2l-8.6-9.2 9.7-14c22.4-32.3 28.7-83.6 25.2-205.6-2.9-102.7-3.2-101 26.1-164 25.6-54.7 25.7-59.8 2.6-152.9C88.8 44.8 88.7 44 95.5 37.1c12-11.9 48.9-19.1 98.7-19.4 60.3-.3 58.2-2.6 51.3 55.3-2.9 24.4-6.3 65.3-7.7 90.8-2.3 44.1-3 47.8-16.1 75-10.7 22.2-15.7 39.8-23 80-5 28.4-17 87.8-26.5 132-19.7 91.8-27.6 138.8-30.5 182.3-4.3 64-5 67.8-13.6 67.7-4.3 0-16.8-3.8-27.8-8.3z" fill="#fff"/></svg>