<svg xmlns="http://www.w3.org/2000/svg" id="Stirrup_Pttn_F" data-name="Stirrup Pttn#F" viewBox="0 -150 483.763 915.392" version="1.1" width="483.763" height="915.392"><defs id="defs7"><clipPath id="clip-path"><path class="cls-1" d="M291.92 725.27c23.67 14.67 32.79 31.51 50.33 93.34 7 24.66 46.67 27.66 70.34 27.66 42.16 0 54.59-4.86 84-14.66 12-4 26.66-27 15-39.67-3.91-4.24-10.52-8.92-18.9-13.35-6.74-3.58-9.94-2.38-18.87-7.32-12.31-6.8-31.38-1.06-32.9-2.66-14.6-15.4-21.81-44-29.33-65.67-9.8-28.2-17.11-51.83-19-57.33-4-11.67 3.94-46 12.66-66.67C422 539.18 457 493.13 488.44 452.63c15.46-19.94 30-38.52 41.15-54.36 53-75.54 87.66-136.66 111.66-176.66 12-20 11.44-17.15 23-37.67 13.34-23.67 20-39.28 7-60-28-44.67-71-63-84.66-68.67-23.42-9.71-44.55-10.64-64 10.34-25.34 27.33-29.79 35.89-35 44-9 14-19.67 29-28.34 45.66-25.81 49.64-26.87 81.93-45.33 114.67-19.16 34-53 107.67-100.67 217.67-9.9 22.86-16.73 40.66-53.66 70.33-18.67 15-96 81.67-51.34 120.33 32.75 28.33 63.46 34.48 83.67 47z" id="path2"/></clipPath><style id="style5">.cls-1{fill:none}</style></defs><path id="Foot_Color" data-name="Foot Color" d="M65.027 442.598c36.93-29.68 43.76-47.48 53.66-70.33 17.95-41.42 42.16-95.65 56.14-126.58 1.11-2.45 37.1 34.8 40.82 36.59a328.85 328.85 0 0153 32.08c8.91 7.16 33.51-6.06 41.5 2.06-8.89 11.51-34 43.85-42.69 55.52-14.37 19.29-28.28 39-40.46 59.78a273.87 273.87 0 00-16.27 31.88c-8.72 20.7-16.66 55-12.66 66.67 1.89 5.5 9.2 29.13 19 57.33 7.48 21.63 14.69 50.27 29.29 65.63 1.52 1.6 20.58-4.14 32.9 2.66 8.93 4.94 12.13 3.74 18.87 7.32 8.38 4.43 15 9.1 18.9 13.35 11.66 12.67-3 35.67-15 39.67-29.41 9.8-41.84 14.66-84 14.66-23.67 0-63.34-3-70.34-27.66-17.54-61.83-26.66-78.67-50.33-93.34-20.22-12.52-50.94-18.67-83.67-47-44.66-38.66 32.67-105.29 51.34-120.29z" fill="#fff"/><g clip-path="url(#clip-path)" id="g13" transform="translate(-194.553 -115.772)"><path id="Welt_seam" data-name="Welt seam" d="M650.09 207.71a.74.74 0 00.53-.21c2.17-2.24.92-7.31-.52-11.18-9.24-24.9-59.22-86.1-147.49-105.8a.7.7 0 00-.84.43.6.6 0 00.49.72C590 111.25 639.62 172 648.79 196.68c1.86 5 2.14 8.66.78 10.06a.53.53 0 00.08.83.79.79 0 00.44.14" fill="#999"/><path id="Outline" d="M291.92 725.27c23.67 14.67 32.79 31.51 50.33 93.34 7 24.66 46.67 27.66 70.34 27.66 42.16 0 54.59-4.86 84-14.66 12-4 26.66-27 15-39.67-3.91-4.24-10.52-8.92-18.9-13.35-6.74-3.58-9.94-2.38-18.87-7.32-12.31-6.8-31.38-1.06-32.9-2.66-14.6-15.4-21.81-44-29.33-65.67-9.8-28.2-17.11-51.83-19-57.33-4-11.67 3.94-46 12.66-66.67 25-59.33 90.67-132.67 124.34-180.67 53-75.54 87.66-136.66 111.66-176.66 12-20 11.44-17.15 23-37.67 13.34-23.67 20-39.28 7-60-28-44.67-71-63-84.66-68.67-23.42-9.71-44.55-10.64-64 10.34-25.34 27.33-29.79 35.89-35 44-9 14-19.67 29-28.34 45.66-25.81 49.64-26.87 81.93-45.33 114.67-19.16 34-53 107.67-100.67 217.67-9.9 22.86-16.73 40.66-53.66 70.33-18.67 15-96 81.67-51.34 120.33 32.75 28.33 63.46 34.48 83.67 47z" stroke-miterlimit="10" fill="none" stroke="#111820" stroke-width="12"/><path id="Box" class="cls-1" d="M-39.8 0h912.62v919.44H-39.8z" fill="none"/></g><path d="M38.447 580.358c15.67-27.37 79-136.64 95.22-163.67 8.6-14.32 17.65-28.83 25.37-43.61 4.86-9.28 11.84-16.81 13.47-27.5 1.57-10.37-1.06-21-3.86-31-2.44-8.62-8.51-22.61-9.5-34.6 0 0-4.07-9.24 1.38-15.36 5.45-6.12 39.56-71.7 39.56-71.7 8.55-17.8 15.82-32.58 19.33-38.8 18.46-32.74 19.52-65 45.33-114.67 8.67-16.66 19.34-31.66 28.34-45.66 5.21-8.11 9.66-16.67 35-44 19.45-21 40.58-20 64-10.34 13.66 5.67 56.66 24 84.66 68.67 13 20.72 6.34 36.33-7 60-11.56 20.52-11 17.71-23 37.67-23.88 39.8-58.35 100.53-110.9 175.57-52.55 75.04-40.4 58.37-40.73 60.75-.33 2.38-2.38 6.54-10.55 6.85-14.41 4.41-28.87 7.44-41.52 11-13 3.7-28.68 7.66-35.9 20.24-2.23 3.9-4.44 7.77-6.78 11.68-18.69 31.35-36.38 63.29-54.92 94.69-6.62 11.21-59.44 102.55-66 113.82 0 0-1 2.83-4.81 1-3.81-1.83-35.36-17.87-35.36-17.87s-1.76-1.64-.83-3.16z" id="path15" fill="#a6d7b0"/></svg>