<svg
  xmlns="http://www.w3.org/2000/svg"
  viewBox="0 0 661.7 527.5"
  data-layout="base"
  version="1.1"
  xmlns:xlink="http://www.w3.org/1999/xlink"
  class="svg-template shadow-applied"
  data-upright="true"
>
  <path
    d="M439.4 94.4a593.6 593.6 0 0 1-3.7 30.8l-.6 4.5-2.8 17.6c-.6 3.5-1 6.3-1.5 8.4l-1.6 9.3a931 931 0 0 0-7.2 51l-.2 2a1657.7 1657.7 0 0 0-9.2 100.1c-.6 13.5-.6 23.7.3 28.2 2.9 13.8.3 25.7.2 29.2s3.7 54.6 9.7 72.5c5.2 15.7 7 40-.6 48.2-5.7 6.2-18.7 6.2-23.2 6.2s-41 1.2-52.2-4.3-5.8-34.7-3.3-43.9 5.7-50.5 5.6-54c-.3-5.8 1.6-17.6 2.3-21s-3.1-11.8.9-23.4c2-5.8 1-22.2-.9-38.7l-1-8.1a4800.7 4800.7 0 0 1-12.7-91l-.4-3.1-2-14.6-2.3-17.7-2.4-17.6-2.4-17.7-1-8.1c-.5-3.3-1-6.4-1.3-9.5l-2.4-17.7-2.4-17.6-.8-5.3a182.5 182.5 0 0 1 1-46.1c.1-1.3-1.4-5-1.2-6 .7-4.8 1.7-9.7 2.8-14.5l1.6-6a2 2 0 0 1 1.9-1.5H434a2 2 0 0 1 2 1.5v.1l1.4 5.8c1 4 2.2 9 3.3 14.6.3 1-1 4.7-.9 6 .4 2.6.7 5.4.8 8.4.8 12.4 0 27.8-1.3 43Z"
    class="part-body view-front leg-left color1"
    filter="url(#a)"
    fill="#f5f5f5"
    style="fill: rgb(245, 245, 245)"
  ></path>
  <path
    d="M249.3 112.1a270.4 270.4 0 0 1-3 35.3 399 399 0 0 1-6.8 35.3l-4.2 17.7-.5 1.9a695.4 695.4 0 0 0-17.8 121v.3a131 131 0 0 0 4 39.6c6.3 25.9 11 39.3-2.2 48.4a43.7 43.7 0 0 1-9.1 4.5c-27.8 10.7-48.6 16.5-67.4 38-11.1 13-17.8 11.2-22.8 11.2-8.5 0-73-3-87.7-5.3s-34.3-18.2 12.9-31.7c4.6-1.3 13.8-1.5 25.6-9.7s51.3-52 63.7-66c19.4-21.9 12.4-95 7.2-117.4-1-4.5-2.1-10.4-3.1-17.2a570.1 570.1 0 0 1-4.1-35.3l-1.6-17.6a1396.9 1396.9 0 0 1-4.3-122c0-1.4-1.8-5-1.7-6 .2-5.1.6-9.5 1-13.1l.2-1.3.4-5.7a2 2 0 0 1 2-2h104l2 1.6a166.3 166.3 0 0 0 4.6 17.5l1 2.9c.2.9-.8 4.6-.4 6l1.5 5.7a231.8 231.8 0 0 1 4.5 23.5 250.5 250.5 0 0 1 2 39.9Z"
    class="part-body view-side leg-left color1"
    filter="url(#a)"
    fill="#f5f5f5"
    style="fill: rgb(245, 245, 245)"
  ></path>
  <path
    d="M631.1 46c.7 6 .4 23.4-1.3 45a744.6 744.6 0 0 1-6 53 548.4 548.4 0 0 1-6.6 34.4l-.2.9-1 4.8c-.5 3.5-1.2 7.8-1.8 12.8l-1.7 15.1c0 .9-.2 1.7-.3 2.6-2 20.7-4 46-5 66.7l-.2 2.8c-.8 17.9-1 32 0 36 1.8 8 8 37.8 1.2 58-5.6 16.2-4.6 54.8-1.6 65.7s3.5 39.9-24 42.5-42.5 1-56.2-4c-9.8-3.6-19.8-22.6-9.4-40.8 3-5.2 5.2-18.3 7.6-22.2s.3-9.7 6.8-20.1 6-24.5 4.8-34.1-2.3-19.4-1-28.2c1.1-8 2.8-35.4 2-48.5a49.9 49.9 0 0 0-.6-5.5c-1-8-3.6-33.4-6.8-61.8l-.7-6.6-1.8-16.1-.2-1.5-2.1-17.7-2.3-17.6-2.4-17.7a306.4 306.4 0 0 0-4.3-22.5 87.9 87.9 0 0 1-2.1-12.8c-.6-5-1.1-11-1.5-17.6a360.9 360.9 0 0 1 0-46.8V43c.2-1.4-1.5-5-1.4-6a131.7 131.7 0 0 1 2.3-14.5l1.6-6a2 2 0 0 1 2-1.5h108a2 2 0 0 1 1.8 1.5l1.5 6 .3 1 3.2 13.5c.2 1-1.1 4.7-.9 6l.2 1.2.1 1.7Z"
    class="part-body view-back leg-left color1"
    filter="url(#a)"
    fill="#f5f5f5"
    style="fill: rgb(245, 245, 245)"
  ></path>
  <path
    d="m609.5 373.5-1.4 5.1a57.7 57.7 0 0 0-2.6 12.4c-4.4 6.6-4.2 12.2-6.6 23.5-5.3 25-40.4 19.8-55.2 9-10-7.3-11-19-10.4-27.5 4-8.8 3.9-19.5 3-27.7 21.7-15.7 40.3-27.5 73.2 5.2Z"
    class="part-heel view-back leg-left color2"
    filter="url(#b)"
    fill="#fe5900"
    style="fill: rgb(254, 89, 0)"
  ></path>
  <path
    d="M422.4 496.2c-5.7 6.2-18.7 6.2-23.2 6.2s-41 1.2-52.1-4.3c-8.6-4.2-7.4-22.4-5.3-34.7 19.4-5 60-7 84.6-1.1 1.8 11.7-.2 29.8-4 34Z"
    class="part-toe view-front leg-left color2"
    filter="url(#b)"
    fill="#fe5900"
    style="fill: rgb(254, 89, 0)"
  ></path>
  <path
    d="M57.6 462.3a375 375 0 0 1-25.8-2.3c-14.6-2.4-34.3-18.2 12.9-31.7l1.6-.4c-2.2 7.4 2 25 11.3 34.4Z"
    class="part-toe view-side leg-left color2"
    filter="url(#b)"
    fill="#fe5900"
    style="fill: rgb(254, 89, 0)"
  ></path>
  <path
    d="M219 411.5a277.3 277.3 0 0 1-33.3-30.7c20.8-1 30.7-10.8 35.4-17.5 6.2 25.7 10.9 39-2.1 48.2Z"
    class="part-heel view-side leg-left color2"
    filter="url(#b)"
    fill="#fe5900"
    style="fill: rgb(254, 89, 0)"
  ></path>
  <path
    id="c"
    class="area-toetext view-front leg-left color2"
    d="M344 461.2c11.3-2.8 29-4.6 46.2-4.6 10.3 0 25 .6 37.6 3.5"
    fill="#fe5900"
    style="fill: rgb(254, 89, 0)"
  ></path>
  <path
    id="d"
    class="area-toetext view-side leg-left color2"
    d="M36.5 394.4c2.7 8 20.2 61 22.3 67.9"
    fill="#fe5900"
    style="fill: rgb(254, 89, 0)"
  ></path>
  <path
    class="part-stirrup5 option-stirrup-5 view-back leg-left color2 hidden-option"
    d="M631.2 52.7c.1 7.5-.3 19.2-1.2 33l-.1 1.2v.4l-.2 2.1V91a744.6 744.6 0 0 1-3.6 35.3l-.9 6.6a455 455 0 0 1-4.5 28.7l-1.1 5.6a4.4 4.4 0 0 0-.3.8l-.9 4.5-1 4.6-.4 1.3-.2.8-1 4.9a302.4 302.4 0 0 0-3 23.3 5 5 0 0 0 0 .5l-.5 4-.3 2.6a1408.3 1408.3 0 0 0-5 66.8l-.2 2.7-.6 14.5a126 126 0 0 0 .5 21.6c1.1 5 4.2 17.8 4.6 31.7V355.2a7 7 0 0 1-2.2 4.8c-1.4 1.1-5.4-.3-5.4-2.7v-1.7c-.2-16.3-4.1-54.7-7.5-63.7-3.8-10.1-13.2-19-24-19s-20 9-23.9 19c-3.5 9.5-6.1 50-6.2 65v1.6a1.8 1.8 0 0 1-.2 1 1.2 1.2 0 0 1-.7.4 4.8 4.8 0 0 1-3.8-.5c-1.3-.9-2.1-2.6-2.7-5.2v-.2a82.2 82.2 0 0 1 0-15.3l.2-1.8a358.5 358.5 0 0 0 1.6-52l-.2-2-2.6-23.3-.4-3.9h.2l-.6-5.5-3.2-29.2-.7-6.5-.6-5.3c-.9-13-2.2-25.9-4.1-38.8-1-7-2.2-14.1-3.4-21.2L518 131a560.7 560.7 0 0 1-6.6-63.1q0-11.8.7-23.6l.1-1.2a6.2 6.2 0 0 0-.3-2l-.2-.6a13.6 13.6 0 0 1-1-3.4 131.7 131.7 0 0 1 2.4-14.6l1.5-6a2 2 0 0 1 2-1.5h108a2 2 0 0 1 2 1.5l.2.9.2 1.1 1 4 .3 1 1.8 7.1a343 343 0 0 1 1.4 6.4 7.4 7.4 0 0 1-.3 2.3l-.1.7a9.9 9.9 0 0 0-.5 3l.2 1.2.2 1.8a66.7 66.7 0 0 1 .2 6.8Z"
    filter="url(#b)"
    fill="#fe5900"
    style="fill: rgb(254, 89, 0); display: none"
  ></path>
  <path
    class="part-stirrup7 option-stirrup-7 view-back leg-left color2 hidden-option"
    d="M631.2 52.7c.1 7.5-.3 19.2-1.2 33l-.1 1.2v.4l-.2 2.1V91a744.6 744.6 0 0 1-3.6 35.3l-.9 6.6a455 455 0 0 1-4.5 28.7l-1.1 5.6a4.4 4.4 0 0 0-.3.8l-.9 4.5-1 4.6-.4 1.3-.2.8-1 4.9a302.4 302.4 0 0 0-3 23.3 5 5 0 0 0 0 .5l-.5 4-.3 2.6a1408.3 1408.3 0 0 0-5 66.8l-.2 2.7-.6 14.5a126 126 0 0 0 .5 21.6c1.1 5 4.2 17.8 4.6 31.7V355.2a7 7 0 0 1-2.2 4.8c-1.4 1.1-5.4-.3-5.4-2.7v-.7s1.6-7.8.7-14.4c-2.1-15.7-2.2-14-3-22.5-1.2-13.6-.4-17.4-.2-38.4a28.6 28.6 0 0 0-28.3-30c-14.1-.4-24.9 10.2-28.9 19.6-2 5-2.3 9.3-2.3 17 0 14.2.3 17 0 26.7-.6 18.2-2.3 15 .4 42.3a3.4 3.4 0 0 1 0 .6v1a1.8 1.8 0 0 1-.2 1 1.2 1.2 0 0 1-.7.4 4.8 4.8 0 0 1-3.8-.5c-1.4-.9-2.1-2.6-2.7-5.3a82.2 82.2 0 0 1 0-15.4c0-.6 0-1.2.2-1.8a358.5 358.5 0 0 0 1.6-52l-.3-2-2.5-23.3-.4-3.9h.2l-.6-5.6-3.2-29-.7-6.6-.6-5.3c-1-13-2.2-26-4.2-38.8l-3.3-21.2-2.9-18.3v-.1a560.7 560.7 0 0 1-6.7-63q0-11.8.8-23.6v-1.3a6.2 6.2 0 0 0-.3-1.9l-.1-.6a13.6 13.6 0 0 1-1-3.5 131.7 131.7 0 0 1 2.3-14.5l1.6-6a2 2 0 0 1 2-1.5h108a2 2 0 0 1 2 1.5l.2.9.2 1.1 1 4 .3 1 1.8 7.1a343 343 0 0 1 1.4 6.4 7.4 7.4 0 0 1-.3 2.3l-.1.7a9.9 9.9 0 0 0-.5 3l.2 1.2.2 1.8a66.7 66.7 0 0 1 .2 6.8Z"
    filter="url(#b)"
    fill="#fe5900"
    style="fill: rgb(254, 89, 0); display: none"
  ></path>
  <path
    class="part-stirrup9 option-stirrup-9 view-back leg-left color2 visible-option"
    d="M631.2 52.7c.1 7.5-.3 19.2-1.2 33l-.1 1.2v.4l-.2 2.1V91a744.6 744.6 0 0 1-3.6 35.3l-.9 6.6a455 455 0 0 1-4.5 28.7l-1.1 5.6a4.4 4.4 0 0 0-.3.8l-.9 4.5-1 4.6-.4 1.3-.2.8-1 4.9a302.4 302.4 0 0 0-3 23.3 5 5 0 0 0 0 .5l-.5 4-.3 2.6a1408.3 1408.3 0 0 0-5 66.8l-.2 2.7-.6 14.5a126 126 0 0 0 .5 21.6c1.1 5 4.2 17.8 4.6 31.7V355.2a7 7 0 0 1-2.2 4.8c-1.4 1.1-5.4-.3-5.4-2.7v-.7s1.6-7.8.7-14.4c-2.1-15.7-2.2-14-3-22.5-1.2-13.6-.4-17.4-.2-38.4 0-8.5 6.2-38.4 4-51.5A36.8 36.8 0 0 0 571 199a35.1 35.1 0 0 0-34 33.6c-.7 18.7 4.7 47.6 4.7 55.3 0 14.2.3 17 0 26.7-.6 18.2-2.3 15 .4 42.3a3.4 3.4 0 0 1 0 .6v1a1.8 1.8 0 0 1-.2 1 1.2 1.2 0 0 1-.7.4 4.8 4.8 0 0 1-3.8-.5c-1.4-.9-2.1-2.6-2.7-5.2v-.2a82.2 82.2 0 0 1 0-15.3c0-.6 0-1.2.2-1.8a358.5 358.5 0 0 0 1.6-52l-.3-2-2.5-23.3-.4-3.9h.2l-.6-5.5-3.2-29.2-.7-6.5-.6-5.3c-1-13-2.2-25.9-4.2-38.8l-3.3-21.2L518 131v-.2a560.7 560.7 0 0 1-6.7-63q0-11.8.8-23.6V43a6.2 6.2 0 0 0-.3-2l-.1-.6a13.6 13.6 0 0 1-1-3.4 131.7 131.7 0 0 1 2.3-14.6l1.6-6a2 2 0 0 1 2-1.5h108a2 2 0 0 1 2 1.5l.2.9.2 1.1 1 4 .3 1 1.8 7.1a343 343 0 0 1 1.4 6.4 7.4 7.4 0 0 1-.3 2.3l-.1.7a9.9 9.9 0 0 0-.5 3l.2 1.2.2 1.8a66.7 66.7 0 0 1 .2 6.8Z"
    filter="url(#b)"
    fill="#fe5900"
    style="fill: rgb(254, 89, 0)"
  ></path>
  <path
    class="part-stirrup5 option-stirrup-5 view-side leg-left color2 hidden-option"
    d="M249.3 112.1a270.4 270.4 0 0 1-3 35.3 399 399 0 0 1-6.8 35.3l-4.2 17.7-.5 1.9a623 623 0 0 0-3.8 17.9l-.4 1.8-.2 1q0 .7-.2 1.3l-.9 4.4-1.1 6-.7 3.8-.1.4-.7 4-.8 4.2-.7 4.3-.6 3.5-.4 2.6v.3l-2 12.3a2.8 2.8 0 0 1-2.2 2.3 29 29 0 0 0-26.5 28v3.2l.1 48.3a10.7 10.7 0 0 1-21.3 0v-51.3c0-16.4-17.8-24.8-24.6-27.5a2.8 2.8 0 0 1-1.7-2.3 311 311 0 0 0-1.2-13l-.1-.8-.3-2.3-.3-2.3c-.6-4.6-1.2-8.7-1.9-12.2l-.2-1-.8-4a606.9 606.9 0 0 1-7-51.4c-.8-7.8-1.5-16-2.1-24.4l-1-13-.7-11.4-.3-6.4-1-17.8v-.2l-.6-17.6-.2-6.9-.2-11-.1-5.7V57.3c0-5 .1-9.8.3-14.2 0-1.4-1.8-5-1.8-6 .3-5.1.6-9.5 1-13.1l.2-1.2.3-3.2a4.8 4.8 0 0 1 4.8-4.5H233a2.8 2.8 0 0 1 1.7.6l.4.3a2.7 2.7 0 0 1 1 1.6 170.6 170.6 0 0 0 4.4 16.5l1 3c.3 1-.8 4.5-.4 5.8l1.5 5.9a231.8 231.8 0 0 1 4.5 23.5 250.5 250.5 0 0 1 2 39.8Z"
    filter="url(#b)"
    fill="#fe5900"
    style="fill: rgb(254, 89, 0); display: none"
  ></path>
  <path
    class="part-stirrup7 option-stirrup-7 view-side leg-left color2 hidden-option"
    d="M249.3 112.1a270.4 270.4 0 0 1-3 35.3 399 399 0 0 1-6.8 35.3l-4.2 17.7-.5 1.9a623 623 0 0 0-3.8 17.9l-.4 1.8-.2 1q0 .7-.2 1.3l-.9 4.4-1.1 6-.7 3.8-.1.4a258 258 0 0 1-2.5 11.8 54.7 54.7 0 0 0-18.8 19 60.3 60.3 0 0 0-6.4 11.9c-3 7.4-4.4 10.3-5.2 18.6-.7 4.4-.5 7.2-.6 13l-.3 38.7a10.8 10.8 0 0 1-10.3 10.1 10.7 10.7 0 0 1-11-10.1c-.4-17.2.3-26.4-.9-51.5-.3-8.1-2-24.4-13.1-37.7a49.4 49.4 0 0 0-14-11.3.7.7 0 0 1-.4-.5l-1.6-10.7-.2-1-.9-4-2-10.7a606.9 606.9 0 0 1-5-40.7l-2-24.4-1-13-.7-11.4-.4-6.4-.9-17.8v-.2l-.7-17.6q0-3.5-.2-6.9l-.2-11V57.3c0-5 0-9.8.2-14.2 0-1.4-1.8-5-1.7-6 .2-5.1.6-9.5 1-13.1l.2-1.2.2-2.7a5.4 5.4 0 0 1 5.5-5H233a3.4 3.4 0 0 1 2.1.7 3.4 3.4 0 0 1 1.2 2 147.8 147.8 0 0 0 4.4 16.3l1 3c.3 1-.8 4.5-.5 5.8l1.5 5.9a231.8 231.8 0 0 1 4.5 23.5 250.5 250.5 0 0 1 2 39.8Z"
    filter="url(#b)"
    fill="#fe5900"
    style="fill: rgb(254, 89, 0); display: none"
  ></path>
  <path
    class="part-stirrup9 option-stirrup-9 view-side leg-left color2 visible-option"
    d="M249.3 112.1a270.4 270.4 0 0 1-3 35.3 399 399 0 0 1-6.8 35.3c-2.3 9.3-3.7 13.7-4.4 16.5 0 0-12 2.4-26 16.4-4 4-9.5 15-10.4 17.7-2.9 8.7-4.4 13-4.6 37.5l-.5 81.1a10.8 10.8 0 0 1-10.3 10.1 10.7 10.7 0 0 1-11-10.1c-.3-12.5 0-20.7-.3-33.8 0-2.2-.1-7.4-.6-17.7-1.8-45.3-3-68.2-12.8-82a62.8 62.8 0 0 0-23.1-19.2c-.8-6.5-1.2-11.2-1.6-15.4-1-9.4-1.2-16.8-1.8-24.4l-1-13-.7-11.4-.4-6.4-.8-17.8v-.3l-.7-17.5-.2-6.9-.2-11-.1-5.8v-12c0-5 0-9.8.2-14.2 0-1.4-1.8-5-1.7-6 .3-5.1.6-9.5 1-13.1l.2-1.3.3-2.6a5.4 5.4 0 0 1 5.4-5h99.5a3.4 3.4 0 0 1 2.2.7 3.4 3.4 0 0 1 1.2 2 147.8 147.8 0 0 0 4.4 16.3l.9 3c.3 1-.8 4.5-.4 5.8l1.5 5.9a231.8 231.8 0 0 1 4.5 23.5 250.5 250.5 0 0 1 2 39.8Z"
    filter="url(#b)"
    fill="#fe5900"
    style="fill: rgb(254, 89, 0)"
  ></path>
  <path
    class="part-design5 option-stirrup-5 view-front leg-left color2 hidden-option"
    d="m439.4 94.4-.4 4-1.5 13.1a.1.1 0 0 1 0 .1v.5l-1.8 13-.6 4.6-2.8 17.7c-.6 3.4-1 6.3-1.5 8.4l-1.6 9.2a931 931 0 0 0-7.2 51.1l-.2 1.9-2.5 21.5-.4 4a.9.9 0 0 0 0 .2l-1.2 11.2-.6 6.5a1720.8 1720.8 0 0 0-4 47.3 687 687 0 0 0-.5 9.5c-.6 13.5-.6 23.6.3 28.1a65.3 65.3 0 0 1 1.4 11.5l-.2.3a1.7 1.7 0 0 1-1.6 1 4.7 4.7 0 0 1-2.8-1 5.5 5.5 0 0 1-1.9-3.5l-.1-46.2c0-6.7 0-13.6-2.8-19.8-3.8-9-13.7-16.3-23.4-16.2s-18.7 7.7-22.4 16.8c-2.2 5.6-2.4 11.9-2.5 18q-.2 24.4 0 48.7a2.4 2.4 0 0 1-.4 1.4c-1.5 2.2-4.4 2.4-4.3-.2l.4-1.2c2-5.9 1-22.2-.9-38.8l-1-8a882.7 882.7 0 0 0-3.8-27l-.7-4.4-.6-4.4-.2-1.2v-.4l-.4-2.4v-.2l-.1-1a.3.3 0 0 0 0-.1l-.3-2.2-.2-1.3v-.2l-.4-3.3-.1-.9-.2-.8a10067.9 10067.9 0 0 1-5.3-39.6l-.2-1.7-.4-3-2-14.7-.8-5.7-1.6-12-2.4-17.6-2.3-17.6-1.1-8.2-1.3-9.5-2.4-17.6c-.8-6.8-1.6-12.3-2.2-16.3l-.2-1.4-.8-5.3c-.5-3-1.2-12.3-.7-24.5a237.2 237.2 0 0 1 1.7-21.6 13.8 13.8 0 0 0-.7-3.7 7 7 0 0 1-.5-2.3 189.4 189.4 0 0 1 2.9-14.5c.4-2 1-4 1.5-5.9v-.1a2 2 0 0 1 2-1.5h108a1.7 1.7 0 0 1 1.6 1.5v.2l1.5 5.8.8 3.4A334 334 0 0 1 441 37c.2.7-.4 2.8-.8 4.4a5.5 5.5 0 0 0-.1 1.6 104.2 104.2 0 0 1 .8 8.4 328 328 0 0 1-1.5 43Z"
    fill="#fe5900"
    style="fill: rgb(254, 89, 0); display: none"
  ></path>
  <path
    class="part-stirrup7 option-stirrup-7 view-front leg-left color2 hidden-option"
    d="m439.4 94.4-.4 4-1.5 13.1a.1.1 0 0 1 0 .1v.5l-1.8 13-.6 4.6-2.8 17.7c-.6 3.4-1 6.3-1.5 8.4l-1.6 9.2a931 931 0 0 0-7.2 51.1l-.2 1.9-2.5 21.5-.4 4a.9.9 0 0 0 0 .2l-1.2 11.2-.6 6.5a1720.8 1720.8 0 0 0-4 47.3 687 687 0 0 0-.5 9.5c-.6 13.5-.6 23.6.3 28.1a65.3 65.3 0 0 1 1.4 11.5l-.2.3a1.7 1.7 0 0 1-1.6 1 4.7 4.7 0 0 1-2.8-1 5.5 5.5 0 0 1-1.9-3.5c0-21.4.6-31.2.8-38.8l.4-8c2.8-27 2-34.6-2.3-42-7.3-12.8-22.1-14.5-25.7-14.5a30.8 30.8 0 0 0-16.4 4.4 25.4 25.4 0 0 0-11.3 14.6c-2.4 8.8-2.9 11.9 1.3 39 0 0 3 11.1 2 46.6a2.4 2.4 0 0 1-.4 1.4c-1.5 2.2-4.4 2.4-4.3-.2l.4-1.2c2-5.9 1-22.2-.9-38.8l-1-8a882.7 882.7 0 0 0-3.8-27l-.7-4.4-.6-4.4-.2-1.2v-.4l-.4-2.4v-.2l-.1-1a.3.3 0 0 0 0-.1l-.3-2.2-.2-1.3v-.2l-.4-3.3-.2-.9v-.8a10067.9 10067.9 0 0 1-5.4-39.6l-.2-1.7-.4-3-2-14.7-.8-5.7-1.6-12-2.4-17.6-2.3-17.6-1.1-8.2-1.3-9.5-2.4-17.6-2.2-16.3-.2-1.4-.8-5.3c-.6-3-1.2-12.3-.7-24.5a237.2 237.2 0 0 1 1.7-21.6 13.8 13.8 0 0 0-.8-3.7 7 7 0 0 1-.4-2.3 189.4 189.4 0 0 1 2.9-14.5c.4-2 1-4 1.5-5.9v-.1a2 2 0 0 1 2-1.5h108a1.7 1.7 0 0 1 1.6 1.5v.2l1.5 5.8.8 3.4A334 334 0 0 1 441 37c.2.7-.5 2.8-.8 4.4a5.5 5.5 0 0 0-.1 1.6 104.2 104.2 0 0 1 .8 8.4 326 326 0 0 1-1.5 43Z"
    filter="url(#b)"
    fill="#fe5900"
    style="fill: rgb(254, 89, 0); display: none"
  ></path>
  <path
    class="part-stirrup9 option-stirrup-9 view-front leg-left color2 visible-option"
    d="m439.4 94.4-.4 4-1.5 13.1a.1.1 0 0 1 0 .1v.5l-1.8 13-.6 4.6-2.8 17.7c-.6 3.4-1 6.3-1.5 8.4l-1.6 9.2a931 931 0 0 0-7.2 51.1l-.2 1.9-2.5 21.5-.4 4a.9.9 0 0 0 0 .2l-1.2 11.2-.6 6.5a1720.8 1720.8 0 0 0-4 47.3 687 687 0 0 0-.5 9.5c-.6 13.5-.6 23.6.3 28.1a65.3 65.3 0 0 1 1.4 11.5l-.2.3a1.7 1.7 0 0 1-1.6 1 4.7 4.7 0 0 1-2.8-1 5.5 5.5 0 0 1-1.9-3.5c0-21.4.6-31.2.8-38.8l.4-8c.7-13 3.2-33.5 4-44.4 2.2-27 3.2-40.4-5.4-51.2a36.3 36.3 0 0 0-24-12.6 35.2 35.2 0 0 0-33.5 14.9c-4.8 7-6 12.2-5.4 24.8.7 11.7 2 19 4.5 34 1.5 8.6 3.4 20.9 5.3 36 0 .1 3 11.2 2 46.7a2.4 2.4 0 0 1-.4 1.3c-1.4 2.2-4.3 2.4-4.3-.2l.4-1.2c2-5.9 1-22.2-.8-38.8l-1-8a882.7 882.7 0 0 0-3.8-27l-.7-4.4-.7-4.3-.2-1.3v-.3l-.3-2.5v-.1l-.2-1.1a.3.3 0 0 0 0-.1q0-1-.3-2.2l-.1-1.2v-.3l-.5-3.3-.1-.8-.1-1a10067.9 10067.9 0 0 1-5.4-39.5l-.2-1.7-.4-3-2-14.6-.8-5.8-1.5-11.9-2.4-17.6-2.4-17.7-1-8.1c-.5-3.3-1-6.5-1.3-9.5l-2.4-17.7-2.2-16.3-.2-1.3-.8-5.4c-.6-3-1.2-12.3-.8-24.5a237.2 237.2 0 0 1 1.8-21.5 13.8 13.8 0 0 0-.8-3.8 7 7 0 0 1-.4-2.2 189.4 189.4 0 0 1 2.8-14.6l1.6-5.9a2 2 0 0 1 1.9-1.5h108a1.7 1.7 0 0 1 1.7 1.5l1.4 5.9.9 3.4A334 334 0 0 1 441 37c.1.8-.5 2.8-.8 4.4a5.5 5.5 0 0 0-.2 1.6 104.2 104.2 0 0 1 .9 8.5c.6 12.3-.1 27.7-1.5 42.9Z"
    filter="url(#b)"
    fill="#fe5900"
    style="fill: rgb(254, 89, 0)"
  ></path>
  <text
    class="part-toetext view-front leg-left color2 __className_c224bf"
    dx="0"
    dy="-1.1em"
    fill="#fe5900"
    style="fill: rgb(254, 89, 0)"
  >
    <textPath xlink:href="#c" startOffset="50%" text-anchor="middle">
      ELITE
    </textPath>
  </text>
  <text
    class="part-toetext view-front leg-left color2 __className_c224bf"
    dx="0"
    dy="0"
    fill="#fe5900"
    style="fill: rgb(254, 89, 0)"
  >
    <textPath xlink:href="#c" startOffset="50%" text-anchor="middle">
      SPORT SOCKS
    </textPath>
  </text>
  <text
    class="part-toetext view-side leg-left color2 __className_c224bf"
    dx="0"
    dy="-1.1em"
    fill="#fe5900"
    style="fill: rgb(254, 89, 0)"
  >
    <textPath xlink:href="#d" startOffset="50%" text-anchor="middle">
      ELITE
    </textPath>
  </text>
  <text
    class="part-toetext view-side leg-left color2 __className_c224bf"
    dx="0"
    dy="0"
    fill="#fe5900"
    style="fill: rgb(254, 89, 0)"
  >
    <textPath xlink:href="#d" startOffset="50%" text-anchor="middle">
      SPORT SOCKS
    </textPath>
  </text>
  <rect
    class="area-logo view-front leg-left option-stirrup-9 location-front color-color3 basecolor-color2 visible-option"
    x="331.8"
    y="54.5"
    width="102.2"
    height="133.4"
  ></rect>
  <use
    xlink:href="#embed-103-0"
    class="type-logo part-logo0 location-front basecolor-color2 unclickable"
    width="102.19999694824219"
    height="133.39999389648438"
    x="331.79998779296875"
    y="54.5"
  ></use>
  <rect
    class="area-logo view-front leg-left option-stirrup-9 location-inside location-sides color-color3 basecolor-color2 visible-option"
    x="272.4"
    y="54.5"
    width="102.2"
    height="133.4"
  ></rect>
  <rect
    class="area-logo view-front leg-left option-stirrup-9 location-outside location-sides color-color3 basecolor-color2 visible-option"
    x="390.1"
    y="54.5"
    width="102.2"
    height="133.4"
  ></rect>
  <rect
    class="area-logo view-side leg-left option-stirrup-9 location-front color-color3 basecolor-color2 visible-option"
    x="78.2"
    y="54.6"
    width="102.2"
    height="133.4"
  ></rect>
  <use
    xlink:href="#embed-103-0"
    class="type-logo part-logo0 location-front basecolor-color2 unclickable"
    width="102.19999694824219"
    height="133.39999389648438"
    x="78.19999694824219"
    y="54.599998474121094"
  ></use>
  <rect
    class="area-logo view-side leg-left option-stirrup-9 location-outside location-sides color-color3 basecolor-color2 visible-option"
    x="137.5"
    y="54.6"
    width="102.2"
    height="133.4"
  ></rect>
  <rect
    class="area-logo view-side leg-left option-stirrup-9 location-back color-color3 basecolor-color2 visible-option"
    x="196.2"
    y="54.6"
    width="102.2"
    height="133.4"
  ></rect>
  <rect
    class="area-logo view-back leg-left option-stirrup-9 location-outside location-sides color-color3 basecolor-color2 visible-option"
    x="461"
    y="54.5"
    width="102.2"
    height="133.4"
  ></rect>
  <rect
    class="area-logo view-back leg-left option-stirrup-9 location-inside location-sides color-color3 basecolor-color2 visible-option"
    x="578.5"
    y="54.5"
    width="102.2"
    height="133.4"
  ></rect>
  <rect
    class="area-logo view-back leg-left option-stirrup-9 location-back color-color3 basecolor-color2 visible-option"
    x="520.2"
    y="54.5"
    width="102.2"
    height="133.4"
  ></rect>
  <rect
    class="area-logo view-front leg-left option-stirrup-7 location-front color-color3 basecolor-color2 hidden-option"
    x="331.8"
    y="79.6"
    width="102.2"
    height="133.4"
    style="display: none"
  ></rect>
  <rect
    class="area-logo view-front leg-left option-stirrup-7 location-inside location-sides color-color3 basecolor-color2 hidden-option"
    x="272.4"
    y="79.6"
    width="102.2"
    height="133.4"
    style="display: none"
  ></rect>
  <rect
    class="area-logo view-front leg-left option-stirrup-7 location-outside location-sides color-color3 basecolor-color2 hidden-option"
    x="390.1"
    y="79.6"
    width="102.2"
    height="133.4"
    style="display: none"
  ></rect>
  <rect
    class="area-logo view-side leg-left option-stirrup-7 location-front color-color3 basecolor-color2 hidden-option"
    x="78.2"
    y="79.7"
    width="102.2"
    height="133.4"
    style="display: none"
  ></rect>
  <rect
    class="area-logo view-side leg-left option-stirrup-7 location-outside location-sides color-color3 basecolor-color2 hidden-option"
    x="137.5"
    y="79.7"
    width="102.2"
    height="133.4"
    style="display: none"
  ></rect>
  <rect
    class="area-logo view-side leg-left option-stirrup-7 location-back color-color3 basecolor-color2 hidden-option"
    x="196.2"
    y="79.7"
    width="102.2"
    height="133.4"
    style="display: none"
  ></rect>
  <rect
    class="area-logo view-back leg-left option-stirrup-7 location-outside location-sides color-color3 basecolor-color2 hidden-option"
    x="461"
    y="79.6"
    width="102.2"
    height="133.4"
    style="display: none"
  ></rect>
  <rect
    class="area-logo view-back leg-left option-stirrup-7 location-inside location-sides color-color3 basecolor-color2 hidden-option"
    x="578.5"
    y="79.6"
    width="102.2"
    height="133.4"
    style="display: none"
  ></rect>
  <rect
    class="area-logo view-back leg-left option-stirrup-7 location-back color-color3 basecolor-color2 hidden-option"
    x="520.2"
    y="79.6"
    width="102.2"
    height="133.4"
    style="display: none"
  ></rect>
  <rect
    class="area-logo view-front leg-left option-stirrup-5 location-front color-color3 basecolor-color2 hidden-option"
    x="331.8"
    y="97.5"
    width="102.2"
    height="133.4"
    style="display: none"
  ></rect>
  <rect
    class="area-logo view-front leg-left option-stirrup-5 location-inside location-sides color-color3 basecolor-color2 hidden-option"
    x="272.4"
    y="97.5"
    width="102.2"
    height="133.4"
    style="display: none"
  ></rect>
  <rect
    class="area-logo view-front leg-left option-stirrup-5 location-outside location-sides color-color3 basecolor-color2 hidden-option"
    x="390.1"
    y="97.5"
    width="102.2"
    height="133.4"
    style="display: none"
  ></rect>
  <rect
    class="area-logo view-side leg-left option-stirrup-5 location-front color-color3 basecolor-color2 hidden-option"
    x="78.2"
    y="97.6"
    width="102.2"
    height="133.4"
    style="display: none"
  ></rect>
  <rect
    class="area-logo view-side leg-left option-stirrup-5 location-outside location-sides color-color3 basecolor-color2 hidden-option"
    x="137.5"
    y="97.6"
    width="102.2"
    height="133.4"
    style="display: none"
  ></rect>
  <rect
    class="area-logo view-side leg-left option-stirrup-5 location-back color-color3 basecolor-color2 hidden-option"
    x="196.2"
    y="97.6"
    width="102.2"
    height="133.4"
    style="display: none"
  ></rect>
  <rect
    class="area-logo view-back leg-left option-stirrup-5 location-outside location-sides color-color3 basecolor-color2 hidden-option"
    x="461"
    y="97.5"
    width="102.2"
    height="133.4"
    style="display: none"
  ></rect>
  <rect
    class="area-logo view-back leg-left option-stirrup-5 location-inside location-sides color-color3 basecolor-color2 hidden-option"
    x="578.5"
    y="97.5"
    width="102.2"
    height="133.4"
    style="display: none"
  ></rect>
  <rect
    class="area-logo view-back leg-left option-stirrup-5 location-back color-color3 basecolor-color2 hidden-option"
    x="520.2"
    y="97.5"
    width="102.2"
    height="133.4"
    style="display: none"
  ></rect>
  <rect
    class="area-text view-front leg-left location-rim-inside location-rim-sides color-color3 basecolor-color2"
    x="262.8"
    y="17.8"
    width="116"
    height="21.6"
  ></rect>
  <rect
    class="area-text view-front leg-left location-rim-outside location-rim-sides color-color3 basecolor-color2"
    x="384.8"
    y="17.8"
    width="116"
    height="21.6"
  ></rect>
  <rect
    class="area-text view-side leg-left location-rim-outside location-rim-sides color-color3 basecolor-color2"
    x="126.5"
    y="17.9"
    width="116"
    height="21.6"
  ></rect>
  <rect
    class="area-text view-side leg-left location-rim-back color-color3 basecolor-color2"
    x="186.5"
    y="17.9"
    width="116"
    height="21.6"
  ></rect>
  <rect
    class="area-text view-back leg-left location-rim-back color-color3 basecolor-color2"
    x="512.8"
    y="17.8"
    width="116"
    height="21.6"
  ></rect>
  <rect
    class="area-text view-back leg-left location-rim-outside location-rim-sides color-color3 basecolor-color2"
    x="452.8"
    y="17.8"
    width="116"
    height="21.6"
  ></rect>
  <rect
    class="area-text view-back leg-left location-rim-inside location-rim-sides color-color3 basecolor-color2"
    x="572.8"
    y="17.8"
    width="116"
    height="21.6"
  ></rect>
  <rect
    class="area-text view-side leg-left location-rim-front color-color3 basecolor-color2"
    x="66.5"
    y="17.9"
    width="116"
    height="21.6"
  ></rect>
  <rect
    class="area-text view-front leg-left location-rim-front color-color3 basecolor-color2"
    x="323.8"
    y="17.8"
    width="116"
    height="21.6"
  ></rect>
  <path
    class="area-text view-side leg-left option-stirrup-7 location-front-longtext color-color3 basecolor-color2 hidden-option"
    d="M128 44q1 36.4 2.9 74 1 21 2.3 41.5l4 53 1.3 18.4"
    style="display: none"
  ></path>
  <path
    class="area-text view-side leg-left option-stirrup-7 location-back-longtext color-color3 basecolor-color2 hidden-option"
    d="M241.4 44a258 258 0 0 1 8 62.3 255 255 0 0 1-6.5 60.5c-2.5 10.3-6 22.3-9.7 43-1.6 9-2.6 16.3-3.3 21.2"
    style="display: none"
  ></path>
  <path
    class="area-text view-back leg-left option-stirrup-7 location-outside-longtext location-sides-longtext color-color3 basecolor-color2 hidden-option"
    d="M512.4 44a290.3 290.3 0 0 0-.6 32.1c.4 10.2 1.5 21.3 3.8 43.6.6 6.3 1.1 11 1.9 17.4 3.2 28.8 5.2 37.7 7 55.3 1 9 2.1 22.2 2.5 38.5"
    style="display: none"
  ></path>
  <path
    class="area-text view-back leg-left option-stirrup-7 location-inside-longtext location-sides-longtext color-color3 basecolor-color2 hidden-option"
    d="M631 44a332 332 0 0 1-1.4 49c-.7 7-2.4 19.9-6 45.6a645.8 645.8 0 0 0-5.7 55.8c-.5 9.5-1.1 22-1.5 36.5"
    style="display: none"
  ></path>
  <path
    class="area-text view-front leg-left option-stirrup-7 location-inside-longtext location-sides-longtext color-color3 basecolor-color2 hidden-option"
    d="M323.2 44a169 169 0 0 0-.3 40.5c.9 7.5 1.7 10 4 25.4 2 13.1 3 23 4 31.4 2.3 20.1 3.4 35.3 4.7 51.6.8 11.5 1.8 26.3 2.7 43.6"
    style="display: none"
  ></path>
  <path
    class="area-text view-front leg-left option-stirrup-7 location-outside-longtext location-sides-longtext color-color3 basecolor-color2 hidden-option"
    d="M442 44a405.3 405.3 0 0 1-3.2 73.4c-3 21.9-6.6 34-9.6 60.6a598.8 598.8 0 0 0-3.5 58.5"
    style="display: none"
  ></path>
  <rect
    class="area-text view-back leg-left option-stirrup-7 location-back-longtext color-color3 basecolor-color2 hidden-option"
    x="548.1"
    y="43.9"
    width="47.6"
    height="186.9"
    style="display: none"
  ></rect>
  <rect
    class="area-text view-front leg-left option-stirrup-7 location-front-longtext color-color3 basecolor-color2 hidden-option"
    x="359.1"
    y="44"
    width="47.6"
    height="186.9"
    style="display: none"
  ></rect>
  <rect
    class="area-text view-side leg-left option-stirrup-7 location-outside-longtext location-sides-longtext color-color3 basecolor-color2 hidden-option"
    x="162.9"
    y="44"
    width="47.6"
    height="186.9"
    style="display: none"
  ></rect>
  <path
    class="area-text view-side leg-left option-stirrup-5 location-front-longtext color-color3 basecolor-color2 hidden-option"
    d="M128 44c-.1 25.4.4 51.8 1.7 79.3q1.2 23.7 3 46.2c1.5 18.2 3.7 37.4 7 57.5q2 12.3 4.2 24"
    style="display: none"
  ></path>
  <path
    class="area-text view-side leg-left option-stirrup-5 location-back-longtext color-color3 basecolor-color2 hidden-option"
    d="M241.4 44c9.3 35.8 9 63.9 7.1 82.8A714.2 714.2 0 0 1 237 192a2416.8 2416.8 0 0 0-12.1 58.6"
    style="display: none"
  ></path>
  <path
    class="area-text view-back leg-left option-stirrup-5 location-outside-longtext location-sides-longtext color-color3 basecolor-color2 hidden-option"
    d="M512.4 44c-1.6 26.8 0 46.4 2 59.7.6 4.7 2 12.6 3.4 25 1.8 15.1 2 20.3 3.3 33.4 1.1 11.1 1.7 14.4 8.4 62.4l3.5 25.6"
    style="display: none"
  ></path>
  <path
    class="area-text view-back leg-left option-stirrup-5 location-inside-longtext location-sides-longtext color-color3 basecolor-color2 hidden-option"
    d="M631 44c.6 34-1.6 59-3.7 75.1-2.9 22-6 39.2-6 39.2-2.2 11.5-3.7 17.7-5.8 31a817.5 817.5 0 0 0-6.6 61"
    style="display: none"
  ></path>
  <path
    class="area-text view-front leg-left option-stirrup-5 location-inside-longtext location-sides-longtext color-color3 basecolor-color2 hidden-option"
    d="M321.3 43a250.1 250.1 0 0 0-2 39.3c.3 11.4 1.3 20.2 5 45.2 2 14.2 4.7 32.2 8 53.2l9.6 70.5"
    style="display: none"
  ></path>
  <path
    class="area-text view-front leg-left option-stirrup-5 location-outside-longtext location-sides-longtext color-color3 basecolor-color2 hidden-option"
    d="M442 44a1082.7 1082.7 0 0 1-17.5 147.2l-6.6 60"
    style="display: none"
  ></path>
  <rect
    class="area-text view-back leg-left option-stirrup-5 location-back-longtext color-color3 basecolor-color2 hidden-option"
    x="548.1"
    y="43.9"
    width="47.6"
    height="207.3"
    style="display: none"
  ></rect>
  <rect
    class="area-text view-front leg-left option-stirrup-5 location-front-longtext color-color3 basecolor-color2 hidden-option"
    x="359.1"
    y="44"
    width="47.6"
    height="207.3"
    style="display: none"
  ></rect>
  <rect
    class="area-text view-side leg-left option-stirrup-5 location-outside-longtext location-sides-longtext color-color3 basecolor-color2 hidden-option"
    x="162.9"
    y="44"
    width="47.6"
    height="207.3"
    style="display: none"
  ></rect>
  <rect
    class="area-text view-back leg-left option-stirrup-9 location-inside location-sides color-color3 basecolor-color2 visible-option"
    x="573.7"
    y="85"
    width="116.3"
    height="68.9"
  ></rect>
  <rect
    class="area-text view-back leg-left option-stirrup-9 location-outside location-sides color-color3 basecolor-color2 visible-option"
    x="453"
    y="85"
    width="116.3"
    height="68.9"
  ></rect>
  <rect
    class="area-text view-back leg-left option-stirrup-9 location-back color-color3 basecolor-color2 visible-option"
    x="513.7"
    y="85"
    width="116.3"
    height="68.9"
  ></rect>
  <text
    class="type-text part-text0 location-back orientation-horizontal __className_19d588 unclickable"
    font-size="77"
    letter-spacing="normal"
    style="fill: rgb(0, 0, 0)"
    x="528.4315490722656"
    y="152.98070629119871"
  >
    SF
  </text>
  <rect
    class="area-text view-side leg-left option-stirrup-9 location-back color-color3 basecolor-color2 visible-option"
    x="190.2"
    y="85.1"
    width="116.3"
    height="68.9"
  ></rect>
  <text
    class="type-text part-text0 location-back orientation-horizontal __className_19d588 unclickable"
    font-size="77"
    letter-spacing="normal"
    style="fill: rgb(0, 0, 0)"
    x="204.93153381347656"
    y="153.0807047653198"
  >
    SF
  </text>
  <rect
    class="area-text view-side leg-left option-stirrup-9 location-outside location-sides color-color3 basecolor-color2 visible-option"
    x="128.1"
    y="85.1"
    width="116.3"
    height="68.9"
  ></rect>
  <rect
    class="area-text view-front leg-left option-stirrup-9 location-inside location-sides color-color3 basecolor-color2 visible-option"
    x="385"
    y="85.1"
    width="116.3"
    height="68.9"
  ></rect>
  <rect
    class="area-text view-front leg-left option-stirrup-9 location-outside location-sides color-color3 basecolor-color2 visible-option"
    x="264.3"
    y="85.1"
    width="116.3"
    height="68.9"
  ></rect>
  <rect
    class="area-text view-side leg-left option-stirrup-9 location-front color-color3 basecolor-color2 visible-option"
    x="69.5"
    y="85.1"
    width="116.3"
    height="68.9"
  ></rect>
  <rect
    class="area-text view-front leg-left option-stirrup-9 location-front color-color3 basecolor-color2 visible-option"
    x="324.9"
    y="85.1"
    width="116.3"
    height="68.9"
  ></rect>
  <rect
    class="area-text view-side leg-left option-stirrup-7 location-outside location-sides color-color3 basecolor-color2 hidden-option"
    x="134.6"
    y="117.4"
    width="105.8"
    height="66.9"
    style="display: none"
  ></rect>
  <rect
    class="area-text view-side leg-left option-stirrup-7 location-back color-color3 basecolor-color2 hidden-option"
    x="185.6"
    y="117.4"
    width="105.8"
    height="66.9"
    style="display: none"
  ></rect>
  <rect
    class="area-text view-back leg-left option-stirrup-7 location-back color-color3 basecolor-color2 hidden-option"
    x="518.1"
    y="117.3"
    width="105.8"
    height="66.9"
    style="display: none"
  ></rect>
  <rect
    class="area-text view-back leg-left option-stirrup-7 location-outside location-sides color-color3 basecolor-color2 hidden-option"
    x="463.7"
    y="117.3"
    width="105.8"
    height="66.9"
    style="display: none"
  ></rect>
  <rect
    class="area-text view-back leg-left option-stirrup-7 location-inside location-sides color-color3 basecolor-color2 hidden-option"
    x="572.9"
    y="117.3"
    width="105.8"
    height="66.9"
    style="display: none"
  ></rect>
  <rect
    class="area-text view-front leg-left option-stirrup-7 location-outside location-sides color-color3 basecolor-color2 hidden-option"
    x="273.6"
    y="117.3"
    width="105.8"
    height="66.9"
    style="display: none"
  ></rect>
  <rect
    class="area-text view-front leg-left option-stirrup-7 location-inside location-sides color-color3 basecolor-color2 hidden-option"
    x="387.5"
    y="117.3"
    width="105.8"
    height="66.9"
    style="display: none"
  ></rect>
  <rect
    class="area-text view-front leg-left option-stirrup-7 location-front color-color3 basecolor-color2 hidden-option"
    x="330.8"
    y="117.3"
    width="105.8"
    height="66.9"
    style="display: none"
  ></rect>
  <rect
    class="area-text view-side leg-left option-stirrup-7 location-front color-color3 basecolor-color2 hidden-option"
    x="74.4"
    y="117.4"
    width="105.8"
    height="66.9"
    style="display: none"
  ></rect>
  <rect
    class="area-text view-side leg-left option-stirrup-5 location-outside location-sides color-color3 basecolor-color2 hidden-option"
    x="137.4"
    y="126.6"
    width="100.3"
    height="75.1"
    style="display: none"
  ></rect>
  <rect
    class="area-text view-side leg-left option-stirrup-5 location-back color-color3 basecolor-color2 hidden-option"
    x="191.1"
    y="126.6"
    width="100.3"
    height="75.1"
    style="display: none"
  ></rect>
  <rect
    class="area-text view-front leg-left option-stirrup-5 location-inside location-sides color-color3 basecolor-color2 hidden-option"
    x="385.3"
    y="126.6"
    width="100.3"
    height="75.1"
    style="display: none"
  ></rect>
  <rect
    class="area-text view-front leg-left option-stirrup-5 location-outside location-sides color-color3 basecolor-color2 hidden-option"
    x="278.6"
    y="126.6"
    width="100.3"
    height="75.1"
    style="display: none"
  ></rect>
  <rect
    class="area-text view-back leg-left option-stirrup-5 location-back color-color3 basecolor-color2 hidden-option"
    x="521.5"
    y="126.6"
    width="100.3"
    height="75.1"
    style="display: none"
  ></rect>
  <rect
    class="area-text view-back leg-left option-stirrup-5 location-inside location-sides color-color3 basecolor-color2 hidden-option"
    x="573.1"
    y="126.6"
    width="100.3"
    height="75.1"
    style="display: none"
  ></rect>
  <rect
    class="area-text view-back leg-left option-stirrup-5 location-outside location-sides color-color3 basecolor-color2 hidden-option"
    x="468.7"
    y="126.6"
    width="100.3"
    height="75.1"
    style="display: none"
  ></rect>
  <rect
    class="area-text view-side leg-left option-stirrup-5 location-front color-color3 basecolor-color2 hidden-option"
    x="84.5"
    y="126.6"
    width="100.3"
    height="75.1"
    style="display: none"
  ></rect>
  <rect
    class="area-text view-front leg-left option-stirrup-5 location-front color-color3 basecolor-color2 hidden-option"
    x="331.6"
    y="126.6"
    width="100.3"
    height="75.1"
    style="display: none"
  ></rect>
  <path
    class="mask view-front leg-left option-stirrup-5 hidden-option"
    d="M505.3 45a67 67 0 0 0-1-21.2c-1-5.4-2.4-11-4-17.2L499 .7A67 67 0 0 0 486-25h-212A66.6 66.6 0 0 0 261.8-1l-.2.4a264 264 0 0 0-5.9 27.6 67.4 67.4 0 0 0-.2 18.7c-1.9 20.5-1.7 41.7.6 54.6 1 6.6 6.8 50.5 11.6 86 7.8 58.5 12.6 94.6 13.8 102 4 24 6.3 45.6 6.6 54.8a100.5 100.5 0 0 0-2.4 33.7 156.8 156.8 0 0 0-1.9 23.4c-.3 5.1-1.3 17.5-2.3 27.3l-4.3 25-.2 1.4-.7 4.5v.5l-.3 2v.7l-.3 2v.4l-.3 2.6v.7l-.2 2v.8l-.2 2V487l.2 2.7.1 1 .3 2.8.1 1 .4 2.8.1.5.2 1a91 91 0 0 0 3.8 14.8l2.2 5.4.7 1.5 2 4 1 1.9a74.4 74.4 0 0 0 3.6 5.8l.1.1a75.1 75.1 0 0 0 4.7 6.1l.1.1a72 72 0 0 0 12.7 11.7l2.4 1.7a72.6 72.6 0 0 0 8.2 4.7c16 7.9 36.2 11.1 69.8 11.1H398.9c8.5 0 33.7-.1 56-14.7a78.3 78.3 0 0 0 14.9-12.5 77 77 0 0 0 5.7-7.1l.1-.1 1.3-1.8 2.9-4.7.4-.7.8-1.5c1.1-2 2.1-4.1 3.1-6.4l.7-1.5a81.8 81.8 0 0 0 3.5-10.4l.3-1.2a38.5 38.5 0 0 0 1.2-5.3l.3-1.2.8-4.8.1-1 .4-3.8.1-1 .4-4.4V469.1l-.2-3v-1.3a164 164 0 0 0-.4-3.7v-.6a158.8 158.8 0 0 0-6.9-32.5 274 274 0 0 1-4.7-31.9l-1.6-18.6a141.6 141.6 0 0 0-1.1-41.2c-.9-22.4 9-122.4 17.6-168.6 3.5-18.8 13.8-79.3 10.7-122.6Zm-74.6 110.8c-9.4 50.2-22 171.4-18 190.5 3 13.9.3 25.8.2 29.3s3.8 54.5 9.7 72.5a93.4 93.4 0 0 1 4 19.1v.3l.2 2.5.2 2.2V479.8l-.2 2.1v.5l-.2 1.7v.3l-.3 2-.1.3-.4 1.5a3.6 3.6 0 0 1 0 .4l-.5 1.7-.1.2-.5 1.4-.2.3-.6 1.4-.1.2-.7 1-.2.4a11.9 11.9 0 0 1-1 1 12.7 12.7 0 0 1-2.3 2c-6.4 4.2-16.8 4.2-20.8 4.2-4.5 0-41 1.2-52.1-4.3a9 9 0 0 1-1-.6l-.2-.1a7.3 7.3 0 0 1-.6-.5l-.2-.2-.7-.7a12 12 0 0 1-.7-1l-.2-.2a11 11 0 0 1-.5-.7l-.1-.3a23 23 0 0 1-.4-.9l-.1-.2-.5-1.1v-.2l-.4-1v-.4c-.2-.3-.2-.6-.3-1l-.1-.3-.3-1.4-.2-1.4v-.4l-.1-1v-.4l-.1-1.4v-4.9a2.4 2.4 0 0 1 0-.3v-3.6l.1-1.2v-.4l.2-1.6a1.6 1.6 0 0 0 0-.2l.1-1.3.1-.4.1-1.2.1-.4.4-2.9.1-.4v-.5c.7-3.8 1.5-7 2-9.2 2.6-9.1 5.8-50.5 5.6-54-.2-5.8 1.7-17.6 2.4-21s-3.2-11.8.8-23.4-4-64.4-6.3-78.2-24.2-181.3-25.5-188.5c-1-4.7-1.9-23.9 1-46 .1-1.4-1.4-5-1.2-6a191.7 191.7 0 0 1 4.4-20.6 2 2 0 0 1 1.9-1.5h107.6a2 2 0 0 1 2 1.6l1.4 5.9 3.4 14.5c.2 1-1.1 4.8-1 6 4.6 31.8-6 96-9 112.8Z"
    style="display: none"
  ></path>
  <path
    class="mask view-side leg-left option-stirrup-5 hidden-option"
    d="M306.1 36.7a66.8 66.8 0 0 0-2.8-18.3 145.7 145.7 0 0 1-4.2-15.2l-.2-.8-.2-.7a67.2 67.2 0 0 0-13-26.6H77.3a66.7 66.7 0 0 0-14.7 40.2l-.1.9c-.7 5.1-1.1 11-1.5 17.6a66.8 66.8 0 0 0 1.5 17.6c-.7 57.4 6 159.7 15 198.6 3.6 15.4 5.3 50.6 2.6 65-20.6 23-38.3 41.7-46.1 49l-1.4.4-1.1.2-1.2.3-3.3.8-.5.2c-16 4.6-29 10-39.5 16.9a90.2 90.2 0 0 0-16.5 13.4 74.5 74.5 0 0 0-19.6 37.5 73 73 0 0 0 27.6 72l.6.5a86 86 0 0 0 11 7.3 93.4 93.4 0 0 0 11 5.2 94.9 94.9 0 0 0 20.1 5.5l2 .3 2 .3c5 .6 11.7 1.3 20.6 2H47l5.6.4 128.5-20.4a118 118 0 0 0 9.7-10c3.5-4 7.1-6.4 15.5-10l49.3-22 1.5-1.1 1.4-1.1a85 85 0 0 0 2.9-2.3l2-1.6a92.5 92.5 0 0 0 6.3-6.1l2.8-3.2v-.1a82.6 82.6 0 0 0 8-11.4l.5-.8 1-1.7a67 67 0 0 0 6-15c.5-1.3.9-2.7 1.2-4.2l.5-2 1-6a76 76 0 0 0 .7-5.7l.1-1.5v-.1l.2-3.8V390.8a118.3 118.3 0 0 0-.8-8.7l-.1-1a144 144 0 0 0-1.1-7.2l-.1-.6-.6-2.9-.1-.6-.6-2.8v-.3l-.8-3.1-.7-3-.6-2.8-1-4-3.3-13.6c-.1-1-2.7-16.1 4.7-65 4.9-31.5 11-58 11-58.2l1.8-7.3c9-37.7 23.7-99.8 6.6-173Zm-71.7 165.7c-2.1 9.2-24.8 111.6-15.8 152l4 16.9.3 1.3.2.8.4 1.9.2.6.5 2.3.6 2.5v.2l.4 2v.5l.4 1.8v.3c.3 1.4.6 2.7.7 4v.4l.2 1.5V399l-.3 1.5a2.8 2.8 0 0 1-.1.3l-.3 1.1-.2.5a15 15 0 0 1-1 2.6l-.2.1-.6 1c0 .2-.2.3-.3.5l-.6.7-.3.5-.7.8-.3.3-1.1 1-.5.4-.8.6-.6.4-.2.3a42.7 42.7 0 0 1-9.3 4.6c-27.8 10.7-48.6 16.5-67.3 38-11.2 12.9-17.9 11.2-22.9 11.2h-.1c-6.1 0-37.6-1.4-61.8-3l-5.4-.4h-1.1c-7.1-.6-13.2-1.1-17.2-1.6h-.2l-.8-.1h-.2l-.8-.2a30 30 0 0 1-6.3-1.7 27.8 27.8 0 0 1-3.3-1.6 21 21 0 0 1-3-2c-2.4-2-4.1-4.2-4.3-7a3.6 3.6 0 0 1 0-.5 5.4 5.4 0 0 1 0-.5l.1-.6c1.1-5.5 9-11.9 29.6-17.8l.8-.2h.6l.4-.2c5-1 13.4-2 24-9.2 11.8-8.2 51.2-52 63.6-66 19.4-22 12.4-95 7.2-117.4-7.9-34-14.8-140-13-192.2 0-1.4-1.9-5-1.8-6 .2-5.1.6-9.5 1-13.1l.2-1.2c.2-2 .4-4 .4-5.8a2 2 0 0 1 2-2h104a2 2 0 0 1 2 1.7 166.3 166.3 0 0 0 4.7 17.4l.9 3c.3 1-.8 4.6-.4 5.9 18.2 66.5 1.9 124.3-6.3 159.4Z"
    style="display: none"
  ></path>
  <path
    class="mask view-back leg-left option-stirrup-5 hidden-option"
    d="M695.3 23.5c-1.2-5.5-2.6-11-3.8-15.8l-.3-1.2-1.3-5.4a67 67 0 0 0-12.8-26H464.6a67.4 67.4 0 0 0-11.7 22l-.1.3c-1.1 3.7-2.1 7.5-3 11.3a197.6 197.6 0 0 0-3.3 21.3 67 67 0 0 0 .6 18.7c-1.5 32.6 1.4 73 6.6 91 2.7 11.5 8.1 55.3 16.1 130.1a1508 1508 0 0 0 2.6 23c.4 7-.7 28.8-1.5 35.1a170.2 170.2 0 0 0 .8 45 97.1 97.1 0 0 0-8.8 25.3c-1.9 5-3.2 9.7-4.3 13.8l-.7 2.3a97 97 0 0 0-4.3 76.6 86.4 86.4 0 0 0 50.7 52.4 158 158 0 0 0 55.6 9.1c8.7 0 18.2-.5 29-1.5a90.3 90.3 0 0 0 67.1-38.5 105.8 105.8 0 0 0 14-83.7 155.3 155.3 0 0 1 0-29l.1-1 .2-1.2a123.4 123.4 0 0 0 2.5-8.8l.4-1.7 3-39.5a231 231 0 0 0-4.8-37.5c-.5-21.4 5.6-99.6 9-116.3a673.8 673.8 0 0 0 16-148.6 67.4 67.4 0 0 0-1-21.6ZM630.8 43l.4 3c1.6 13.5-2.4 85.7-14 132.4-5.1 21-13.1 129-10.2 141.8 1.7 7.3 7.1 33 2.7 52.8l-.1.3a47 47 0 0 1-.4 1.7l-.3.8-.6 2.2-.5 1.5-.2.5-.2 1-.2.7-.3 1v.7l-.3 1.2-.2.6-.2 1.3-.6 4a186.9 186.9 0 0 0 1 53.3c3 10.9 3.6 39.9-23.9 42.4s-42.6 1-56.2-4c-9.9-3.5-19.8-22.5-9.5-40.7 3-5.2 5.3-18.3 7.6-22.2s.4-9.8 6.9-20.1a31.2 31.2 0 0 0 2-3.8l.4-1 .4-1 .3-1 .3-.9.3-1 .3-1 .4-1.6.2-1.2.2-1 .1-1.1.2-1v-1.2l.2-.9V379l.1-1.5V371a2.3 2.3 0 0 1 0-.3l-.2-1.7v-.4a136 136 0 0 0-.3-3.5c-1.2-9.6-2.3-19.4-1-28.1s3-41 1.6-52-14.5-143.3-20.9-163.5c-2.2-7.3-6-46.7-3.5-78.5.1-1.3-1.5-4.9-1.4-6a135 135 0 0 1 2.3-14.5l1.5-6a2 2 0 0 1 2-1.5h108a2 2 0 0 1 1.9 1.6l1.4 5.9.3 1c1.2 4.9 2.4 9.4 3.2 13.5.1 1.1-1.2 4.8-1 6.1Z"
    style="display: none"
  ></path>
  <path
    class="mask view-front leg-left option-stirrup-7 hidden-option"
    d="M505.3 45a67 67 0 0 0-1-21.2c-1-5.4-2.4-11-4-17.2L499 .7A67 67 0 0 0 486-25h-212A66.6 66.6 0 0 0 261.8-1l-.2.4a264 264 0 0 0-5.9 27.6 67.4 67.4 0 0 0-.2 18.7c-1.9 20.5-1.7 41.7.6 54.6 1 6.6 6.8 50.5 11.6 86 7.8 58.5 12.6 94.6 13.8 102 4 24 6.3 45.6 6.6 54.8a100.5 100.5 0 0 0-2.4 33.7 156.8 156.8 0 0 0-1.9 23.4c-.3 5.1-1.3 17.5-2.3 27.3l-4.3 25-.2 1.4-.7 4.5v.5l-.3 2v.7l-.3 2v.4l-.3 2.6v.7l-.2 2v.8l-.2 2V487l.2 2.7.1 1 .3 2.8.1 1 .4 2.8.1.5.2 1a91 91 0 0 0 3.8 14.8l2.2 5.4.7 1.5 2 4 1 1.9a74.4 74.4 0 0 0 3.6 5.8l.1.1a75.1 75.1 0 0 0 4.7 6.1l.1.1a72 72 0 0 0 12.7 11.7l2.4 1.7a72.6 72.6 0 0 0 8.2 4.7c16 7.9 36.2 11.1 69.8 11.1H398.9c8.5 0 33.7-.1 56-14.7a78.3 78.3 0 0 0 14.9-12.5 77 77 0 0 0 5.7-7.1l.1-.1 1.3-1.8 2.9-4.7.4-.7.8-1.5c1.1-2 2.1-4.1 3.1-6.4l.7-1.5a81.8 81.8 0 0 0 3.5-10.4l.3-1.2a38.5 38.5 0 0 0 1.2-5.3l.3-1.2.8-4.8.1-1 .4-3.8.1-1 .4-4.4V469.1l-.2-3v-1.3a164 164 0 0 0-.4-3.7v-.6a158.8 158.8 0 0 0-6.9-32.5 274 274 0 0 1-4.7-31.9l-1.6-18.6a141.6 141.6 0 0 0-1.1-41.2c-.9-22.4 9-122.4 17.6-168.6 3.5-18.8 13.8-79.3 10.7-122.6Zm-74.6 110.8c-9.4 50.2-22 171.4-18 190.5 3 13.9.3 25.8.2 29.3s3.8 54.5 9.7 72.5a93.4 93.4 0 0 1 4 19.1v.3l.2 2.5.2 2.2V479.8l-.2 2.1v.5l-.2 1.7v.3l-.3 2-.1.3-.4 1.5a3.6 3.6 0 0 1 0 .4l-.5 1.7-.1.2-.5 1.4-.2.3-.6 1.4-.1.2-.7 1-.2.4a11.9 11.9 0 0 1-1 1 12.7 12.7 0 0 1-2.3 2c-6.4 4.2-16.8 4.2-20.8 4.2-4.5 0-41 1.2-52.1-4.3a9 9 0 0 1-1-.6l-.2-.1a7.3 7.3 0 0 1-.6-.5l-.2-.2-.7-.7a12 12 0 0 1-.7-1l-.2-.2a11 11 0 0 1-.5-.7l-.1-.3a23 23 0 0 1-.4-.9l-.1-.2-.5-1.1v-.2l-.4-1v-.4c-.2-.3-.2-.6-.3-1l-.1-.3-.3-1.4-.2-1.4v-.4l-.1-1v-.4l-.1-1.4v-4.9a2.4 2.4 0 0 1 0-.3v-3.6l.1-1.2v-.4l.2-1.6a1.6 1.6 0 0 0 0-.2l.1-1.3.1-.4.1-1.2.1-.4.4-2.9.1-.4v-.5c.7-3.8 1.5-7 2-9.2 2.6-9.1 5.8-50.5 5.6-54-.2-5.8 1.7-17.6 2.4-21s-3.2-11.8.8-23.4-4-64.4-6.3-78.2-24.2-181.3-25.5-188.5c-1-4.7-1.9-23.9 1-46 .1-1.4-1.4-5-1.2-6a191.7 191.7 0 0 1 4.4-20.6 2 2 0 0 1 1.9-1.5h107.6a2 2 0 0 1 2 1.6l1.4 5.9 3.4 14.5c.2 1-1.1 4.8-1 6 4.6 31.8-6 96-9 112.8Z"
    style="display: none"
  ></path>
  <path
    class="mask view-side leg-left option-stirrup-7 hidden-option"
    d="M306.1 36.7a66.8 66.8 0 0 0-2.8-18.3 145.7 145.7 0 0 1-4.2-15.2l-.2-.8-.2-.7a67.2 67.2 0 0 0-13-26.6H77.3a66.7 66.7 0 0 0-14.7 40.2l-.1.9c-.7 5.1-1.1 11-1.5 17.6a66.8 66.8 0 0 0 1.5 17.6c-.7 57.4 6 159.7 15 198.6 3.6 15.4 5.3 50.6 2.6 65-20.6 23-38.3 41.7-46.1 49l-1.4.4-1.1.2-1.2.3-3.3.8-.5.2c-16 4.6-29 10-39.5 16.9a90.2 90.2 0 0 0-16.5 13.4 74.5 74.5 0 0 0-19.6 37.5 73 73 0 0 0 27.6 72l.6.5a86 86 0 0 0 11 7.3 93.4 93.4 0 0 0 11 5.2 94.9 94.9 0 0 0 20.1 5.5l2 .3 2 .3c5 .6 11.7 1.3 20.6 2H47l5.6.4 128.5-20.4a118 118 0 0 0 9.7-10c3.5-4 7.1-6.4 15.5-10l49.3-22 1.5-1.1 1.4-1.1a85 85 0 0 0 2.9-2.3l2-1.6a92.5 92.5 0 0 0 6.3-6.1l2.8-3.2v-.1a82.6 82.6 0 0 0 8-11.4l.5-.8 1-1.7a67 67 0 0 0 6-15c.5-1.3.9-2.7 1.2-4.2l.5-2 1-6a76 76 0 0 0 .7-5.7l.1-1.5v-.1l.2-3.8V390.8a118.3 118.3 0 0 0-.8-8.7l-.1-1a144 144 0 0 0-1.1-7.2l-.1-.6-.6-2.9-.1-.6-.6-2.8v-.3l-.8-3.1-.7-3-.6-2.8-1-4-3.3-13.6c-.1-1-2.7-16.1 4.7-65 4.9-31.5 11-58 11-58.2l1.8-7.3c9-37.7 23.7-99.8 6.6-173Zm-71.7 165.7c-2.1 9.2-24.8 111.6-15.8 152l4 16.9.3 1.3.2.8.4 1.9.2.6.5 2.3.6 2.5v.2l.4 2v.5l.4 1.8v.3c.3 1.4.6 2.7.7 4v.4l.2 1.5V399l-.3 1.5a2.8 2.8 0 0 1-.1.3l-.3 1.1-.2.5a15 15 0 0 1-1 2.6l-.2.1-.6 1c0 .2-.2.3-.3.5l-.6.7-.3.5-.7.8-.3.3-1.1 1-.5.4-.8.6-.6.4-.2.3a42.7 42.7 0 0 1-9.3 4.6c-27.8 10.7-48.6 16.5-67.3 38-11.2 12.9-17.9 11.2-22.9 11.2h-.1c-6.1 0-37.6-1.4-61.8-3l-5.4-.4h-1.1c-7.1-.6-13.2-1.1-17.2-1.6h-.2l-.8-.1h-.2l-.8-.2a30 30 0 0 1-6.3-1.7 27.8 27.8 0 0 1-3.3-1.6 21 21 0 0 1-3-2c-2.4-2-4.1-4.2-4.3-7a3.6 3.6 0 0 1 0-.5 5.4 5.4 0 0 1 0-.5l.1-.6c1.1-5.5 9-11.9 29.6-17.8l.8-.2h.6l.4-.2c5-1 13.4-2 24-9.2 11.8-8.2 51.2-52 63.6-66 19.4-22 12.4-95 7.2-117.4-7.9-34-14.8-140-13-192.2 0-1.4-1.9-5-1.8-6 .2-5.1.6-9.5 1-13.1l.2-1.2c.2-2 .4-4 .4-5.8a2 2 0 0 1 2-2h104a2 2 0 0 1 2 1.7 166.3 166.3 0 0 0 4.7 17.4l.9 3c.3 1-.8 4.6-.4 5.9 18.2 66.5 1.9 124.3-6.3 159.4Z"
    style="display: none"
  ></path>
  <path
    class="mask view-back leg-left option-stirrup-7 hidden-option"
    d="M695.3 23.5c-1.2-5.5-2.6-11-3.8-15.8l-.3-1.2-1.3-5.4a67 67 0 0 0-12.8-26H464.6a67.4 67.4 0 0 0-11.7 22l-.1.3c-1.1 3.7-2.1 7.5-3 11.3a197.6 197.6 0 0 0-3.3 21.3 67 67 0 0 0 .6 18.7c-1.5 32.6 1.4 73 6.6 91 2.7 11.5 8.1 55.3 16.1 130.1a1508 1508 0 0 0 2.6 23c.4 7-.7 28.8-1.5 35.1a170.2 170.2 0 0 0 .8 45 97.1 97.1 0 0 0-8.8 25.3c-1.9 5-3.2 9.7-4.3 13.8l-.7 2.3a97 97 0 0 0-4.3 76.6 86.4 86.4 0 0 0 50.7 52.4 158 158 0 0 0 55.6 9.1c8.7 0 18.2-.5 29-1.5a90.3 90.3 0 0 0 67.1-38.5 105.8 105.8 0 0 0 14-83.7 155.3 155.3 0 0 1 0-29l.1-1 .2-1.2a123.4 123.4 0 0 0 2.5-8.8l.4-1.7 3-39.5a231 231 0 0 0-4.8-37.5c-.5-21.4 5.6-99.6 9-116.3a673.8 673.8 0 0 0 16-148.6 67.4 67.4 0 0 0-1-21.6ZM630.8 43l.4 3c1.6 13.5-2.4 85.7-14 132.4-5.1 21-13.1 129-10.2 141.8 1.7 7.3 7.1 33 2.7 52.8l-.1.3a47 47 0 0 1-.4 1.7l-.3.8-.6 2.2-.5 1.5-.2.5-.2 1-.2.7-.3 1v.7l-.3 1.2-.2.6-.2 1.3-.6 4a186.9 186.9 0 0 0 1 53.3c3 10.9 3.6 39.9-23.9 42.4s-42.6 1-56.2-4c-9.9-3.5-19.8-22.5-9.5-40.7 3-5.2 5.3-18.3 7.6-22.2s.4-9.8 6.9-20.1a31.2 31.2 0 0 0 2-3.8l.4-1 .4-1 .3-1 .3-.9.3-1 .3-1 .4-1.6.2-1.2.2-1 .1-1.1.2-1v-1.2l.2-.9V379l.1-1.5V371a2.3 2.3 0 0 1 0-.3l-.2-1.7v-.4a136 136 0 0 0-.3-3.5c-1.2-9.6-2.3-19.4-1-28.1s3-41 1.6-52-14.5-143.3-20.9-163.5c-2.2-7.3-6-46.7-3.5-78.5.1-1.3-1.5-4.9-1.4-6a135 135 0 0 1 2.3-14.5l1.5-6a2 2 0 0 1 2-1.5h108a2 2 0 0 1 1.9 1.6l1.4 5.9.3 1c1.2 4.9 2.4 9.4 3.2 13.5.1 1.1-1.2 4.8-1 6.1Z"
    style="display: none"
  ></path>
  <path
    class="mask view-front leg-left option-stirrup-9 visible-option"
    d="M505.3 45a67 67 0 0 0-1-21.2c-1-5.4-2.4-11-4-17.2L499 .7A67 67 0 0 0 486-25h-212A66.6 66.6 0 0 0 261.8-1l-.2.4a264 264 0 0 0-5.9 27.6 67.4 67.4 0 0 0-.2 18.7c-1.9 20.5-1.7 41.7.6 54.6 1 6.6 6.8 50.5 11.6 86 7.8 58.5 12.6 94.6 13.8 102 4 24 6.3 45.6 6.6 54.8a100.5 100.5 0 0 0-2.4 33.7 156.8 156.8 0 0 0-1.9 23.4c-.3 5.1-1.3 17.5-2.3 27.3l-4.3 25-.2 1.4-.7 4.5v.5l-.3 2v.7l-.3 2v.4l-.3 2.6v.7l-.2 2v.8l-.2 2V487l.2 2.7.1 1 .3 2.8.1 1 .4 2.8.1.5.2 1a91 91 0 0 0 3.8 14.8l2.2 5.4.7 1.5 2 4 1 1.9a74.4 74.4 0 0 0 3.6 5.8l.1.1a75.1 75.1 0 0 0 4.7 6.1l.1.1a72 72 0 0 0 12.7 11.7l2.4 1.7a72.6 72.6 0 0 0 8.2 4.7c16 7.9 36.2 11.1 69.8 11.1H398.9c8.5 0 33.7-.1 56-14.7a78.3 78.3 0 0 0 14.9-12.5 77 77 0 0 0 5.7-7.1l.1-.1 1.3-1.8 2.9-4.7.4-.7.8-1.5c1.1-2 2.1-4.1 3.1-6.4l.7-1.5a81.8 81.8 0 0 0 3.5-10.4l.3-1.2a38.5 38.5 0 0 0 1.2-5.3l.3-1.2.8-4.8.1-1 .4-3.8.1-1 .4-4.4V469.1l-.2-3v-1.3a164 164 0 0 0-.4-3.7v-.6a158.8 158.8 0 0 0-6.9-32.5 274 274 0 0 1-4.7-31.9l-1.6-18.6a141.6 141.6 0 0 0-1.1-41.2c-.9-22.4 9-122.4 17.6-168.6 3.5-18.8 13.8-79.3 10.7-122.6Zm-74.6 110.8c-9.4 50.2-22 171.4-18 190.5 3 13.9.3 25.8.2 29.3s3.8 54.5 9.7 72.5a93.4 93.4 0 0 1 4 19.1v.3l.2 2.5.2 2.2V479.8l-.2 2.1v.5l-.2 1.7v.3l-.3 2-.1.3-.4 1.5a3.6 3.6 0 0 1 0 .4l-.5 1.7-.1.2-.5 1.4-.2.3-.6 1.4-.1.2-.7 1-.2.4a11.9 11.9 0 0 1-1 1 12.7 12.7 0 0 1-2.3 2c-6.4 4.2-16.8 4.2-20.8 4.2-4.5 0-41 1.2-52.1-4.3a9 9 0 0 1-1-.6l-.2-.1a7.3 7.3 0 0 1-.6-.5l-.2-.2-.7-.7a12 12 0 0 1-.7-1l-.2-.2a11 11 0 0 1-.5-.7l-.1-.3a23 23 0 0 1-.4-.9l-.1-.2-.5-1.1v-.2l-.4-1v-.4c-.2-.3-.2-.6-.3-1l-.1-.3-.3-1.4-.2-1.4v-.4l-.1-1v-.4l-.1-1.4v-4.9a2.4 2.4 0 0 1 0-.3v-3.6l.1-1.2v-.4l.2-1.6a1.6 1.6 0 0 0 0-.2l.1-1.3.1-.4.1-1.2.1-.4.4-2.9.1-.4v-.5c.7-3.8 1.5-7 2-9.2 2.6-9.1 5.8-50.5 5.6-54-.2-5.8 1.7-17.6 2.4-21s-3.2-11.8.8-23.4-4-64.4-6.3-78.2-24.2-181.3-25.5-188.5c-1-4.7-1.9-23.9 1-46 .1-1.4-1.4-5-1.2-6a191.7 191.7 0 0 1 4.4-20.6 2 2 0 0 1 1.9-1.5h107.6a2 2 0 0 1 2 1.6l1.4 5.9 3.4 14.5c.2 1-1.1 4.8-1 6 4.6 31.8-6 96-9 112.8Z"
  ></path>
  <path
    class="mask view-side leg-left option-stirrup-9 visible-option"
    d="M306.1 36.7a66.8 66.8 0 0 0-2.8-18.3 145.7 145.7 0 0 1-4.2-15.2l-.2-.8-.2-.7a67.2 67.2 0 0 0-13-26.6H77.3a66.7 66.7 0 0 0-14.7 40.2l-.1.9c-.7 5.1-1.1 11-1.5 17.6a66.8 66.8 0 0 0 1.5 17.6c-.7 57.4 6 159.7 15 198.6 3.6 15.4 5.3 50.6 2.6 65-20.6 23-38.3 41.7-46.1 49l-1.4.4-1.1.2-1.2.3-3.3.8-.5.2c-16 4.6-29 10-39.5 16.9a90.2 90.2 0 0 0-16.5 13.4 74.5 74.5 0 0 0-19.6 37.5 73 73 0 0 0 27.6 72l.6.5a86 86 0 0 0 11 7.3 93.4 93.4 0 0 0 11 5.2 94.9 94.9 0 0 0 20.1 5.5l2 .3 2 .3c5 .6 11.7 1.3 20.6 2H47l5.6.4 128.5-20.4a118 118 0 0 0 9.7-10c3.5-4 7.1-6.4 15.5-10l49.3-22 1.5-1.1 1.4-1.1a85 85 0 0 0 2.9-2.3l2-1.6a92.5 92.5 0 0 0 6.3-6.1l2.8-3.2v-.1a82.6 82.6 0 0 0 8-11.4l.5-.8 1-1.7a67 67 0 0 0 6-15c.5-1.3.9-2.7 1.2-4.2l.5-2 1-6a76 76 0 0 0 .7-5.7l.1-1.5v-.1l.2-3.8V390.8a118.3 118.3 0 0 0-.8-8.7l-.1-1a144 144 0 0 0-1.1-7.2l-.1-.6-.6-2.9-.1-.6-.6-2.8v-.3l-.8-3.1-.7-3-.6-2.8-1-4-3.3-13.6c-.1-1-2.7-16.1 4.7-65 4.9-31.5 11-58 11-58.2l1.8-7.3c9-37.7 23.7-99.8 6.6-173Zm-71.7 165.7c-2.1 9.2-24.8 111.6-15.8 152l4 16.9.3 1.3.2.8.4 1.9.2.6.5 2.3.6 2.5v.2l.4 2v.5l.4 1.8v.3c.3 1.4.6 2.7.7 4v.4l.2 1.5V399l-.3 1.5a2.8 2.8 0 0 1-.1.3l-.3 1.1-.2.5a15 15 0 0 1-1 2.6l-.2.1-.6 1c0 .2-.2.3-.3.5l-.6.7-.3.5-.7.8-.3.3-1.1 1-.5.4-.8.6-.6.4-.2.3a42.7 42.7 0 0 1-9.3 4.6c-27.8 10.7-48.6 16.5-67.3 38-11.2 12.9-17.9 11.2-22.9 11.2h-.1c-6.1 0-37.6-1.4-61.8-3l-5.4-.4h-1.1c-7.1-.6-13.2-1.1-17.2-1.6h-.2l-.8-.1h-.2l-.8-.2a30 30 0 0 1-6.3-1.7 27.8 27.8 0 0 1-3.3-1.6 21 21 0 0 1-3-2c-2.4-2-4.1-4.2-4.3-7a3.6 3.6 0 0 1 0-.5 5.4 5.4 0 0 1 0-.5l.1-.6c1.1-5.5 9-11.9 29.6-17.8l.8-.2h.6l.4-.2c5-1 13.4-2 24-9.2 11.8-8.2 51.2-52 63.6-66 19.4-22 12.4-95 7.2-117.4-7.9-34-14.8-140-13-192.2 0-1.4-1.9-5-1.8-6 .2-5.1.6-9.5 1-13.1l.2-1.2c.2-2 .4-4 .4-5.8a2 2 0 0 1 2-2h104a2 2 0 0 1 2 1.7 166.3 166.3 0 0 0 4.7 17.4l.9 3c.3 1-.8 4.6-.4 5.9 18.2 66.5 1.9 124.3-6.3 159.4Z"
  ></path>
  <path
    class="mask view-back leg-left option-stirrup-9 visible-option"
    d="M695.3 23.5c-1.2-5.5-2.6-11-3.8-15.8l-.3-1.2-1.3-5.4a67 67 0 0 0-12.8-26H464.6a67.4 67.4 0 0 0-11.7 22l-.1.3c-1.1 3.7-2.1 7.5-3 11.3a197.6 197.6 0 0 0-3.3 21.3 67 67 0 0 0 .6 18.7c-1.5 32.6 1.4 73 6.6 91 2.7 11.5 8.1 55.3 16.1 130.1a1508 1508 0 0 0 2.6 23c.4 7-.7 28.8-1.5 35.1a170.2 170.2 0 0 0 .8 45 97.1 97.1 0 0 0-8.8 25.3c-1.9 5-3.2 9.7-4.3 13.8l-.7 2.3a97 97 0 0 0-4.3 76.6 86.4 86.4 0 0 0 50.7 52.4 158 158 0 0 0 55.6 9.1c8.7 0 18.2-.5 29-1.5a90.3 90.3 0 0 0 67.1-38.5 105.8 105.8 0 0 0 14-83.7 155.3 155.3 0 0 1 0-29l.1-1 .2-1.2a123.4 123.4 0 0 0 2.5-8.8l.4-1.7 3-39.5a231 231 0 0 0-4.8-37.5c-.5-21.4 5.6-99.6 9-116.3a673.8 673.8 0 0 0 16-148.6 67.4 67.4 0 0 0-1-21.6ZM630.8 43l.4 3c1.6 13.5-2.4 85.7-14 132.4-5.1 21-13.1 129-10.2 141.8 1.7 7.3 7.1 33 2.7 52.8l-.1.3a47 47 0 0 1-.4 1.7l-.3.8-.6 2.2-.5 1.5-.2.5-.2 1-.2.7-.3 1v.7l-.3 1.2-.2.6-.2 1.3-.6 4a186.9 186.9 0 0 0 1 53.3c3 10.9 3.6 39.9-23.9 42.4s-42.6 1-56.2-4c-9.9-3.5-19.8-22.5-9.5-40.7 3-5.2 5.3-18.3 7.6-22.2s.4-9.8 6.9-20.1a31.2 31.2 0 0 0 2-3.8l.4-1 .4-1 .3-1 .3-.9.3-1 .3-1 .4-1.6.2-1.2.2-1 .1-1.1.2-1v-1.2l.2-.9V379l.1-1.5V371a2.3 2.3 0 0 1 0-.3l-.2-1.7v-.4a136 136 0 0 0-.3-3.5c-1.2-9.6-2.3-19.4-1-28.1s3-41 1.6-52-14.5-143.3-20.9-163.5c-2.2-7.3-6-46.7-3.5-78.5.1-1.3-1.5-4.9-1.4-6a135 135 0 0 1 2.3-14.5l1.5-6a2 2 0 0 1 2-1.5h108a2 2 0 0 1 1.9 1.6l1.4 5.9.3 1c1.2 4.9 2.4 9.4 3.2 13.5.1 1.1-1.2 4.8-1 6.1Z"
  ></path>
  <defs>
    <filter id="a" x0="-50%" y0="-50%" width="200%" height="200%">
      <feGaussianBlur
        in="SourceAlpha"
        stdDeviation="8"
        result="blur"
      ></feGaussianBlur>
      <feOffset dy="2" dx="3"></feOffset>
      <feComposite
        in2="SourceAlpha"
        operator="arithmetic"
        k2="-1"
        k3="1"
        result="shadowDiff"
      ></feComposite>
      <feFlood flood-color="#000000" flood-opacity=".4"></feFlood>
      <feComposite in2="shadowDiff" operator="in"></feComposite>
      <feComposite
        in2="SourceGraphic"
        operator="over"
        result="firstfilter"
      ></feComposite>
      <feGaussianBlur
        in="firstfilter"
        stdDeviation="8"
        result="blur2"
      ></feGaussianBlur>
      <feOffset dy="-2" dx="-3"></feOffset>
      <feComposite
        in2="firstfilter"
        operator="arithmetic"
        k2="-1"
        k3="1"
        result="shadowDiff"
      ></feComposite>
      <feFlood flood-color="#000000" flood-opacity=".4"></feFlood>
      <feComposite in2="shadowDiff" operator="in"></feComposite>
      <feComposite in2="firstfilter" operator="over"></feComposite>
    </filter>
    <filter id="b" x0="-50%" y0="-50%" width="300%" height="300%">
      <feGaussianBlur
        in="SourceAlpha"
        stdDeviation="3"
        result="blur"
      ></feGaussianBlur>
      <feOffset dy="2" dx="3"></feOffset>
      <feComposite
        in2="SourceAlpha"
        operator="arithmetic"
        k2="-1"
        k3="1"
        result="shadowDiff"
      ></feComposite>
      <feFlood flood-color="#000000" flood-opacity=".3"></feFlood>
      <feComposite in2="shadowDiff" operator="in"></feComposite>
      <feComposite
        in2="SourceGraphic"
        operator="over"
        result="firstfilter"
      ></feComposite>
      <feGaussianBlur
        in="firstfilter"
        stdDeviation="3"
        result="blur2"
      ></feGaussianBlur>
      <feOffset dy="-2" dx="-3"></feOffset>
      <feComposite
        in2="firstfilter"
        operator="arithmetic"
        k2="-1"
        k3="1"
        result="shadowDiff"
      ></feComposite>
      <feFlood flood-color="#000000" flood-opacity=".3"></feFlood>
      <feComposite in2="shadowDiff" operator="in"></feComposite>
      <feComposite in2="firstfilter" operator="over"></feComposite>
    </filter>
    <filter id="shadowBlur" x="-50%" y="-50%" width="400%" height="400%">
      <feGaussianBlur in="SourceGraphic" stdDeviation="6"></feGaussianBlur>
    </filter>
    <clipPath id="SvgjsClipPath1000">
      <path
        class="mask view-front leg-left option-stirrup-5 hidden-option"
        d="M505.3 45a67 67 0 0 0-1-21.2c-1-5.4-2.4-11-4-17.2L499 .7A67 67 0 0 0 486-25h-212A66.6 66.6 0 0 0 261.8-1l-.2.4a264 264 0 0 0-5.9 27.6 67.4 67.4 0 0 0-.2 18.7c-1.9 20.5-1.7 41.7.6 54.6 1 6.6 6.8 50.5 11.6 86 7.8 58.5 12.6 94.6 13.8 102 4 24 6.3 45.6 6.6 54.8a100.5 100.5 0 0 0-2.4 33.7 156.8 156.8 0 0 0-1.9 23.4c-.3 5.1-1.3 17.5-2.3 27.3l-4.3 25-.2 1.4-.7 4.5v.5l-.3 2v.7l-.3 2v.4l-.3 2.6v.7l-.2 2v.8l-.2 2V487l.2 2.7.1 1 .3 2.8.1 1 .4 2.8.1.5.2 1a91 91 0 0 0 3.8 14.8l2.2 5.4.7 1.5 2 4 1 1.9a74.4 74.4 0 0 0 3.6 5.8l.1.1a75.1 75.1 0 0 0 4.7 6.1l.1.1a72 72 0 0 0 12.7 11.7l2.4 1.7a72.6 72.6 0 0 0 8.2 4.7c16 7.9 36.2 11.1 69.8 11.1H398.9c8.5 0 33.7-.1 56-14.7a78.3 78.3 0 0 0 14.9-12.5 77 77 0 0 0 5.7-7.1l.1-.1 1.3-1.8 2.9-4.7.4-.7.8-1.5c1.1-2 2.1-4.1 3.1-6.4l.7-1.5a81.8 81.8 0 0 0 3.5-10.4l.3-1.2a38.5 38.5 0 0 0 1.2-5.3l.3-1.2.8-4.8.1-1 .4-3.8.1-1 .4-4.4V469.1l-.2-3v-1.3a164 164 0 0 0-.4-3.7v-.6a158.8 158.8 0 0 0-6.9-32.5 274 274 0 0 1-4.7-31.9l-1.6-18.6a141.6 141.6 0 0 0-1.1-41.2c-.9-22.4 9-122.4 17.6-168.6 3.5-18.8 13.8-79.3 10.7-122.6Zm-74.6 110.8c-9.4 50.2-22 171.4-18 190.5 3 13.9.3 25.8.2 29.3s3.8 54.5 9.7 72.5a93.4 93.4 0 0 1 4 19.1v.3l.2 2.5.2 2.2V479.8l-.2 2.1v.5l-.2 1.7v.3l-.3 2-.1.3-.4 1.5a3.6 3.6 0 0 1 0 .4l-.5 1.7-.1.2-.5 1.4-.2.3-.6 1.4-.1.2-.7 1-.2.4a11.9 11.9 0 0 1-1 1 12.7 12.7 0 0 1-2.3 2c-6.4 4.2-16.8 4.2-20.8 4.2-4.5 0-41 1.2-52.1-4.3a9 9 0 0 1-1-.6l-.2-.1a7.3 7.3 0 0 1-.6-.5l-.2-.2-.7-.7a12 12 0 0 1-.7-1l-.2-.2a11 11 0 0 1-.5-.7l-.1-.3a23 23 0 0 1-.4-.9l-.1-.2-.5-1.1v-.2l-.4-1v-.4c-.2-.3-.2-.6-.3-1l-.1-.3-.3-1.4-.2-1.4v-.4l-.1-1v-.4l-.1-1.4v-4.9a2.4 2.4 0 0 1 0-.3v-3.6l.1-1.2v-.4l.2-1.6a1.6 1.6 0 0 0 0-.2l.1-1.3.1-.4.1-1.2.1-.4.4-2.9.1-.4v-.5c.7-3.8 1.5-7 2-9.2 2.6-9.1 5.8-50.5 5.6-54-.2-5.8 1.7-17.6 2.4-21s-3.2-11.8.8-23.4-4-64.4-6.3-78.2-24.2-181.3-25.5-188.5c-1-4.7-1.9-23.9 1-46 .1-1.4-1.4-5-1.2-6a191.7 191.7 0 0 1 4.4-20.6 2 2 0 0 1 1.9-1.5h107.6a2 2 0 0 1 2 1.6l1.4 5.9 3.4 14.5c.2 1-1.1 4.8-1 6 4.6 31.8-6 96-9 112.8Z"
        transform="matrix(1,0,0,1,0,-0.25)"
        style="display: none"
      ></path>
      <path
        class="mask view-side leg-left option-stirrup-5 hidden-option"
        d="M306.1 36.7a66.8 66.8 0 0 0-2.8-18.3 145.7 145.7 0 0 1-4.2-15.2l-.2-.8-.2-.7a67.2 67.2 0 0 0-13-26.6H77.3a66.7 66.7 0 0 0-14.7 40.2l-.1.9c-.7 5.1-1.1 11-1.5 17.6a66.8 66.8 0 0 0 1.5 17.6c-.7 57.4 6 159.7 15 198.6 3.6 15.4 5.3 50.6 2.6 65-20.6 23-38.3 41.7-46.1 49l-1.4.4-1.1.2-1.2.3-3.3.8-.5.2c-16 4.6-29 10-39.5 16.9a90.2 90.2 0 0 0-16.5 13.4 74.5 74.5 0 0 0-19.6 37.5 73 73 0 0 0 27.6 72l.6.5a86 86 0 0 0 11 7.3 93.4 93.4 0 0 0 11 5.2 94.9 94.9 0 0 0 20.1 5.5l2 .3 2 .3c5 .6 11.7 1.3 20.6 2H47l5.6.4 128.5-20.4a118 118 0 0 0 9.7-10c3.5-4 7.1-6.4 15.5-10l49.3-22 1.5-1.1 1.4-1.1a85 85 0 0 0 2.9-2.3l2-1.6a92.5 92.5 0 0 0 6.3-6.1l2.8-3.2v-.1a82.6 82.6 0 0 0 8-11.4l.5-.8 1-1.7a67 67 0 0 0 6-15c.5-1.3.9-2.7 1.2-4.2l.5-2 1-6a76 76 0 0 0 .7-5.7l.1-1.5v-.1l.2-3.8V390.8a118.3 118.3 0 0 0-.8-8.7l-.1-1a144 144 0 0 0-1.1-7.2l-.1-.6-.6-2.9-.1-.6-.6-2.8v-.3l-.8-3.1-.7-3-.6-2.8-1-4-3.3-13.6c-.1-1-2.7-16.1 4.7-65 4.9-31.5 11-58 11-58.2l1.8-7.3c9-37.7 23.7-99.8 6.6-173Zm-71.7 165.7c-2.1 9.2-24.8 111.6-15.8 152l4 16.9.3 1.3.2.8.4 1.9.2.6.5 2.3.6 2.5v.2l.4 2v.5l.4 1.8v.3c.3 1.4.6 2.7.7 4v.4l.2 1.5V399l-.3 1.5a2.8 2.8 0 0 1-.1.3l-.3 1.1-.2.5a15 15 0 0 1-1 2.6l-.2.1-.6 1c0 .2-.2.3-.3.5l-.6.7-.3.5-.7.8-.3.3-1.1 1-.5.4-.8.6-.6.4-.2.3a42.7 42.7 0 0 1-9.3 4.6c-27.8 10.7-48.6 16.5-67.3 38-11.2 12.9-17.9 11.2-22.9 11.2h-.1c-6.1 0-37.6-1.4-61.8-3l-5.4-.4h-1.1c-7.1-.6-13.2-1.1-17.2-1.6h-.2l-.8-.1h-.2l-.8-.2a30 30 0 0 1-6.3-1.7 27.8 27.8 0 0 1-3.3-1.6 21 21 0 0 1-3-2c-2.4-2-4.1-4.2-4.3-7a3.6 3.6 0 0 1 0-.5 5.4 5.4 0 0 1 0-.5l.1-.6c1.1-5.5 9-11.9 29.6-17.8l.8-.2h.6l.4-.2c5-1 13.4-2 24-9.2 11.8-8.2 51.2-52 63.6-66 19.4-22 12.4-95 7.2-117.4-7.9-34-14.8-140-13-192.2 0-1.4-1.9-5-1.8-6 .2-5.1.6-9.5 1-13.1l.2-1.2c.2-2 .4-4 .4-5.8a2 2 0 0 1 2-2h104a2 2 0 0 1 2 1.7 166.3 166.3 0 0 0 4.7 17.4l.9 3c.3 1-.8 4.6-.4 5.9 18.2 66.5 1.9 124.3-6.3 159.4Z"
        transform="matrix(1,0,0,1,0,-0.25)"
        style="display: none"
      ></path>
      <path
        class="mask view-back leg-left option-stirrup-5 hidden-option"
        d="M695.3 23.5c-1.2-5.5-2.6-11-3.8-15.8l-.3-1.2-1.3-5.4a67 67 0 0 0-12.8-26H464.6a67.4 67.4 0 0 0-11.7 22l-.1.3c-1.1 3.7-2.1 7.5-3 11.3a197.6 197.6 0 0 0-3.3 21.3 67 67 0 0 0 .6 18.7c-1.5 32.6 1.4 73 6.6 91 2.7 11.5 8.1 55.3 16.1 130.1a1508 1508 0 0 0 2.6 23c.4 7-.7 28.8-1.5 35.1a170.2 170.2 0 0 0 .8 45 97.1 97.1 0 0 0-8.8 25.3c-1.9 5-3.2 9.7-4.3 13.8l-.7 2.3a97 97 0 0 0-4.3 76.6 86.4 86.4 0 0 0 50.7 52.4 158 158 0 0 0 55.6 9.1c8.7 0 18.2-.5 29-1.5a90.3 90.3 0 0 0 67.1-38.5 105.8 105.8 0 0 0 14-83.7 155.3 155.3 0 0 1 0-29l.1-1 .2-1.2a123.4 123.4 0 0 0 2.5-8.8l.4-1.7 3-39.5a231 231 0 0 0-4.8-37.5c-.5-21.4 5.6-99.6 9-116.3a673.8 673.8 0 0 0 16-148.6 67.4 67.4 0 0 0-1-21.6ZM630.8 43l.4 3c1.6 13.5-2.4 85.7-14 132.4-5.1 21-13.1 129-10.2 141.8 1.7 7.3 7.1 33 2.7 52.8l-.1.3a47 47 0 0 1-.4 1.7l-.3.8-.6 2.2-.5 1.5-.2.5-.2 1-.2.7-.3 1v.7l-.3 1.2-.2.6-.2 1.3-.6 4a186.9 186.9 0 0 0 1 53.3c3 10.9 3.6 39.9-23.9 42.4s-42.6 1-56.2-4c-9.9-3.5-19.8-22.5-9.5-40.7 3-5.2 5.3-18.3 7.6-22.2s.4-9.8 6.9-20.1a31.2 31.2 0 0 0 2-3.8l.4-1 .4-1 .3-1 .3-.9.3-1 .3-1 .4-1.6.2-1.2.2-1 .1-1.1.2-1v-1.2l.2-.9V379l.1-1.5V371a2.3 2.3 0 0 1 0-.3l-.2-1.7v-.4a136 136 0 0 0-.3-3.5c-1.2-9.6-2.3-19.4-1-28.1s3-41 1.6-52-14.5-143.3-20.9-163.5c-2.2-7.3-6-46.7-3.5-78.5.1-1.3-1.5-4.9-1.4-6a135 135 0 0 1 2.3-14.5l1.5-6a2 2 0 0 1 2-1.5h108a2 2 0 0 1 1.9 1.6l1.4 5.9.3 1c1.2 4.9 2.4 9.4 3.2 13.5.1 1.1-1.2 4.8-1 6.1Z"
        transform="matrix(1,0,0,1,0,-0.25)"
        style="display: none"
      ></path>
      <path
        class="mask view-front leg-left option-stirrup-7 hidden-option"
        d="M505.3 45a67 67 0 0 0-1-21.2c-1-5.4-2.4-11-4-17.2L499 .7A67 67 0 0 0 486-25h-212A66.6 66.6 0 0 0 261.8-1l-.2.4a264 264 0 0 0-5.9 27.6 67.4 67.4 0 0 0-.2 18.7c-1.9 20.5-1.7 41.7.6 54.6 1 6.6 6.8 50.5 11.6 86 7.8 58.5 12.6 94.6 13.8 102 4 24 6.3 45.6 6.6 54.8a100.5 100.5 0 0 0-2.4 33.7 156.8 156.8 0 0 0-1.9 23.4c-.3 5.1-1.3 17.5-2.3 27.3l-4.3 25-.2 1.4-.7 4.5v.5l-.3 2v.7l-.3 2v.4l-.3 2.6v.7l-.2 2v.8l-.2 2V487l.2 2.7.1 1 .3 2.8.1 1 .4 2.8.1.5.2 1a91 91 0 0 0 3.8 14.8l2.2 5.4.7 1.5 2 4 1 1.9a74.4 74.4 0 0 0 3.6 5.8l.1.1a75.1 75.1 0 0 0 4.7 6.1l.1.1a72 72 0 0 0 12.7 11.7l2.4 1.7a72.6 72.6 0 0 0 8.2 4.7c16 7.9 36.2 11.1 69.8 11.1H398.9c8.5 0 33.7-.1 56-14.7a78.3 78.3 0 0 0 14.9-12.5 77 77 0 0 0 5.7-7.1l.1-.1 1.3-1.8 2.9-4.7.4-.7.8-1.5c1.1-2 2.1-4.1 3.1-6.4l.7-1.5a81.8 81.8 0 0 0 3.5-10.4l.3-1.2a38.5 38.5 0 0 0 1.2-5.3l.3-1.2.8-4.8.1-1 .4-3.8.1-1 .4-4.4V469.1l-.2-3v-1.3a164 164 0 0 0-.4-3.7v-.6a158.8 158.8 0 0 0-6.9-32.5 274 274 0 0 1-4.7-31.9l-1.6-18.6a141.6 141.6 0 0 0-1.1-41.2c-.9-22.4 9-122.4 17.6-168.6 3.5-18.8 13.8-79.3 10.7-122.6Zm-74.6 110.8c-9.4 50.2-22 171.4-18 190.5 3 13.9.3 25.8.2 29.3s3.8 54.5 9.7 72.5a93.4 93.4 0 0 1 4 19.1v.3l.2 2.5.2 2.2V479.8l-.2 2.1v.5l-.2 1.7v.3l-.3 2-.1.3-.4 1.5a3.6 3.6 0 0 1 0 .4l-.5 1.7-.1.2-.5 1.4-.2.3-.6 1.4-.1.2-.7 1-.2.4a11.9 11.9 0 0 1-1 1 12.7 12.7 0 0 1-2.3 2c-6.4 4.2-16.8 4.2-20.8 4.2-4.5 0-41 1.2-52.1-4.3a9 9 0 0 1-1-.6l-.2-.1a7.3 7.3 0 0 1-.6-.5l-.2-.2-.7-.7a12 12 0 0 1-.7-1l-.2-.2a11 11 0 0 1-.5-.7l-.1-.3a23 23 0 0 1-.4-.9l-.1-.2-.5-1.1v-.2l-.4-1v-.4c-.2-.3-.2-.6-.3-1l-.1-.3-.3-1.4-.2-1.4v-.4l-.1-1v-.4l-.1-1.4v-4.9a2.4 2.4 0 0 1 0-.3v-3.6l.1-1.2v-.4l.2-1.6a1.6 1.6 0 0 0 0-.2l.1-1.3.1-.4.1-1.2.1-.4.4-2.9.1-.4v-.5c.7-3.8 1.5-7 2-9.2 2.6-9.1 5.8-50.5 5.6-54-.2-5.8 1.7-17.6 2.4-21s-3.2-11.8.8-23.4-4-64.4-6.3-78.2-24.2-181.3-25.5-188.5c-1-4.7-1.9-23.9 1-46 .1-1.4-1.4-5-1.2-6a191.7 191.7 0 0 1 4.4-20.6 2 2 0 0 1 1.9-1.5h107.6a2 2 0 0 1 2 1.6l1.4 5.9 3.4 14.5c.2 1-1.1 4.8-1 6 4.6 31.8-6 96-9 112.8Z"
        transform="matrix(1,0,0,1,0,-0.25)"
        style="display: none"
      ></path>
      <path
        class="mask view-side leg-left option-stirrup-7 hidden-option"
        d="M306.1 36.7a66.8 66.8 0 0 0-2.8-18.3 145.7 145.7 0 0 1-4.2-15.2l-.2-.8-.2-.7a67.2 67.2 0 0 0-13-26.6H77.3a66.7 66.7 0 0 0-14.7 40.2l-.1.9c-.7 5.1-1.1 11-1.5 17.6a66.8 66.8 0 0 0 1.5 17.6c-.7 57.4 6 159.7 15 198.6 3.6 15.4 5.3 50.6 2.6 65-20.6 23-38.3 41.7-46.1 49l-1.4.4-1.1.2-1.2.3-3.3.8-.5.2c-16 4.6-29 10-39.5 16.9a90.2 90.2 0 0 0-16.5 13.4 74.5 74.5 0 0 0-19.6 37.5 73 73 0 0 0 27.6 72l.6.5a86 86 0 0 0 11 7.3 93.4 93.4 0 0 0 11 5.2 94.9 94.9 0 0 0 20.1 5.5l2 .3 2 .3c5 .6 11.7 1.3 20.6 2H47l5.6.4 128.5-20.4a118 118 0 0 0 9.7-10c3.5-4 7.1-6.4 15.5-10l49.3-22 1.5-1.1 1.4-1.1a85 85 0 0 0 2.9-2.3l2-1.6a92.5 92.5 0 0 0 6.3-6.1l2.8-3.2v-.1a82.6 82.6 0 0 0 8-11.4l.5-.8 1-1.7a67 67 0 0 0 6-15c.5-1.3.9-2.7 1.2-4.2l.5-2 1-6a76 76 0 0 0 .7-5.7l.1-1.5v-.1l.2-3.8V390.8a118.3 118.3 0 0 0-.8-8.7l-.1-1a144 144 0 0 0-1.1-7.2l-.1-.6-.6-2.9-.1-.6-.6-2.8v-.3l-.8-3.1-.7-3-.6-2.8-1-4-3.3-13.6c-.1-1-2.7-16.1 4.7-65 4.9-31.5 11-58 11-58.2l1.8-7.3c9-37.7 23.7-99.8 6.6-173Zm-71.7 165.7c-2.1 9.2-24.8 111.6-15.8 152l4 16.9.3 1.3.2.8.4 1.9.2.6.5 2.3.6 2.5v.2l.4 2v.5l.4 1.8v.3c.3 1.4.6 2.7.7 4v.4l.2 1.5V399l-.3 1.5a2.8 2.8 0 0 1-.1.3l-.3 1.1-.2.5a15 15 0 0 1-1 2.6l-.2.1-.6 1c0 .2-.2.3-.3.5l-.6.7-.3.5-.7.8-.3.3-1.1 1-.5.4-.8.6-.6.4-.2.3a42.7 42.7 0 0 1-9.3 4.6c-27.8 10.7-48.6 16.5-67.3 38-11.2 12.9-17.9 11.2-22.9 11.2h-.1c-6.1 0-37.6-1.4-61.8-3l-5.4-.4h-1.1c-7.1-.6-13.2-1.1-17.2-1.6h-.2l-.8-.1h-.2l-.8-.2a30 30 0 0 1-6.3-1.7 27.8 27.8 0 0 1-3.3-1.6 21 21 0 0 1-3-2c-2.4-2-4.1-4.2-4.3-7a3.6 3.6 0 0 1 0-.5 5.4 5.4 0 0 1 0-.5l.1-.6c1.1-5.5 9-11.9 29.6-17.8l.8-.2h.6l.4-.2c5-1 13.4-2 24-9.2 11.8-8.2 51.2-52 63.6-66 19.4-22 12.4-95 7.2-117.4-7.9-34-14.8-140-13-192.2 0-1.4-1.9-5-1.8-6 .2-5.1.6-9.5 1-13.1l.2-1.2c.2-2 .4-4 .4-5.8a2 2 0 0 1 2-2h104a2 2 0 0 1 2 1.7 166.3 166.3 0 0 0 4.7 17.4l.9 3c.3 1-.8 4.6-.4 5.9 18.2 66.5 1.9 124.3-6.3 159.4Z"
        transform="matrix(1,0,0,1,0,-0.25)"
        style="display: none"
      ></path>
      <path
        class="mask view-back leg-left option-stirrup-7 hidden-option"
        d="M695.3 23.5c-1.2-5.5-2.6-11-3.8-15.8l-.3-1.2-1.3-5.4a67 67 0 0 0-12.8-26H464.6a67.4 67.4 0 0 0-11.7 22l-.1.3c-1.1 3.7-2.1 7.5-3 11.3a197.6 197.6 0 0 0-3.3 21.3 67 67 0 0 0 .6 18.7c-1.5 32.6 1.4 73 6.6 91 2.7 11.5 8.1 55.3 16.1 130.1a1508 1508 0 0 0 2.6 23c.4 7-.7 28.8-1.5 35.1a170.2 170.2 0 0 0 .8 45 97.1 97.1 0 0 0-8.8 25.3c-1.9 5-3.2 9.7-4.3 13.8l-.7 2.3a97 97 0 0 0-4.3 76.6 86.4 86.4 0 0 0 50.7 52.4 158 158 0 0 0 55.6 9.1c8.7 0 18.2-.5 29-1.5a90.3 90.3 0 0 0 67.1-38.5 105.8 105.8 0 0 0 14-83.7 155.3 155.3 0 0 1 0-29l.1-1 .2-1.2a123.4 123.4 0 0 0 2.5-8.8l.4-1.7 3-39.5a231 231 0 0 0-4.8-37.5c-.5-21.4 5.6-99.6 9-116.3a673.8 673.8 0 0 0 16-148.6 67.4 67.4 0 0 0-1-21.6ZM630.8 43l.4 3c1.6 13.5-2.4 85.7-14 132.4-5.1 21-13.1 129-10.2 141.8 1.7 7.3 7.1 33 2.7 52.8l-.1.3a47 47 0 0 1-.4 1.7l-.3.8-.6 2.2-.5 1.5-.2.5-.2 1-.2.7-.3 1v.7l-.3 1.2-.2.6-.2 1.3-.6 4a186.9 186.9 0 0 0 1 53.3c3 10.9 3.6 39.9-23.9 42.4s-42.6 1-56.2-4c-9.9-3.5-19.8-22.5-9.5-40.7 3-5.2 5.3-18.3 7.6-22.2s.4-9.8 6.9-20.1a31.2 31.2 0 0 0 2-3.8l.4-1 .4-1 .3-1 .3-.9.3-1 .3-1 .4-1.6.2-1.2.2-1 .1-1.1.2-1v-1.2l.2-.9V379l.1-1.5V371a2.3 2.3 0 0 1 0-.3l-.2-1.7v-.4a136 136 0 0 0-.3-3.5c-1.2-9.6-2.3-19.4-1-28.1s3-41 1.6-52-14.5-143.3-20.9-163.5c-2.2-7.3-6-46.7-3.5-78.5.1-1.3-1.5-4.9-1.4-6a135 135 0 0 1 2.3-14.5l1.5-6a2 2 0 0 1 2-1.5h108a2 2 0 0 1 1.9 1.6l1.4 5.9.3 1c1.2 4.9 2.4 9.4 3.2 13.5.1 1.1-1.2 4.8-1 6.1Z"
        transform="matrix(1,0,0,1,0,-0.25)"
        style="display: none"
      ></path>
      <path
        class="mask view-front leg-left option-stirrup-9 visible-option"
        d="M505.3 45a67 67 0 0 0-1-21.2c-1-5.4-2.4-11-4-17.2L499 .7A67 67 0 0 0 486-25h-212A66.6 66.6 0 0 0 261.8-1l-.2.4a264 264 0 0 0-5.9 27.6 67.4 67.4 0 0 0-.2 18.7c-1.9 20.5-1.7 41.7.6 54.6 1 6.6 6.8 50.5 11.6 86 7.8 58.5 12.6 94.6 13.8 102 4 24 6.3 45.6 6.6 54.8a100.5 100.5 0 0 0-2.4 33.7 156.8 156.8 0 0 0-1.9 23.4c-.3 5.1-1.3 17.5-2.3 27.3l-4.3 25-.2 1.4-.7 4.5v.5l-.3 2v.7l-.3 2v.4l-.3 2.6v.7l-.2 2v.8l-.2 2V487l.2 2.7.1 1 .3 2.8.1 1 .4 2.8.1.5.2 1a91 91 0 0 0 3.8 14.8l2.2 5.4.7 1.5 2 4 1 1.9a74.4 74.4 0 0 0 3.6 5.8l.1.1a75.1 75.1 0 0 0 4.7 6.1l.1.1a72 72 0 0 0 12.7 11.7l2.4 1.7a72.6 72.6 0 0 0 8.2 4.7c16 7.9 36.2 11.1 69.8 11.1H398.9c8.5 0 33.7-.1 56-14.7a78.3 78.3 0 0 0 14.9-12.5 77 77 0 0 0 5.7-7.1l.1-.1 1.3-1.8 2.9-4.7.4-.7.8-1.5c1.1-2 2.1-4.1 3.1-6.4l.7-1.5a81.8 81.8 0 0 0 3.5-10.4l.3-1.2a38.5 38.5 0 0 0 1.2-5.3l.3-1.2.8-4.8.1-1 .4-3.8.1-1 .4-4.4V469.1l-.2-3v-1.3a164 164 0 0 0-.4-3.7v-.6a158.8 158.8 0 0 0-6.9-32.5 274 274 0 0 1-4.7-31.9l-1.6-18.6a141.6 141.6 0 0 0-1.1-41.2c-.9-22.4 9-122.4 17.6-168.6 3.5-18.8 13.8-79.3 10.7-122.6Zm-74.6 110.8c-9.4 50.2-22 171.4-18 190.5 3 13.9.3 25.8.2 29.3s3.8 54.5 9.7 72.5a93.4 93.4 0 0 1 4 19.1v.3l.2 2.5.2 2.2V479.8l-.2 2.1v.5l-.2 1.7v.3l-.3 2-.1.3-.4 1.5a3.6 3.6 0 0 1 0 .4l-.5 1.7-.1.2-.5 1.4-.2.3-.6 1.4-.1.2-.7 1-.2.4a11.9 11.9 0 0 1-1 1 12.7 12.7 0 0 1-2.3 2c-6.4 4.2-16.8 4.2-20.8 4.2-4.5 0-41 1.2-52.1-4.3a9 9 0 0 1-1-.6l-.2-.1a7.3 7.3 0 0 1-.6-.5l-.2-.2-.7-.7a12 12 0 0 1-.7-1l-.2-.2a11 11 0 0 1-.5-.7l-.1-.3a23 23 0 0 1-.4-.9l-.1-.2-.5-1.1v-.2l-.4-1v-.4c-.2-.3-.2-.6-.3-1l-.1-.3-.3-1.4-.2-1.4v-.4l-.1-1v-.4l-.1-1.4v-4.9a2.4 2.4 0 0 1 0-.3v-3.6l.1-1.2v-.4l.2-1.6a1.6 1.6 0 0 0 0-.2l.1-1.3.1-.4.1-1.2.1-.4.4-2.9.1-.4v-.5c.7-3.8 1.5-7 2-9.2 2.6-9.1 5.8-50.5 5.6-54-.2-5.8 1.7-17.6 2.4-21s-3.2-11.8.8-23.4-4-64.4-6.3-78.2-24.2-181.3-25.5-188.5c-1-4.7-1.9-23.9 1-46 .1-1.4-1.4-5-1.2-6a191.7 191.7 0 0 1 4.4-20.6 2 2 0 0 1 1.9-1.5h107.6a2 2 0 0 1 2 1.6l1.4 5.9 3.4 14.5c.2 1-1.1 4.8-1 6 4.6 31.8-6 96-9 112.8Z"
        transform="matrix(1,0,0,1,0,-0.25)"
      ></path>
      <path
        class="mask view-side leg-left option-stirrup-9 visible-option"
        d="M306.1 36.7a66.8 66.8 0 0 0-2.8-18.3 145.7 145.7 0 0 1-4.2-15.2l-.2-.8-.2-.7a67.2 67.2 0 0 0-13-26.6H77.3a66.7 66.7 0 0 0-14.7 40.2l-.1.9c-.7 5.1-1.1 11-1.5 17.6a66.8 66.8 0 0 0 1.5 17.6c-.7 57.4 6 159.7 15 198.6 3.6 15.4 5.3 50.6 2.6 65-20.6 23-38.3 41.7-46.1 49l-1.4.4-1.1.2-1.2.3-3.3.8-.5.2c-16 4.6-29 10-39.5 16.9a90.2 90.2 0 0 0-16.5 13.4 74.5 74.5 0 0 0-19.6 37.5 73 73 0 0 0 27.6 72l.6.5a86 86 0 0 0 11 7.3 93.4 93.4 0 0 0 11 5.2 94.9 94.9 0 0 0 20.1 5.5l2 .3 2 .3c5 .6 11.7 1.3 20.6 2H47l5.6.4 128.5-20.4a118 118 0 0 0 9.7-10c3.5-4 7.1-6.4 15.5-10l49.3-22 1.5-1.1 1.4-1.1a85 85 0 0 0 2.9-2.3l2-1.6a92.5 92.5 0 0 0 6.3-6.1l2.8-3.2v-.1a82.6 82.6 0 0 0 8-11.4l.5-.8 1-1.7a67 67 0 0 0 6-15c.5-1.3.9-2.7 1.2-4.2l.5-2 1-6a76 76 0 0 0 .7-5.7l.1-1.5v-.1l.2-3.8V390.8a118.3 118.3 0 0 0-.8-8.7l-.1-1a144 144 0 0 0-1.1-7.2l-.1-.6-.6-2.9-.1-.6-.6-2.8v-.3l-.8-3.1-.7-3-.6-2.8-1-4-3.3-13.6c-.1-1-2.7-16.1 4.7-65 4.9-31.5 11-58 11-58.2l1.8-7.3c9-37.7 23.7-99.8 6.6-173Zm-71.7 165.7c-2.1 9.2-24.8 111.6-15.8 152l4 16.9.3 1.3.2.8.4 1.9.2.6.5 2.3.6 2.5v.2l.4 2v.5l.4 1.8v.3c.3 1.4.6 2.7.7 4v.4l.2 1.5V399l-.3 1.5a2.8 2.8 0 0 1-.1.3l-.3 1.1-.2.5a15 15 0 0 1-1 2.6l-.2.1-.6 1c0 .2-.2.3-.3.5l-.6.7-.3.5-.7.8-.3.3-1.1 1-.5.4-.8.6-.6.4-.2.3a42.7 42.7 0 0 1-9.3 4.6c-27.8 10.7-48.6 16.5-67.3 38-11.2 12.9-17.9 11.2-22.9 11.2h-.1c-6.1 0-37.6-1.4-61.8-3l-5.4-.4h-1.1c-7.1-.6-13.2-1.1-17.2-1.6h-.2l-.8-.1h-.2l-.8-.2a30 30 0 0 1-6.3-1.7 27.8 27.8 0 0 1-3.3-1.6 21 21 0 0 1-3-2c-2.4-2-4.1-4.2-4.3-7a3.6 3.6 0 0 1 0-.5 5.4 5.4 0 0 1 0-.5l.1-.6c1.1-5.5 9-11.9 29.6-17.8l.8-.2h.6l.4-.2c5-1 13.4-2 24-9.2 11.8-8.2 51.2-52 63.6-66 19.4-22 12.4-95 7.2-117.4-7.9-34-14.8-140-13-192.2 0-1.4-1.9-5-1.8-6 .2-5.1.6-9.5 1-13.1l.2-1.2c.2-2 .4-4 .4-5.8a2 2 0 0 1 2-2h104a2 2 0 0 1 2 1.7 166.3 166.3 0 0 0 4.7 17.4l.9 3c.3 1-.8 4.6-.4 5.9 18.2 66.5 1.9 124.3-6.3 159.4Z"
        transform="matrix(1,0,0,1,0,-0.25)"
      ></path>
      <path
        class="mask view-back leg-left option-stirrup-9 visible-option"
        d="M695.3 23.5c-1.2-5.5-2.6-11-3.8-15.8l-.3-1.2-1.3-5.4a67 67 0 0 0-12.8-26H464.6a67.4 67.4 0 0 0-11.7 22l-.1.3c-1.1 3.7-2.1 7.5-3 11.3a197.6 197.6 0 0 0-3.3 21.3 67 67 0 0 0 .6 18.7c-1.5 32.6 1.4 73 6.6 91 2.7 11.5 8.1 55.3 16.1 130.1a1508 1508 0 0 0 2.6 23c.4 7-.7 28.8-1.5 35.1a170.2 170.2 0 0 0 .8 45 97.1 97.1 0 0 0-8.8 25.3c-1.9 5-3.2 9.7-4.3 13.8l-.7 2.3a97 97 0 0 0-4.3 76.6 86.4 86.4 0 0 0 50.7 52.4 158 158 0 0 0 55.6 9.1c8.7 0 18.2-.5 29-1.5a90.3 90.3 0 0 0 67.1-38.5 105.8 105.8 0 0 0 14-83.7 155.3 155.3 0 0 1 0-29l.1-1 .2-1.2a123.4 123.4 0 0 0 2.5-8.8l.4-1.7 3-39.5a231 231 0 0 0-4.8-37.5c-.5-21.4 5.6-99.6 9-116.3a673.8 673.8 0 0 0 16-148.6 67.4 67.4 0 0 0-1-21.6ZM630.8 43l.4 3c1.6 13.5-2.4 85.7-14 132.4-5.1 21-13.1 129-10.2 141.8 1.7 7.3 7.1 33 2.7 52.8l-.1.3a47 47 0 0 1-.4 1.7l-.3.8-.6 2.2-.5 1.5-.2.5-.2 1-.2.7-.3 1v.7l-.3 1.2-.2.6-.2 1.3-.6 4a186.9 186.9 0 0 0 1 53.3c3 10.9 3.6 39.9-23.9 42.4s-42.6 1-56.2-4c-9.9-3.5-19.8-22.5-9.5-40.7 3-5.2 5.3-18.3 7.6-22.2s.4-9.8 6.9-20.1a31.2 31.2 0 0 0 2-3.8l.4-1 .4-1 .3-1 .3-.9.3-1 .3-1 .4-1.6.2-1.2.2-1 .1-1.1.2-1v-1.2l.2-.9V379l.1-1.5V371a2.3 2.3 0 0 1 0-.3l-.2-1.7v-.4a136 136 0 0 0-.3-3.5c-1.2-9.6-2.3-19.4-1-28.1s3-41 1.6-52-14.5-143.3-20.9-163.5c-2.2-7.3-6-46.7-3.5-78.5.1-1.3-1.5-4.9-1.4-6a135 135 0 0 1 2.3-14.5l1.5-6a2 2 0 0 1 2-1.5h108a2 2 0 0 1 1.9 1.6l1.4 5.9.3 1c1.2 4.9 2.4 9.4 3.2 13.5.1 1.1-1.2 4.8-1 6.1Z"
        transform="matrix(1,0,0,1,0,-0.25)"
      ></path>
    </clipPath>
  </defs>
  <ellipse
    rx="92.5"
    ry="12.5"
    cx="102.47086143493652"
    cy="457.88465118408203"
    filter="url(#shadowBlur)"
    fill="#777777"
    fill-opacity="0.7"
    class="part-shadow view-side"
    clip-path="url(#SvgjsClipPath1000)"
  ></ellipse>
  <ellipse
    rx="55"
    ry="12.5"
    cx="383.67506408691406"
    cy="497.0107727050781"
    filter="url(#shadowBlur)"
    fill="#777777"
    fill-opacity="0.7"
    class="part-shadow view-front"
    clip-path="url(#SvgjsClipPath1000)"
  ></ellipse>
  <ellipse
    rx="55"
    ry="12.5"
    cx="560.9958190917969"
    cy="482.0319890975952"
    filter="url(#shadowBlur)"
    fill="#777777"
    fill-opacity="0.7"
    class="part-shadow view-back"
    clip-path="url(#SvgjsClipPath1000)"
  ></ellipse>
</svg>
