<svg
  xmlns="http://www.w3.org/2000/svg"
  viewBox="0 0 637.3953247070312 394.60430908203125"
  data-layout="base"
  version="1.1"
  xmlns:xlink="http://www.w3.org/1999/xlink"
  class="svg-template shadow-applied"
  data-upright="true"
>
  <path
    d="M425 17a2.2 2.2 0 010 .4l-1 5.8c0 .6-.2 1.2-.3 1.7a669.9 669.9 0 00-2 12.1c-.2 1.2-2.8 4.7-3 6a1497 1497 0 00-6.9 52c-6 51-10.3 106-7.7 118.4 2.9 13.9.3 25.7.2 29.2s3.7 54.6 9.7 72.5c5.2 15.8 7 40-.7 48.2-5.6 6.2-18.6 6.2-23.1 6.2s-41 1.2-52.2-4.3-5.8-34.7-3.3-43.9 5.7-50.5 5.5-54c-.2-5.8 1.6-17.6 2.4-21s-3.2-11.8.8-23.4-4-64.4-6.3-78.2a44018.7 44018.7 0 01-13.8-101.8c-.2-1.3-2.7-4.8-2.8-6l-.2-1.2-1.5-10.8-1-7.6a2 2 0 012-2.3h103.3a2 2 0 012 2z"
    class="part-body view-front leg-left color1"
    filter="url(#inner-shadow-big)"
    fill="#f5f5f5"
    style="fill: rgb(245, 245, 245)"
  ></path>
  <path
    d="M247.8 17a1.7 1.7 0 010 .3c-1 6.4-2.1 12.6-3.3 18.4l-.2 1.3c-.3 1.2-3 4.7-3.3 6l-1 4.5-4.2 17.7-1 4.1a2 2 0 010 .2c-.5 2.3-2 8.6-3.8 17.7l-.8 4.3-3.4 17.7c-6.4 36-13.5 86.5-7.8 112.1 8.3 37.1 16.9 51.9-9.3 61.9-27.8 10.6-48.6 16.4-67.3 38-11.2 12.8-17.9 11.1-22.9 11.1-8.5 0-73-3-87.6-5.3s-34.4-18.2 12.7-31.7c4.7-1.3 13.9-1.5 25.7-9.7s51.2-52 63.7-66c19.4-21.9 12.3-95 7.1-117.4-2.8-12.2-5.5-34-7.8-59.2-.1-1.3-2.4-4.9-2.5-6l-.1-1.3-1.4-18.6a2 2 0 012-2.1h114.5a2 2 0 012 2z"
    class="part-body view-side leg-left color1"
    filter="url(#inner-shadow-big)"
    fill="#f5f5f5"
    style="fill: rgb(245, 245, 245)"
  ></path>
  <path
    d="M607.4 17.3q-1.2 7.3-2.5 14l-1 4.4-.2 1.3c-.3 1.2-3.1 4.7-3.4 6l-.6 2.5-.5 2c-.8 4-1.7 10.2-2.7 17.6l-.5 4.4-1.8 17.6-.4 4.4-.8 8.8-.2 1.9v.8a1212.5 1212.5 0 00-3.5 53.5l-.2 4.9c-.4 9.1-.4 16.6-.2 21.4a27.1 27.1 0 00.5 4.3c.7 2.9 1.9 8.6 2.9 15.6a98.1 98.1 0 01-1.6 42.3c-5.6 16.2-4.7 54.9-1.7 65.7s3.6 39.9-23.9 42.5-42.6 1-56.2-4c-9.9-3.6-19.8-22.6-9.5-40.8 3-5.2 5.3-18.3 7.6-22.2s.4-9.7 6.9-20.1 5.9-24.5 4.8-34.1-2.3-19.4-1-28.1l.1-1.2a368.7 368.7 0 002-36v-2.2a105.4 105.4 0 00-.5-12.5l-4.7-42.8-1.1-10.5-.8-6.8v-.4l-.5-4.3a6931.9 6931.9 0 00-4.6-39.7l-.5-4.5c-.2-1.4-2.7-4.9-2.8-6l-.2-1.3-.5-4.3-2-14.1a2 2 0 012-2.3h101.9a2 2 0 011.9 2.3z"
    class="part-body view-back leg-left color1"
    filter="url(#inner-shadow-big)"
    fill="#f5f5f5"
    style="fill: rgb(245, 245, 245)"
  ></path>
  <path
    d="M413.3 363.3c-5.6 6.2-18.6 6.2-23.1 6.2s-41 1.2-52.2-4.3c-8.6-4.2-7.4-22.4-5.3-34.7 19.5-5 60.1-7 84.6-1.1 2.1 13.5 1.5 28-4 34z"
    class="part-toe view-front leg-left color1 part-outline"
    filter="url(#inner-shadow-small)"
    fill="#f5f5f5"
    style="fill: rgb(245, 245, 245)"
  ></path>
  <path
    d="M57.5 329.3a375 375 0 01-25.7-2.3c-14.7-2.4-34.3-18.2 12.8-31.7l1.7-.4c-2.2 7.4 2 25 11.2 34.4z"
    class="part-toe view-side leg-left color1 part-outline"
    filter="url(#inner-shadow-small)"
    fill="#f5f5f5"
    style="fill: rgb(245, 245, 245)"
  ></path>
  <path
    d="M218.9 278.5a275.6 275.6 0 01-33.3-30.8c20.8-1 30.8-10.8 35.4-17.5 6.3 25.8 11 39.2-2.1 48.3z"
    class="part-heel view-side leg-left color1 part-outline"
    filter="url(#inner-shadow-small)"
    fill="#f5f5f5"
    style="fill: rgb(245, 245, 245)"
  ></path>
  <path
    d="M592 240a47.8 47.8 0 01-1.3 5.1 66 66 0 00-2.7 12.4c-4.4 6.6-4.1 12.2-6.5 23.6-5.3 25-40.5 19.7-55.2 9-10-7.3-10.9-19.1-10.4-27.6 4-8.8 3.8-19.4 3-27.7 21.6-15.8 40.3-27.5 73.2 5.2z"
    class="part-heel view-back leg-left color1 part-outline"
    filter="url(#inner-shadow-small)"
    fill="#f5f5f5"
    style="fill: rgb(245, 245, 245)"
  ></path>
  <path
    id="a"
    d="M36.3 261l22.3 67.9"
    class="area-toetext view-side leg-left color2"
    fill="#2040a5"
    style="fill: rgb(32, 64, 165)"
  ></path>
  <path
    id="b"
    d="M333 327c11.4-2.8 29-4.5 46.3-4.5 10.3 0 25 .6 37.6 3.5"
    class="area-toetext view-front leg-left color2"
    fill="#2040a5"
    style="fill: rgb(32, 64, 165)"
  ></path>
  <path
    d="M598.6 50.5l-1.2 12.8h-88.5l-1-12.8z"
    class="part-design view-back leg-left color2"
    fill="#2040a5"
    style="fill: rgb(32, 64, 165)"
  ></path>
  <path
    d="M598.6 76.1L597.4 89h-88.5L508 76z"
    class="part-design view-back leg-left color3"
    fill="#f8ba1d"
    style="fill: rgb(248, 186, 29)"
  ></path>
  <path
    d="M598.6 101.8l-1.2 12.8h-88.5l-1-12.8z"
    class="part-design view-back leg-left color4"
    fill="#088f5b"
    style="fill: rgb(8, 143, 91)"
  ></path>
  <path
    d="M134 50.5h105.2l-1.8 12.8H134.8l-.8-12.8z"
    class="part-design view-side leg-left color2"
    fill="#2040a5"
    style="fill: rgb(32, 64, 165)"
  ></path>
  <path
    d="M134 76.1h105.2L237.4 89H134.8l-.8-12.8z"
    class="part-design view-side leg-left color3"
    fill="#f8ba1d"
    style="fill: rgb(248, 186, 29)"
  ></path>
  <path
    d="M134 101.8h105.2l-1.8 12.8H134.8l-.8-12.8z"
    class="part-design view-side leg-left color4"
    fill="#088f5b"
    style="fill: rgb(8, 143, 91)"
  ></path>
  <path
    d="M417.5 50.5l-1.1 12.8h-91l-1-12.8z"
    class="part-design view-front leg-left color2"
    fill="#2040a5"
    style="fill: rgb(32, 64, 165)"
  ></path>
  <path
    d="M417.5 76.2L416.4 89h-91l-1-12.8z"
    class="part-design view-front leg-left color3"
    fill="#f8ba1d"
    style="fill: rgb(248, 186, 29)"
  ></path>
  <path
    d="M417.5 101.8l-1.1 12.8h-91l-1-12.8z"
    class="part-design view-front leg-left color4"
    fill="#088f5b"
    style="fill: rgb(8, 143, 91)"
  ></path>
  <text
    class="part-toetext view-side leg-left color2 __className_c224bf"
    dx="0"
    dy="-1.1em"
    fill="#2040a5"
    style="fill: rgb(32, 64, 165)"
  >
    <textPath xlink:href="#a" startOffset="50%" text-anchor="middle">
      ELITE
    </textPath>
  </text>
  <text
    class="part-toetext view-side leg-left color2 __className_c224bf"
    dx="0"
    dy="0"
    fill="#2040a5"
    style="fill: rgb(32, 64, 165)"
  >
    <textPath xlink:href="#a" startOffset="50%" text-anchor="middle">
      SPORT SOCKS
    </textPath>
  </text>
  <text
    class="part-toetext view-front leg-left color2 __className_c224bf"
    dx="0"
    dy="-1.1em"
    fill="#2040a5"
    style="fill: rgb(32, 64, 165)"
  >
    <textPath xlink:href="#b" startOffset="50%" text-anchor="middle">
      ELITE
    </textPath>
  </text>
  <text
    class="part-toetext view-front leg-left color2 __className_c224bf"
    dx="0"
    dy="0"
    fill="#2040a5"
    style="fill: rgb(32, 64, 165)"
  >
    <textPath xlink:href="#b" startOffset="50%" text-anchor="middle">
      SPORT SOCKS
    </textPath>
  </text>
  <path
    d="M475.3-25H267.6a67 67 0 00-14.2 50.9l2.6 19.7a67.6 67.6 0 004.2 15.8c7.9 59.2 11.6 87.2 12.7 93.9 4 24 6.3 45.6 6.6 54.8a100.5 100.5 0 00-2.4 33.7 156.8 156.8 0 00-1.9 23.3c-.3 6-1.6 21.6-2.8 31.7l-.3.4-3.5 20.4-.2 1.4-.7 4.4v.6l-.3 1.9v.7l-.3 2v.4l-.3 2.6v.7l-.2 2v.7l-.1 2.2v.7l-.1 2.8v10.5l.1.8.2 2.6.1 1.1c0 1 .2 1.8.3 2.8l.1 1 .4 2.9.1.4.1.8a102.7 102.7 0 004 15l2 5.3.1.1a50.7 50.7 0 002.7 5.5l.9 1.6a89 89 0 003.8 6.2 75.1 75.1 0 004.6 6l1.6 1.8c1.4 1.5 2.7 2.9 4.2 4.2l2.1 2a70.7 70.7 0 007.6 5.7 70.5 70.5 0 008 4.6c10.4 5.1 22.7 8.3 38.5 9.8 5.6.6 12 1 19 1.1l4.8.1 7.5.1H390.4c9.8 0 39.3-.2 63.4-20.2a75.7 75.7 0 0013.2-14.1l1.3-1.9 3-4.8.5-.8.7-1.3c1.1-2 2.1-4.1 3.1-6.4v-.1a55.5 55.5 0 002.4-6l.4-1.2v-.2l1.7-5.6.3-1.3v-.2l.9-3.8.2-1.2.8-4.9.2-1 .4-3.7.1-1 .3-4.4v-.8l.1-3.6v-1-9l-.3-3V332l-.4-3.8V327.6a159.2 159.2 0 00-7-32.6 501.2 501.2 0 01-6.4-50.4 141.6 141.6 0 00-1-41.3c-.6-17.7 5.5-87.3 13.2-140.9a67.7 67.7 0 004.3-15.1 476.6 476.6 0 013.3-18.9A66.9 66.9 0 00475.3-25zM425 17.3l-1 5.9-2.4 13.8c-.1 1.2-2.7 4.6-3 6-8.6 56.9-18 153.5-14.5 170.4 2.9 13.9.3 25.7.2 29.2s3.7 54.6 9.7 72.5a93.4 93.4 0 014 19.2v.3l.2 2.4.1 2.2v.5l.1 4.5v2.7l-.2 2v.5l-.3 1.8v.3l-.3 1.9v.3l-.4 1.6a3.6 3.6 0 010 .3l-.6 1.7v.3l-.6 1.3-.1.4-.7 1.4v.1l-.8 1.1-.2.3a10.7 10.7 0 01-.9 1.1 10.8 10.8 0 01-1.1 1.1c-6.1 5-17.8 5-22 5-1.8 0-9 .3-17.5 0h-4c-4.8-.1-9.8-.4-14.5-.8a52.4 52.4 0 01-16.1-3.5 9 9 0 01-1-.5l-.2-.2a7.3 7.3 0 01-.6-.5l-.2-.2-.7-.6v-.1a12 12 0 01-.7-1l-.2-.1a11 11 0 01-.4-.8l-.2-.3a23 23 0 01-.4-.8l-.1-.2-.5-1.2v-.2l-.4-1v-.3l-.3-1v-.4l-.4-1.3a.3.3 0 000-.1l-.1-1.3v-.4l-.2-1.1v-.4l-.1-1.4V348v-.4-1.6-1.3a2.4 2.4 0 010-.3V343v-.4-1.7l.2-1.2v-.4l.1-1.5a1.6 1.6 0 000-.3l.2-1.3v-.4l.2-1.1v-.4l.4-3 .1-.3.1-.6c.7-3.7 1.4-7 2-9.1 2.5-9.2 5.7-50.6 5.6-54-.3-5.9 1.6-17.6 2.3-21s-3.1-11.9.9-23.5-4.1-64.4-6.4-78.1c-1.1-7.2-7.6-55.7-13.8-101.8-.2-1.3-2.6-4.8-2.8-6l-2.7-19.6a2 2 0 012-2.3H423a2 2 0 012 2.3z"
    class="mask view-front leg-left"
  ></path>
  <path
    d="M311.4 3.2A66.8 66.8 0 00298-25H79a67.2 67.2 0 00-14.6 46.3v.5l1.5 20.6a67.2 67.2 0 003.5 16.4 484 484 0 008.4 58.1c3.6 15.8 5.3 50.6 2.6 65.1-20.6 23-38.3 41.6-46.1 49l-1.1.2-1.5.4-1 .2-3.4.9-.7.2a180 180 0 00-25.5 9.3 106.9 106.9 0 00-19.4 11.4A79.3 79.3 0 00-27 261a78.6 78.6 0 00-5.7 6.2 74.7 74.7 0 00-5.7 7.8 74 74 0 00-9 19.8 72.3 72.3 0 00-2.7 17.8 74 74 0 0026.3 57.8 90.7 90.7 0 0045.4 20.8l1.8.2 2.2.3c5 .7 11.7 1.3 20.6 2h1.3l5.6.4L174.2 380a112.9 112.9 0 0017.1-16c3.6-4.2 7.3-6.6 16-10.3l48.8-21.8 1.5-1.1 1.5-1.1a81.5 81.5 0 0013.8-13.2l.2-.2 1.5-1.8v-.1a79.9 79.9 0 0015.5-33l1-6a89.3 89.3 0 00.7-5.8l.1-1.6.2-3.8v-1.3-5l-.3-4.3-.1-1.2-.4-3.2v-.9L290 241l-.1-.5-.6-2.9-.1-.6-.6-2.8v-.4l-.7-3v-.2l-.7-2.8-.7-2.7-1-4.2-3.2-13.6c-.2-1-2.7-16 4.7-64.9 4.8-31.5 11-58 11-58.2l1.7-7.3 2.5-10.4a67.4 67.4 0 005.6-16.3 468.5 468.5 0 004.2-22.9v-.6a67 67 0 00-.7-23.4zm-63.6 14c-1 7-2.3 13.5-3.6 19.8-.2 1.1-3 4.7-3.3 6-2.1 9.8-4.3 18.6-6 26.3-2.3 9.3-25 111.7-16 152l4 17 .4 1.3.2.7.4 2 .2.5.5 2.3v.1l.6 2.4v.3l.4 2v.4l.4 1.8.1.4.6 4v.4l.2 1.5v.4l.1 1.8v3.8l-.2 1.2v.3l-.2 1.5a2.8 2.8 0 01-.1.3l-.3 1-.2.5a15 15 0 01-1 2.6l-.2.2-.6 1a4.4 4.4 0 01-.3.4l-.6.8-.3.4-.7.8-.3.3-1.1 1-.5.4-.8.7-.6.4-.2.2a42.7 42.7 0 01-9.3 4.7c-27.8 10.6-48.6 16.4-67.3 38-11.2 12.8-17.9 11.1-22.9 11.2-6.2 0-37.7-1.4-61.9-3l-5.4-.4H51c-7.1-.6-13.2-1.1-17.2-1.7h-1.2l-.8-.2c-7.8-1.2-17-6.3-16.9-12.8a7.3 7.3 0 01.3-1.7 9.2 9.2 0 011.1-2.5 14.5 14.5 0 012.1-2.5 21 21 0 012.2-1.9 44.2 44.2 0 017.9-4.5l3-1.3 3.3-1.3q4.3-1.6 9.8-3.2l1-.2h.3l.4-.2c5-1 13.4-2 24-9.2 11.8-8.2 51.2-52 63.6-66 19.4-22 12.4-95 7.2-117.4a504 504 0 01-7.8-59.3c-.2-1.3-2.5-4.9-2.6-6l-1.5-19.8a2 2 0 012-2.2h114.7a2 2 0 012 2 1.5 1.5 0 010 .3z"
    class="mask view-side leg-left"
  ></path>
  <path
    d="M657.6-25H451.4a67 67 0 00-14.1 51.3v.2l.7 5 1.8 13.6a67.4 67.4 0 004 15.6c3.2 26.8 6.3 56 8.5 76 1.4 13.5 2 19.7 2.5 23.1.4 7-.7 28.8-1.5 35.1a170 170 0 00.9 44.7v.3a97.1 97.1 0 00-8.9 25.3c-1.9 5-3.2 9.7-4.3 13.8l-.7 2.3A97 97 0 00436 358a86.4 86.4 0 0050.6 52.4 158 158 0 0055.7 9c8.7 0 18.1-.4 28.9-1.4a90.3 90.3 0 0067.2-38.5 93 93 0 0011.5-23 110.5 110.5 0 002.4-60.5v-.2a155.6 155.6 0 010-29l.2-1 .2-1.3a122.2 122.2 0 002.8-10.3l3-39.6a231.2 231.2 0 00-4.8-37.5A1134 1134 0 01662 65.9a67 67 0 005.3-15.3c1.6-7.2 3-14.8 4.3-22.7a66.9 66.9 0 00-13.9-53zm-50.2 42.3c-1.2 7-2.4 13.6-3.7 19.7-.3 1.1-3.1 4.7-3.4 6l-.6 2.5c-5.2 21-13.2 129-10.3 141.7 1.7 7.4 7.1 33 2.7 52.8l-.1.4a47 47 0 01-.4 1.7l-.3.8-.6 2.2-.5 1.4-.2.6-.2 1-.2.6-.3 1.1v.6c-.2.4-.3.9-.3 1.3l-.2.6-.2 1.3a186.9 186.9 0 00.4 57.3c3 10.8 3.6 39.8-23.9 42.4s-42.6 1-56.2-4c-9.9-3.6-19.8-22.6-9.5-40.8 3-5.2 5.3-18.3 7.6-22.2s.4-9.7 6.9-20.1a31.2 31.2 0 002-3.7l.4-1.2.4-.8.3-1 .3-1 .3-1 .3-1 .4-1.6.2-1.2.2-1 .1-1.1.2-1v-1.2l.2-.9V246v-1.4-2.1-2.7-2a2.3 2.3 0 010-.2l-.1-1.6v-.5a136 136 0 00-.4-3.5c-1.1-9.6-2.3-19.4-1-28.1s3.1-41 1.6-52c-1-7-6.6-63.8-12.2-109-.2-1.4-2.7-4.9-2.8-6l-2.6-19.7a2 2 0 012-2.3h101.8a2 2 0 011.9 2.4z"
    class="mask view-back leg-left"
  ></path>
  <defs>
    <filter
      id="inner-shadow-big"
      x0="-50%"
      y0="-50%"
      width="200%"
      height="200%"
    >
      <feGaussianBlur
        in="SourceAlpha"
        stdDeviation="8"
        result="blur"
      ></feGaussianBlur>
      <feOffset dy="2" dx="3"></feOffset>
      <feComposite
        in2="SourceAlpha"
        operator="arithmetic"
        k2="-1"
        k3="1"
        result="shadowDiff"
      ></feComposite>
      <feFlood flood-color="#000000" flood-opacity="0.4"></feFlood>
      <feComposite in2="shadowDiff" operator="in"></feComposite>
      <feComposite
        in2="SourceGraphic"
        operator="over"
        result="firstfilter"
      ></feComposite>
      <feGaussianBlur
        in="firstfilter"
        stdDeviation="8"
        result="blur2"
      ></feGaussianBlur>
      <feOffset dy="-2" dx="-3"></feOffset>
      <feComposite
        in2="firstfilter"
        operator="arithmetic"
        k2="-1"
        k3="1"
        result="shadowDiff"
      ></feComposite>
      <feFlood flood-color="#000000" flood-opacity="0.4"></feFlood>
      <feComposite in2="shadowDiff" operator="in"></feComposite>
      <feComposite in2="firstfilter" operator="over"></feComposite>
    </filter>
    <filter
      id="inner-shadow-small"
      x0="-50%"
      y0="-50%"
      width="300%"
      height="300%"
    >
      <feGaussianBlur
        in="SourceAlpha"
        stdDeviation="3"
        result="blur"
      ></feGaussianBlur>
      <feOffset dy="2" dx="3"></feOffset>
      <feComposite
        in2="SourceAlpha"
        operator="arithmetic"
        k2="-1"
        k3="1"
        result="shadowDiff"
      ></feComposite>
      <feFlood flood-color="#000000" flood-opacity="0.3"></feFlood>
      <feComposite in2="shadowDiff" operator="in"></feComposite>
      <feComposite
        in2="SourceGraphic"
        operator="over"
        result="firstfilter"
      ></feComposite>
      <feGaussianBlur
        in="firstfilter"
        stdDeviation="3"
        result="blur2"
      ></feGaussianBlur>
      <feOffset dy="-2" dx="-3"></feOffset>
      <feComposite
        in2="firstfilter"
        operator="arithmetic"
        k2="-1"
        k3="1"
        result="shadowDiff"
      ></feComposite>
      <feFlood flood-color="#000000" flood-opacity="0.3"></feFlood>
      <feComposite in2="shadowDiff" operator="in"></feComposite>
      <feComposite in2="firstfilter" operator="over"></feComposite>
    </filter>
    <filter id="shadowBlur" x="-50%" y="-50%" width="400%" height="400%">
      <feGaussianBlur in="SourceGraphic" stdDeviation="6"></feGaussianBlur>
    </filter>
    <clipPath id="SvgjsClipPath1004">
      <path
        d="M475.3-25H267.6a67 67 0 00-14.2 50.9l2.6 19.7a67.6 67.6 0 004.2 15.8c7.9 59.2 11.6 87.2 12.7 93.9 4 24 6.3 45.6 6.6 54.8a100.5 100.5 0 00-2.4 33.7 156.8 156.8 0 00-1.9 23.3c-.3 6-1.6 21.6-2.8 31.7l-.3.4-3.5 20.4-.2 1.4-.7 4.4v.6l-.3 1.9v.7l-.3 2v.4l-.3 2.6v.7l-.2 2v.7l-.1 2.2v.7l-.1 2.8v10.5l.1.8.2 2.6.1 1.1c0 1 .2 1.8.3 2.8l.1 1 .4 2.9.1.4.1.8a102.7 102.7 0 004 15l2 5.3.1.1a50.7 50.7 0 002.7 5.5l.9 1.6a89 89 0 003.8 6.2 75.1 75.1 0 004.6 6l1.6 1.8c1.4 1.5 2.7 2.9 4.2 4.2l2.1 2a70.7 70.7 0 007.6 5.7 70.5 70.5 0 008 4.6c10.4 5.1 22.7 8.3 38.5 9.8 5.6.6 12 1 19 1.1l4.8.1 7.5.1H390.4c9.8 0 39.3-.2 63.4-20.2a75.7 75.7 0 0013.2-14.1l1.3-1.9 3-4.8.5-.8.7-1.3c1.1-2 2.1-4.1 3.1-6.4v-.1a55.5 55.5 0 002.4-6l.4-1.2v-.2l1.7-5.6.3-1.3v-.2l.9-3.8.2-1.2.8-4.9.2-1 .4-3.7.1-1 .3-4.4v-.8l.1-3.6v-1-9l-.3-3V332l-.4-3.8V327.6a159.2 159.2 0 00-7-32.6 501.2 501.2 0 01-6.4-50.4 141.6 141.6 0 00-1-41.3c-.6-17.7 5.5-87.3 13.2-140.9a67.7 67.7 0 004.3-15.1 476.6 476.6 0 013.3-18.9A66.9 66.9 0 00475.3-25zM425 17.3l-1 5.9-2.4 13.8c-.1 1.2-2.7 4.6-3 6-8.6 56.9-18 153.5-14.5 170.4 2.9 13.9.3 25.7.2 29.2s3.7 54.6 9.7 72.5a93.4 93.4 0 014 19.2v.3l.2 2.4.1 2.2v.5l.1 4.5v2.7l-.2 2v.5l-.3 1.8v.3l-.3 1.9v.3l-.4 1.6a3.6 3.6 0 010 .3l-.6 1.7v.3l-.6 1.3-.1.4-.7 1.4v.1l-.8 1.1-.2.3a10.7 10.7 0 01-.9 1.1 10.8 10.8 0 01-1.1 1.1c-6.1 5-17.8 5-22 5-1.8 0-9 .3-17.5 0h-4c-4.8-.1-9.8-.4-14.5-.8a52.4 52.4 0 01-16.1-3.5 9 9 0 01-1-.5l-.2-.2a7.3 7.3 0 01-.6-.5l-.2-.2-.7-.6v-.1a12 12 0 01-.7-1l-.2-.1a11 11 0 01-.4-.8l-.2-.3a23 23 0 01-.4-.8l-.1-.2-.5-1.2v-.2l-.4-1v-.3l-.3-1v-.4l-.4-1.3a.3.3 0 000-.1l-.1-1.3v-.4l-.2-1.1v-.4l-.1-1.4V348v-.4-1.6-1.3a2.4 2.4 0 010-.3V343v-.4-1.7l.2-1.2v-.4l.1-1.5a1.6 1.6 0 000-.3l.2-1.3v-.4l.2-1.1v-.4l.4-3 .1-.3.1-.6c.7-3.7 1.4-7 2-9.1 2.5-9.2 5.7-50.6 5.6-54-.3-5.9 1.6-17.6 2.3-21s-3.1-11.9.9-23.5-4.1-64.4-6.4-78.1c-1.1-7.2-7.6-55.7-13.8-101.8-.2-1.3-2.6-4.8-2.8-6l-2.7-19.6a2 2 0 012-2.3H423a2 2 0 012 2.3z"
        class="mask view-front leg-left"
        transform="matrix(1,0,0,1,0,-0.25)"
      ></path>
      <path
        d="M311.4 3.2A66.8 66.8 0 00298-25H79a67.2 67.2 0 00-14.6 46.3v.5l1.5 20.6a67.2 67.2 0 003.5 16.4 484 484 0 008.4 58.1c3.6 15.8 5.3 50.6 2.6 65.1-20.6 23-38.3 41.6-46.1 49l-1.1.2-1.5.4-1 .2-3.4.9-.7.2a180 180 0 00-25.5 9.3 106.9 106.9 0 00-19.4 11.4A79.3 79.3 0 00-27 261a78.6 78.6 0 00-5.7 6.2 74.7 74.7 0 00-5.7 7.8 74 74 0 00-9 19.8 72.3 72.3 0 00-2.7 17.8 74 74 0 0026.3 57.8 90.7 90.7 0 0045.4 20.8l1.8.2 2.2.3c5 .7 11.7 1.3 20.6 2h1.3l5.6.4L174.2 380a112.9 112.9 0 0017.1-16c3.6-4.2 7.3-6.6 16-10.3l48.8-21.8 1.5-1.1 1.5-1.1a81.5 81.5 0 0013.8-13.2l.2-.2 1.5-1.8v-.1a79.9 79.9 0 0015.5-33l1-6a89.3 89.3 0 00.7-5.8l.1-1.6.2-3.8v-1.3-5l-.3-4.3-.1-1.2-.4-3.2v-.9L290 241l-.1-.5-.6-2.9-.1-.6-.6-2.8v-.4l-.7-3v-.2l-.7-2.8-.7-2.7-1-4.2-3.2-13.6c-.2-1-2.7-16 4.7-64.9 4.8-31.5 11-58 11-58.2l1.7-7.3 2.5-10.4a67.4 67.4 0 005.6-16.3 468.5 468.5 0 004.2-22.9v-.6a67 67 0 00-.7-23.4zm-63.6 14c-1 7-2.3 13.5-3.6 19.8-.2 1.1-3 4.7-3.3 6-2.1 9.8-4.3 18.6-6 26.3-2.3 9.3-25 111.7-16 152l4 17 .4 1.3.2.7.4 2 .2.5.5 2.3v.1l.6 2.4v.3l.4 2v.4l.4 1.8.1.4.6 4v.4l.2 1.5v.4l.1 1.8v3.8l-.2 1.2v.3l-.2 1.5a2.8 2.8 0 01-.1.3l-.3 1-.2.5a15 15 0 01-1 2.6l-.2.2-.6 1a4.4 4.4 0 01-.3.4l-.6.8-.3.4-.7.8-.3.3-1.1 1-.5.4-.8.7-.6.4-.2.2a42.7 42.7 0 01-9.3 4.7c-27.8 10.6-48.6 16.4-67.3 38-11.2 12.8-17.9 11.1-22.9 11.2-6.2 0-37.7-1.4-61.9-3l-5.4-.4H51c-7.1-.6-13.2-1.1-17.2-1.7h-1.2l-.8-.2c-7.8-1.2-17-6.3-16.9-12.8a7.3 7.3 0 01.3-1.7 9.2 9.2 0 011.1-2.5 14.5 14.5 0 012.1-2.5 21 21 0 012.2-1.9 44.2 44.2 0 017.9-4.5l3-1.3 3.3-1.3q4.3-1.6 9.8-3.2l1-.2h.3l.4-.2c5-1 13.4-2 24-9.2 11.8-8.2 51.2-52 63.6-66 19.4-22 12.4-95 7.2-117.4a504 504 0 01-7.8-59.3c-.2-1.3-2.5-4.9-2.6-6l-1.5-19.8a2 2 0 012-2.2h114.7a2 2 0 012 2 1.5 1.5 0 010 .3z"
        class="mask view-side leg-left"
        transform="matrix(1,0,0,1,0,-0.25)"
      ></path>
      <path
        d="M657.6-25H451.4a67 67 0 00-14.1 51.3v.2l.7 5 1.8 13.6a67.4 67.4 0 004 15.6c3.2 26.8 6.3 56 8.5 76 1.4 13.5 2 19.7 2.5 23.1.4 7-.7 28.8-1.5 35.1a170 170 0 00.9 44.7v.3a97.1 97.1 0 00-8.9 25.3c-1.9 5-3.2 9.7-4.3 13.8l-.7 2.3A97 97 0 00436 358a86.4 86.4 0 0050.6 52.4 158 158 0 0055.7 9c8.7 0 18.1-.4 28.9-1.4a90.3 90.3 0 0067.2-38.5 93 93 0 0011.5-23 110.5 110.5 0 002.4-60.5v-.2a155.6 155.6 0 010-29l.2-1 .2-1.3a122.2 122.2 0 002.8-10.3l3-39.6a231.2 231.2 0 00-4.8-37.5A1134 1134 0 01662 65.9a67 67 0 005.3-15.3c1.6-7.2 3-14.8 4.3-22.7a66.9 66.9 0 00-13.9-53zm-50.2 42.3c-1.2 7-2.4 13.6-3.7 19.7-.3 1.1-3.1 4.7-3.4 6l-.6 2.5c-5.2 21-13.2 129-10.3 141.7 1.7 7.4 7.1 33 2.7 52.8l-.1.4a47 47 0 01-.4 1.7l-.3.8-.6 2.2-.5 1.4-.2.6-.2 1-.2.6-.3 1.1v.6c-.2.4-.3.9-.3 1.3l-.2.6-.2 1.3a186.9 186.9 0 00.4 57.3c3 10.8 3.6 39.8-23.9 42.4s-42.6 1-56.2-4c-9.9-3.6-19.8-22.6-9.5-40.8 3-5.2 5.3-18.3 7.6-22.2s.4-9.7 6.9-20.1a31.2 31.2 0 002-3.7l.4-1.2.4-.8.3-1 .3-1 .3-1 .3-1 .4-1.6.2-1.2.2-1 .1-1.1.2-1v-1.2l.2-.9V246v-1.4-2.1-2.7-2a2.3 2.3 0 010-.2l-.1-1.6v-.5a136 136 0 00-.4-3.5c-1.1-9.6-2.3-19.4-1-28.1s3.1-41 1.6-52c-1-7-6.6-63.8-12.2-109-.2-1.4-2.7-4.9-2.8-6l-2.6-19.7a2 2 0 012-2.3h101.8a2 2 0 011.9 2.4z"
        class="mask view-back leg-left"
        transform="matrix(1,0,0,1,0,-0.25)"
      ></path>
    </clipPath>
  </defs>
  <ellipse
    rx="92.5"
    ry="12.5"
    cx="102.53753280639648"
    cy="324.87487983703613"
    filter="url(#shadowBlur)"
    fill="#777777"
    fill-opacity="0.7"
    class="part-shadow view-side"
    clip-path="url(#SvgjsClipPath1004)"
  ></ellipse>
  <ellipse
    rx="55"
    ry="12.5"
    cx="374.8002166748047"
    cy="364.1107482910156"
    filter="url(#shadowBlur)"
    fill="#777777"
    fill-opacity="0.7"
    class="part-shadow view-front"
    clip-path="url(#SvgjsClipPath1004)"
  ></ellipse>
  <ellipse
    rx="55"
    ry="12.5"
    cx="545.03857421875"
    cy="348.93202114105225"
    filter="url(#shadowBlur)"
    fill="#777777"
    fill-opacity="0.7"
    class="part-shadow view-back"
    clip-path="url(#SvgjsClipPath1004)"
  ></ellipse>
</svg>
